<svg width="66" height="16" viewBox="0 0 66 16" fill="none" xmlns="http://www.w3.org/2000/svg">
<path d="M25.7019 9.38794H22.1277L21.325 11.6145H20.1648L23.4226 3.08325H24.407L27.6707 11.6145H26.5164L25.7019 9.38794ZM22.4675 8.46216H25.3679L23.9148 4.47192L22.4675 8.46216ZM33.9519 5.27466V11.6145H32.8621V6.17114H30.7058L30.5769 8.54419C30.5066 9.63403 30.323 10.4133 30.0261 10.8821C29.7332 11.3508 29.2664 11.595 28.6257 11.6145H28.1921V10.6594L28.5027 10.636C28.8542 10.5969 29.1062 10.3938 29.2585 10.0266C29.4109 9.65942 29.5085 8.97974 29.5515 7.98755L29.6687 5.27466H33.9519ZM39.3425 10.179L41.4988 5.27466H42.8523V11.6145H41.7683V7.00317L39.7175 11.6145H38.9675L36.8757 6.90356V11.6145H35.7917V5.27466H37.198L39.3425 10.179ZM48.5125 11.6145C48.45 11.4895 48.3992 11.2668 48.3601 10.9465C47.8562 11.47 47.2546 11.7317 46.5554 11.7317C45.9304 11.7317 45.4167 11.5559 45.0144 11.2043C44.616 10.8489 44.4167 10.3997 44.4167 9.85669C44.4167 9.19653 44.6667 8.68481 45.1667 8.32153C45.6707 7.95435 46.3777 7.77075 47.2878 7.77075H48.3425V7.27271C48.3425 6.8938 48.2292 6.59302 48.0027 6.37036C47.7761 6.1438 47.4421 6.03052 47.0007 6.03052C46.614 6.03052 46.2898 6.12817 46.0281 6.32349C45.7664 6.5188 45.6355 6.75513 45.6355 7.03247H44.5457C44.5457 6.71606 44.657 6.41138 44.8796 6.11841C45.1062 5.82153 45.4109 5.58716 45.7937 5.41528C46.1804 5.24341 46.6042 5.15747 47.0652 5.15747C47.7957 5.15747 48.3679 5.34106 48.782 5.70825C49.196 6.07153 49.4109 6.57349 49.4265 7.21411V10.1321C49.4265 10.7141 49.5007 11.177 49.6492 11.5208V11.6145H48.5125ZM46.7136 10.7883C47.0535 10.7883 47.3757 10.7004 47.6804 10.5247C47.9851 10.3489 48.2058 10.1204 48.3425 9.83911V8.53833H47.4929C46.1648 8.53833 45.5007 8.927 45.5007 9.70435C45.5007 10.0442 45.614 10.3098 45.8406 10.5012C46.0671 10.6926 46.3582 10.7883 46.7136 10.7883ZM55.7429 6.15356H53.616V11.6145H52.532V6.15356H50.446V5.27466H55.7429V6.15356ZM57.9812 7.46021H59.6277C60.3464 7.46802 60.9148 7.65552 61.3328 8.02271C61.7507 8.38989 61.9597 8.88794 61.9597 9.51685C61.9597 10.1497 61.7449 10.6575 61.3152 11.0403C60.8855 11.4231 60.3074 11.6145 59.5808 11.6145H56.8972V5.27466H57.9812V7.46021ZM64.2214 11.6145H63.1316V5.27466H64.2214V11.6145ZM57.9812 8.34497V10.7297H59.5925C59.9988 10.7297 60.3132 10.6262 60.5359 10.4192C60.7585 10.2083 60.8699 9.92114 60.8699 9.55786C60.8699 9.2063 60.7605 8.91919 60.5417 8.69653C60.3269 8.46997 60.0242 8.35278 59.6335 8.34497H57.9812Z" fill="white"/>
<path d="M20 15.4394L64.5 15.4393" stroke="white" stroke-dasharray="4 3"/>
<path d="M4.84615 3.01855C2.17398 3.01855 0 4.78788 0 6.96267C0 7.69746 0.250089 8.41454 0.723396 9.03666L4.5703 14.082C4.64399 14.1786 4.77381 14.2374 4.91343 14.2374C4.91451 14.2374 4.91556 14.2374 4.91664 14.2374C5.05747 14.2365 5.18756 14.1759 5.25991 14.0776L9.00876 8.98337C9.45595 8.3744 9.69231 7.67565 9.69231 6.96267C9.69231 4.78788 7.51832 3.01855 4.84615 3.01855ZM8.31562 8.64588L4.90732 13.2773L1.40988 8.69032C1.01592 8.1725 0.802308 7.5751 0.802308 6.96267C0.802308 5.15035 2.61935 3.67152 4.84615 3.67152C7.07296 3.67152 8.88731 5.15035 8.88731 6.96267C8.88731 7.55694 8.68778 8.13906 8.31562 8.64588Z" fill="white"/>
<path d="M4.84618 4.9906C3.51009 4.9906 2.4231 5.87527 2.4231 6.96266C2.4231 8.0431 3.4924 8.93471 4.84618 8.93471C6.21664 8.93471 7.26926 8.03123 7.26926 6.96266C7.26926 5.87527 6.18226 4.9906 4.84618 4.9906ZM4.84618 8.28174C3.95079 8.28174 3.2254 7.6894 3.2254 6.96266C3.2254 6.23773 3.95545 5.64357 4.84618 5.64357C5.7369 5.64357 6.46426 6.23773 6.46426 6.96266C6.46426 7.6788 5.75575 8.28174 4.84618 8.28174Z" fill="white"/>
</svg>
