<svg xmlns="http://www.w3.org/2000/svg" width="17" height="18" viewBox="0 0 17 18" fill="none">
  <path d="M10.2168 15.8742C10.0766 15.9091 9.93367 15.9401 9.79181 15.9663C9.42096 16.0352 9.17579 16.3919 9.24438 16.7631C9.27826 16.9457 9.38197 17.0978 9.52277 17.1971C9.66789 17.2992 9.85258 17.3453 10.0408 17.3103C10.2097 17.279 10.38 17.2421 10.5471 17.2004C10.9133 17.1092 11.1364 16.7383 11.045 16.3722C10.9539 16.0059 10.5832 15.783 10.2168 15.8742Z" fill="#867777"/>
  <path d="M15.2708 6.71419C15.3187 6.85847 15.4101 6.97625 15.5256 7.05763C15.6967 7.17819 15.9207 7.21875 16.1344 7.14807C16.4928 7.02909 16.6869 6.64268 16.5684 6.28452C16.5144 6.12124 16.4545 5.95745 16.3906 5.79798C16.2504 5.44752 15.8529 5.2769 15.5023 5.41708C15.152 5.55719 14.9813 5.95482 15.1216 6.30538C15.1752 6.43942 15.2255 6.57701 15.2708 6.71419Z" fill="#867777"/>
  <path d="M12.4376 14.8998C12.3171 14.9794 12.1927 15.0565 12.0673 15.1286C11.7403 15.3173 11.6283 15.7353 11.8168 16.0622C11.868 16.1511 11.9362 16.2238 12.0148 16.2793C12.2256 16.4277 12.5119 16.4499 12.7503 16.3125C12.8993 16.2266 13.0475 16.1352 13.1911 16.0402C13.5058 15.8323 13.5925 15.4082 13.3844 15.0933C13.1764 14.7783 12.7525 14.6917 12.4376 14.8998Z" fill="#867777"/>
  <path d="M16.9933 8.62254C16.9784 8.24534 16.6607 7.95175 16.2834 7.96647C15.9066 7.98135 15.6127 8.29916 15.6275 8.67622C15.6332 8.82038 15.6347 8.9667 15.6314 9.11072C15.6261 9.34727 15.7417 9.55812 15.9215 9.68485C16.0287 9.76028 16.1586 9.80592 16.2996 9.80914C16.6768 9.81751 16.9894 9.51833 16.9978 9.14094C17.0015 8.96886 17.0001 8.79451 16.9933 8.62254Z" fill="#867777"/>
  <path d="M15.159 13.1025C14.8565 12.8756 14.4286 12.9372 14.2021 13.2391C14.1153 13.3547 14.024 13.4689 13.9304 13.5789C13.6859 13.8661 13.7205 14.2976 14.0077 14.5422C14.0241 14.5561 14.0406 14.5689 14.0578 14.5809C14.3433 14.7822 14.7402 14.7359 14.9711 14.465C15.0828 14.3338 15.1917 14.1974 15.2954 14.0593C15.522 13.7573 15.4606 13.3291 15.159 13.1025Z" fill="#867777"/>
  <path d="M16.1639 10.6308C15.8038 10.5179 15.4203 10.7184 15.3074 11.0785C15.2642 11.2161 15.2163 11.3544 15.1647 11.4898C15.0512 11.7878 15.1599 12.1158 15.4092 12.2915C15.4549 12.3236 15.5052 12.3508 15.5599 12.3715C15.9125 12.5061 16.3074 12.3292 16.4418 11.9764C16.5032 11.8154 16.5601 11.651 16.6116 11.4874C16.7243 11.1272 16.524 10.7438 16.1639 10.6308Z" fill="#867777"/>
  <path d="M7.23524 15.9732C6.62424 15.8635 6.03812 15.6766 5.48233 15.4161C5.47575 15.4127 5.46987 15.4087 5.46296 15.4056C5.33199 15.3439 5.20123 15.2779 5.0745 15.2089C5.07406 15.2084 5.07326 15.2081 5.07257 15.2078C4.84004 15.0797 4.6131 14.9381 4.39264 14.7829C1.17784 12.5183 0.404874 8.06041 2.66962 4.84564C3.16208 4.14686 3.75803 3.56388 4.42242 3.10183C4.43061 3.09613 4.43879 3.09046 4.44691 3.08473C6.78813 1.47155 9.96716 1.36284 12.4532 3.02052L11.9192 3.79199C11.7708 4.00672 11.8621 4.1632 12.122 4.13981L14.4413 3.93217C14.7015 3.90878 14.8571 3.68371 14.7871 3.43244L14.1643 1.18845C14.0946 0.936886 13.916 0.906774 13.7675 1.12147L13.2323 1.89476C11.4079 0.670083 9.2197 0.203094 7.04781 0.579711C6.82906 0.61757 6.61338 0.663907 6.40066 0.717845C6.39902 0.718137 6.3977 0.71832 6.39639 0.718612C6.38817 0.720622 6.37983 0.72329 6.37183 0.725519C4.49898 1.20647 2.86494 2.29879 1.69895 3.85729C1.68912 3.86895 1.679 3.88035 1.66972 3.89303C1.63094 3.94525 1.59246 3.99868 1.55479 4.0521C1.49317 4.13966 1.43244 4.22941 1.37433 4.31916C1.36706 4.32998 1.36151 4.34098 1.35515 4.35191C0.392961 5.84291 -0.0711402 7.56667 0.00845139 9.32156C0.0086341 9.32733 0.00830521 9.33314 0.00845139 9.33906C0.016162 9.51049 0.0297562 9.68429 0.0482106 9.85538C0.0491973 9.86642 0.0516457 9.87687 0.0535094 9.88791C0.0725851 10.06 0.096521 10.2324 0.126523 10.4048C0.431441 12.1639 1.26127 13.7469 2.50473 14.9786C2.50762 14.9815 2.51062 14.9846 2.51354 14.9876C2.51456 14.9887 2.5157 14.9893 2.51668 14.9904C2.85076 15.3199 3.21415 15.6247 3.60542 15.9003C4.62937 16.6218 5.76956 17.0987 6.99406 17.3184C7.36559 17.3852 7.7205 17.1379 7.78716 16.7665C7.85378 16.3949 7.60667 16.0397 7.23524 15.9732Z" fill="#867777"/>
  <path d="M8.08047 3.43042C7.77486 3.43042 7.52731 3.67818 7.52731 3.98336V9.49217L12.5656 12.0967C12.6467 12.1386 12.7335 12.1584 12.8189 12.1584C13.019 12.1584 13.2123 12.0494 13.3106 11.8593C13.4507 11.5879 13.3447 11.2545 13.0733 11.1144L8.63301 8.81882V3.98336C8.63297 3.67818 8.38572 3.43042 8.08047 3.43042Z" fill="#867777"/>
</svg>