<svg width="35" height="35" viewBox="0 0 35 35" fill="none" xmlns="http://www.w3.org/2000/svg">
<circle cx="17.2625" cy="17.3907" r="17.2632" fill="#3BAEAB"/>
<g clip-path="url(#clip0_1_1275)">
<path d="M12.9633 22.4326C12.9633 21.5689 13.6634 20.8687 14.5271 20.8687C15.3908 20.8687 16.091 21.5689 16.0909 22.4326H12.9633ZM12.9633 22.4326C12.9633 23.2963 13.6634 23.9964 14.5271 23.9964M12.9633 22.4326L14.5271 23.9964M14.5271 23.9964C15.3908 23.9964 16.0909 23.2962 16.0909 22.4326L14.5271 23.9964ZM15.1917 22.4326V22.4326C15.1917 22.7997 14.8942 23.0972 14.5271 23.0972C14.16 23.0972 13.8625 22.7997 13.8625 22.4326C13.8625 22.0655 14.16 21.768 14.5271 21.768C14.8942 21.768 15.1917 22.0655 15.1917 22.4326Z" fill="white" stroke="white" stroke-width="0.2625"/>
<path d="M21.2422 22.4326V22.4326C21.2422 22.7997 20.9446 23.0972 20.5776 23.0972C20.2105 23.0972 19.9129 22.7997 19.9129 22.4326C19.9129 22.0655 20.2105 21.768 20.5776 21.768C20.9446 21.768 21.2422 22.0655 21.2422 22.4326ZM20.5776 20.8687C19.7139 20.8687 19.0137 21.5689 19.0137 22.4326C19.0137 23.2963 19.7139 23.9964 20.5776 23.9964C21.4412 23.9964 22.1414 23.2962 22.1414 22.4326C22.1414 21.5689 21.4413 20.8687 20.5776 20.8687Z" fill="white" stroke="white" stroke-width="0.2625"/>
<path d="M23.9078 12.5604L23.9079 12.5603L23.9049 12.5571C23.8167 12.4608 23.6961 12.4005 23.5662 12.3877L23.5663 12.3873L23.5552 12.3871L13.2865 12.2451L13.0292 11.4588L13.0292 11.4588L13.0285 11.4568C12.8086 10.8191 12.2114 10.3886 11.5369 10.3815L11.5369 10.3814H11.5355H10.469C10.2207 10.3814 10.0194 10.5827 10.0194 10.831C10.0194 11.0794 10.2207 11.2807 10.469 11.2807H11.534C11.8244 11.2876 12.08 11.4742 12.1753 11.7487L14.1807 17.7967L14.0416 18.1168L14.0415 18.1167L14.0396 18.1216C13.8468 18.6188 13.9047 19.1783 14.1951 19.6254L14.1954 19.6259C14.4838 20.0661 14.969 20.3378 15.4951 20.3537L15.4951 20.3537H15.499H21.691C21.9394 20.3537 22.1407 20.1524 22.1407 19.9041C22.1407 19.6558 21.9394 19.4545 21.691 19.4545H15.5007C15.2726 19.4483 15.0627 19.3281 14.9418 19.1343L14.9418 19.1342C14.8212 18.941 14.7958 18.7031 14.8727 18.4888L14.9674 18.2758L21.5932 17.5833L21.594 17.5832C22.3852 17.4961 23.0361 16.9206 23.2195 16.1459L23.9818 12.9538C24.0288 12.8191 24.0009 12.6692 23.9078 12.5604ZM22.3434 15.9415L22.3434 15.9415L22.3429 15.9439C22.2521 16.3516 21.906 16.6523 21.4896 16.6853L21.4896 16.6852L21.4865 16.6855L14.9698 17.3591L13.5803 13.1457L22.9891 13.2839L22.3434 15.9415Z" fill="white" stroke="white" stroke-width="0.2625"/>
</g>
<defs>
<clipPath id="clip0_1_1275">
<rect width="17.25" height="17.25" fill="white" transform="translate(8.74939 8.87756)"/>
</clipPath>
</defs>
</svg>
