<svg width="35" height="35" viewBox="0 0 35 35" fill="none" xmlns="http://www.w3.org/2000/svg">
<circle cx="17.7362" cy="17.3907" r="17.2632" fill="#3BAEAB"/>
<g clip-path="url(#clip0_1_1276)">
<path d="M22.9338 19.3214C22.126 18.5136 21.1645 17.9156 20.1154 17.5536C21.239 16.7797 21.9772 15.4846 21.9772 14.0201C21.9772 11.6558 20.0536 9.7323 17.6893 9.7323C15.325 9.7323 13.4015 11.6558 13.4015 14.0201C13.4015 15.4846 14.1397 16.7797 15.2633 17.5536C14.2142 17.9156 13.2527 18.5136 12.4449 19.3214C11.0441 20.7222 10.2726 22.5847 10.2726 24.5658H11.4315C11.4315 21.1152 14.2387 18.3079 17.6893 18.3079C21.14 18.3079 23.9472 21.1152 23.9472 24.5658H25.1061C25.1061 22.5847 24.3346 20.7222 22.9338 19.3214ZM17.6893 17.1491C15.964 17.1491 14.5604 15.7454 14.5604 14.0201C14.5604 12.2948 15.964 10.8912 17.6893 10.8912C19.4146 10.8912 20.8183 12.2948 20.8183 14.0201C20.8183 15.7454 19.4146 17.1491 17.6893 17.1491Z" fill="white"/>
</g>
<defs>
<clipPath id="clip0_1_1276">
<rect width="19.4688" height="19.4688" fill="white" transform="translate(8.12933 7.78381)"/>
</clipPath>
</defs>
</svg>
