<svg width="260" height="184" viewBox="0 0 260 184" fill="none" xmlns="http://www.w3.org/2000/svg">
<g filter="url(#filter0_d_1_1314)">
<rect x="20" y="16" width="220" height="144" rx="5" fill="white" shape-rendering="crispEdges"/>
<path d="M32.3489 106.72H29.8264L29.8128 105.66H32.1028C32.4811 105.66 32.8115 105.596 33.094 105.469C33.3766 105.341 33.5953 105.159 33.7503 104.922C33.9098 104.68 33.9895 104.393 33.9895 104.061C33.9895 103.696 33.9189 103.4 33.7776 103.172C33.6409 102.939 33.429 102.771 33.1419 102.666C32.8593 102.557 32.4993 102.502 32.0618 102.502H30.1204V111.375H28.8011V101.422H32.0618C32.5722 101.422 33.0279 101.474 33.429 101.579C33.83 101.679 34.1695 101.839 34.4475 102.058C34.7301 102.272 34.9443 102.545 35.0901 102.878C35.236 103.211 35.3089 103.609 35.3089 104.074C35.3089 104.484 35.2041 104.856 34.9944 105.188C34.7848 105.517 34.4931 105.785 34.1194 105.995C33.7503 106.205 33.3173 106.339 32.8206 106.398L32.3489 106.72ZM32.2874 111.375H29.3069L30.052 110.302H32.2874C32.7067 110.302 33.0621 110.229 33.3538 110.083C33.65 109.937 33.8756 109.732 34.0305 109.468C34.1855 109.199 34.263 108.882 34.263 108.518C34.263 108.148 34.1969 107.829 34.0647 107.561C33.9326 107.292 33.7252 107.084 33.4427 106.938C33.1601 106.793 32.7955 106.72 32.3489 106.72H30.469L30.4827 105.66H33.053L33.3333 106.043C33.8118 106.084 34.2174 106.221 34.5501 106.453C34.8828 106.681 35.1357 106.973 35.3089 107.328C35.4866 107.684 35.5755 108.076 35.5755 108.504C35.5755 109.124 35.4388 109.648 35.1653 110.076C34.8964 110.5 34.5159 110.824 34.0237 111.047C33.5315 111.266 32.9527 111.375 32.2874 111.375ZM38.6514 106.521H40.873C41.4701 106.521 41.9736 106.626 42.3838 106.836C42.7939 107.041 43.1038 107.326 43.3135 107.69C43.5277 108.05 43.6348 108.461 43.6348 108.921C43.6348 109.263 43.5755 109.584 43.457 109.885C43.3385 110.181 43.1608 110.441 42.9238 110.664C42.6914 110.887 42.402 111.063 42.0557 111.19C41.7139 111.313 41.3197 111.375 40.873 111.375H37.7285V103.979H38.9932V110.336H40.873C41.2376 110.336 41.5293 110.27 41.748 110.138C41.9668 110.006 42.124 109.835 42.2197 109.625C42.3154 109.415 42.3633 109.197 42.3633 108.969C42.3633 108.745 42.3154 108.527 42.2197 108.312C42.124 108.098 41.9668 107.921 41.748 107.779C41.5293 107.633 41.2376 107.561 40.873 107.561H38.6514V106.521ZM46.2666 103.979V111.375H45.002V103.979H46.2666ZM53.5056 100.759H54.5446C54.5446 101.205 54.4763 101.561 54.3396 101.825C54.2029 102.085 54.016 102.285 53.779 102.427C53.5466 102.568 53.2823 102.675 52.9861 102.748C52.6944 102.821 52.3913 102.892 52.0769 102.96C51.6849 103.042 51.3204 103.172 50.9831 103.35C50.6504 103.523 50.3633 103.769 50.1218 104.088C49.8848 104.407 49.7094 104.822 49.5954 105.332C49.4861 105.842 49.4564 106.474 49.5066 107.226V107.854H48.4675V107.226C48.4675 106.382 48.5473 105.646 48.7068 105.018C48.8708 104.389 49.101 103.858 49.3972 103.425C49.6934 102.992 50.0443 102.648 50.4499 102.393C50.8601 102.137 51.3113 101.962 51.8034 101.866C52.1589 101.798 52.4642 101.725 52.7195 101.647C52.9747 101.565 53.1683 101.456 53.3005 101.319C53.4372 101.183 53.5056 100.996 53.5056 100.759ZM52.0085 104.402C52.4916 104.402 52.9223 104.487 53.3005 104.655C53.6788 104.824 54.0001 105.059 54.2644 105.359C54.5287 105.66 54.7292 106.016 54.8659 106.426C55.0072 106.831 55.0779 107.273 55.0779 107.752V107.902C55.0779 108.417 55.0027 108.896 54.8523 109.338C54.7064 109.775 54.49 110.158 54.2029 110.486C53.9203 110.81 53.5739 111.063 53.1638 111.245C52.7582 111.427 52.2956 111.519 51.7761 111.519C51.2566 111.519 50.7917 111.427 50.3816 111.245C49.976 111.063 49.6296 110.81 49.3425 110.486C49.0554 110.158 48.8366 109.775 48.6863 109.338C48.5404 108.896 48.4675 108.417 48.4675 107.902V107.752C48.4675 107.638 48.488 107.526 48.529 107.417C48.57 107.308 48.6202 107.196 48.6794 107.082C48.7432 106.968 48.8002 106.847 48.8503 106.72C49.0189 106.31 49.2491 105.929 49.5407 105.578C49.837 105.227 50.1902 104.945 50.6003 104.73C51.015 104.512 51.4844 104.402 52.0085 104.402ZM51.7624 105.435C51.2976 105.435 50.9148 105.542 50.614 105.756C50.3178 105.97 50.0967 106.255 49.9509 106.61C49.8051 106.961 49.7321 107.342 49.7321 107.752V107.902C49.7321 108.249 49.7732 108.577 49.8552 108.887C49.9372 109.197 50.0603 109.472 50.2243 109.714C50.393 109.951 50.6049 110.138 50.8601 110.274C51.1198 110.411 51.4252 110.479 51.7761 110.479C52.127 110.479 52.4301 110.411 52.6853 110.274C52.9405 110.138 53.1501 109.951 53.3142 109.714C53.4782 109.472 53.6013 109.197 53.6833 108.887C53.7654 108.577 53.8064 108.249 53.8064 107.902V107.752C53.8064 107.442 53.7654 107.148 53.6833 106.87C53.6013 106.592 53.476 106.346 53.3073 106.132C53.1433 105.918 52.9314 105.749 52.6716 105.626C52.4164 105.498 52.1133 105.435 51.7624 105.435ZM58.0375 109.372L61.4487 103.979H62.7202V111.375H61.4487V105.981L58.0375 111.375H56.7797V103.979H58.0375V109.372ZM66.2951 105.4V114.219H65.0236V103.979H66.1857L66.2951 105.4ZM71.2785 107.615V107.759C71.2785 108.297 71.2147 108.796 71.0871 109.256C70.9595 109.712 70.7726 110.108 70.5265 110.445C70.285 110.783 69.9865 111.045 69.631 111.231C69.2755 111.418 68.8677 111.512 68.4074 111.512C67.938 111.512 67.5233 111.434 67.1632 111.279C66.8032 111.124 66.4979 110.899 66.2472 110.603C65.9966 110.306 65.7961 109.951 65.6457 109.536C65.4998 109.121 65.3996 108.654 65.3449 108.135V107.369C65.3996 106.822 65.5021 106.332 65.6525 105.899C65.8029 105.466 66.0011 105.097 66.2472 104.792C66.4979 104.482 66.8009 104.247 67.1564 104.088C67.5119 103.924 67.922 103.842 68.3869 103.842C68.8517 103.842 69.2642 103.933 69.6242 104.115C69.9842 104.293 70.2873 104.548 70.5334 104.881C70.7795 105.214 70.964 105.612 71.0871 106.077C71.2147 106.537 71.2785 107.05 71.2785 107.615ZM70.007 107.759V107.615C70.007 107.246 69.9683 106.9 69.8908 106.576C69.8133 106.248 69.6925 105.961 69.5285 105.715C69.369 105.464 69.1639 105.268 68.9132 105.127C68.6626 104.981 68.3641 104.908 68.0177 104.908C67.6987 104.908 67.4207 104.963 67.1838 105.072C66.9513 105.182 66.7531 105.33 66.589 105.517C66.425 105.699 66.2905 105.909 66.1857 106.146C66.0854 106.378 66.0102 106.619 65.9601 106.87V108.641C66.0513 108.96 66.1789 109.26 66.3429 109.543C66.507 109.821 66.7257 110.047 66.9992 110.22C67.2726 110.388 67.6167 110.473 68.0314 110.473C68.3732 110.473 68.6671 110.402 68.9132 110.261C69.1639 110.115 69.369 109.917 69.5285 109.666C69.6925 109.415 69.8133 109.128 69.8908 108.805C69.9683 108.477 70.007 108.128 70.007 107.759ZM77.5331 110.11V106.303C77.5331 106.011 77.4738 105.758 77.3554 105.544C77.2414 105.325 77.0682 105.157 76.8358 105.038C76.6034 104.92 76.3163 104.86 75.9745 104.86C75.6555 104.86 75.3752 104.915 75.1337 105.024C74.8967 105.134 74.7098 105.277 74.5731 105.455C74.441 105.633 74.3749 105.824 74.3749 106.029H73.1102C73.1102 105.765 73.1786 105.503 73.3153 105.243C73.452 104.983 73.648 104.749 73.9032 104.539C74.163 104.325 74.4729 104.156 74.8329 104.033C75.1975 103.906 75.6031 103.842 76.0497 103.842C76.5875 103.842 77.0614 103.933 77.4716 104.115C77.8863 104.298 78.2098 104.573 78.4423 104.942C78.6792 105.307 78.7977 105.765 78.7977 106.316V109.762C78.7977 110.008 78.8182 110.27 78.8593 110.548C78.9048 110.826 78.9709 111.065 79.0575 111.266V111.375H77.7382C77.6744 111.229 77.6242 111.035 77.5878 110.794C77.5513 110.548 77.5331 110.32 77.5331 110.11ZM77.7518 106.891L77.7655 107.779H76.4872C76.1272 107.779 75.8059 107.809 75.5233 107.868C75.2408 107.923 75.0038 108.007 74.8124 108.121C74.621 108.235 74.4751 108.379 74.3749 108.552C74.2746 108.72 74.2245 108.919 74.2245 109.146C74.2245 109.379 74.2769 109.591 74.3817 109.782C74.4865 109.974 74.6438 110.126 74.8534 110.24C75.0676 110.35 75.3296 110.404 75.6395 110.404C76.0269 110.404 76.3687 110.322 76.6649 110.158C76.9611 109.994 77.1958 109.794 77.369 109.557C77.5468 109.32 77.6425 109.09 77.6561 108.866L78.1962 109.475C78.1643 109.666 78.0777 109.878 77.9364 110.11C77.7951 110.343 77.606 110.566 77.369 110.78C77.1366 110.99 76.8586 111.165 76.535 111.307C76.216 111.443 75.856 111.512 75.455 111.512C74.9537 111.512 74.5139 111.414 74.1356 111.218C73.7619 111.022 73.4703 110.76 73.2606 110.432C73.0555 110.099 72.953 109.728 72.953 109.317C72.953 108.921 73.0305 108.572 73.1854 108.271C73.3404 107.966 73.5637 107.713 73.8554 107.513C74.147 107.308 74.4979 107.153 74.9081 107.048C75.3182 106.943 75.7763 106.891 76.2821 106.891H77.7518ZM82.4342 109.372L85.8453 103.979H87.1168V111.375H85.8453V105.981L82.4342 111.375H81.1764V103.979H82.4342V109.372ZM85.1549 101.299H86.1803C86.1803 101.654 86.0982 101.971 85.9342 102.249C85.7701 102.522 85.5354 102.737 85.2301 102.892C84.9247 103.047 84.5624 103.124 84.1432 103.124C83.5097 103.124 83.0084 102.955 82.6393 102.618C82.2747 102.276 82.0924 101.837 82.0924 101.299H83.1178C83.1178 101.568 83.1952 101.805 83.3502 102.01C83.5051 102.215 83.7695 102.317 84.1432 102.317C84.5077 102.317 84.7675 102.215 84.9225 102.01C85.0774 101.805 85.1549 101.568 85.1549 101.299ZM92.4417 103.979V111.375H91.1702V103.979H92.4417ZM94.9232 103.979V105.004H88.7366V103.979H94.9232ZM98.9698 111.512C98.4548 111.512 97.9877 111.425 97.5684 111.252C97.1537 111.074 96.7959 110.826 96.4952 110.507C96.1989 110.188 95.9711 109.81 95.8116 109.372C95.6521 108.935 95.5723 108.456 95.5723 107.937V107.649C95.5723 107.048 95.6612 106.512 95.8389 106.043C96.0166 105.569 96.2582 105.168 96.5635 104.84C96.8689 104.512 97.2152 104.263 97.6026 104.095C97.9899 103.926 98.391 103.842 98.8057 103.842C99.3343 103.842 99.7901 103.933 100.173 104.115C100.56 104.298 100.877 104.553 101.123 104.881C101.369 105.204 101.551 105.587 101.67 106.029C101.788 106.467 101.848 106.945 101.848 107.465V108.032H96.3243V107H100.583V106.904C100.565 106.576 100.496 106.257 100.378 105.947C100.264 105.637 100.082 105.382 99.8311 105.182C99.5804 104.981 99.2386 104.881 98.8057 104.881C98.5186 104.881 98.2543 104.942 98.0127 105.065C97.7712 105.184 97.5638 105.362 97.3907 105.599C97.2175 105.836 97.083 106.125 96.9873 106.467C96.8916 106.809 96.8438 107.203 96.8438 107.649V107.937C96.8438 108.287 96.8916 108.618 96.9873 108.928C97.0876 109.233 97.2312 109.502 97.418 109.734C97.6094 109.967 97.8396 110.149 98.1084 110.281C98.3819 110.413 98.6918 110.479 99.0381 110.479C99.4847 110.479 99.863 110.388 100.173 110.206C100.483 110.024 100.754 109.78 100.986 109.475L101.752 110.083C101.592 110.325 101.39 110.555 101.144 110.773C100.897 110.992 100.594 111.17 100.234 111.307C99.8789 111.443 99.4574 111.512 98.9698 111.512ZM112.286 103.979V105.024H108.546V103.979H112.286ZM108.731 103.979V111.375H107.466V103.979H108.731ZM113.407 103.979V111.375H112.135V103.979H113.407ZM115.382 107.759V107.602C115.382 107.068 115.46 106.574 115.614 106.118C115.769 105.658 115.993 105.259 116.284 104.922C116.576 104.58 116.929 104.316 117.344 104.129C117.759 103.938 118.224 103.842 118.738 103.842C119.258 103.842 119.725 103.938 120.14 104.129C120.559 104.316 120.915 104.58 121.206 104.922C121.502 105.259 121.728 105.658 121.883 106.118C122.038 106.574 122.115 107.068 122.115 107.602V107.759C122.115 108.292 122.038 108.786 121.883 109.242C121.728 109.698 121.502 110.097 121.206 110.438C120.915 110.776 120.561 111.04 120.147 111.231C119.737 111.418 119.272 111.512 118.752 111.512C118.233 111.512 117.765 111.418 117.351 111.231C116.936 111.04 116.581 110.776 116.284 110.438C115.993 110.097 115.769 109.698 115.614 109.242C115.46 108.786 115.382 108.292 115.382 107.759ZM116.647 107.602V107.759C116.647 108.128 116.69 108.477 116.777 108.805C116.863 109.128 116.993 109.415 117.166 109.666C117.344 109.917 117.565 110.115 117.829 110.261C118.094 110.402 118.401 110.473 118.752 110.473C119.099 110.473 119.402 110.402 119.661 110.261C119.926 110.115 120.144 109.917 120.318 109.666C120.491 109.415 120.621 109.128 120.707 108.805C120.798 108.477 120.844 108.128 120.844 107.759V107.602C120.844 107.237 120.798 106.893 120.707 106.569C120.621 106.241 120.488 105.952 120.311 105.701C120.138 105.446 119.919 105.245 119.654 105.1C119.395 104.954 119.089 104.881 118.738 104.881C118.392 104.881 118.087 104.954 117.822 105.1C117.563 105.245 117.344 105.446 117.166 105.701C116.993 105.952 116.863 106.241 116.777 106.569C116.69 106.893 116.647 107.237 116.647 107.602ZM127.843 111.375V103.979H129.108V110.336H132.512V103.979H133.784V111.375H127.843ZM134.659 110.336L134.536 113.569H133.408V111.375H132.444V110.336H134.659ZM139.382 111.512C138.867 111.512 138.4 111.425 137.981 111.252C137.566 111.074 137.208 110.826 136.908 110.507C136.611 110.188 136.383 109.81 136.224 109.372C136.064 108.935 135.985 108.456 135.985 107.937V107.649C135.985 107.048 136.074 106.512 136.251 106.043C136.429 105.569 136.671 105.168 136.976 104.84C137.281 104.512 137.628 104.263 138.015 104.095C138.402 103.926 138.803 103.842 139.218 103.842C139.747 103.842 140.202 103.933 140.585 104.115C140.973 104.298 141.289 104.553 141.536 104.881C141.782 105.204 141.964 105.587 142.082 106.029C142.201 106.467 142.26 106.945 142.26 107.465V108.032H136.737V107H140.995V106.904C140.977 106.576 140.909 106.257 140.79 105.947C140.676 105.637 140.494 105.382 140.244 105.182C139.993 104.981 139.651 104.881 139.218 104.881C138.931 104.881 138.667 104.942 138.425 105.065C138.184 105.184 137.976 105.362 137.803 105.599C137.63 105.836 137.495 106.125 137.4 106.467C137.304 106.809 137.256 107.203 137.256 107.649V107.937C137.256 108.287 137.304 108.618 137.4 108.928C137.5 109.233 137.644 109.502 137.83 109.734C138.022 109.967 138.252 110.149 138.521 110.281C138.794 110.413 139.104 110.479 139.451 110.479C139.897 110.479 140.275 110.388 140.585 110.206C140.895 110.024 141.166 109.78 141.399 109.475L142.164 110.083C142.005 110.325 141.802 110.555 141.556 110.773C141.31 110.992 141.007 111.17 140.647 111.307C140.291 111.443 139.87 111.512 139.382 111.512ZM149.034 107.185V108.21H145.124V107.185H149.034ZM145.391 103.979V111.375H144.126V103.979H145.391ZM150.06 103.979V111.375H148.788V103.979H150.06ZM155.446 111.512C154.931 111.512 154.464 111.425 154.045 111.252C153.63 111.074 153.272 110.826 152.971 110.507C152.675 110.188 152.447 109.81 152.288 109.372C152.128 108.935 152.049 108.456 152.049 107.937V107.649C152.049 107.048 152.138 106.512 152.315 106.043C152.493 105.569 152.735 105.168 153.04 104.84C153.345 104.512 153.692 104.263 154.079 104.095C154.466 103.926 154.867 103.842 155.282 103.842C155.811 103.842 156.266 103.933 156.649 104.115C157.037 104.298 157.353 104.553 157.599 104.881C157.846 105.204 158.028 105.587 158.146 106.029C158.265 106.467 158.324 106.945 158.324 107.465V108.032H152.801V107H157.059V106.904C157.041 106.576 156.973 106.257 156.854 105.947C156.74 105.637 156.558 105.382 156.307 105.182C156.057 104.981 155.715 104.881 155.282 104.881C154.995 104.881 154.731 104.942 154.489 105.065C154.248 105.184 154.04 105.362 153.867 105.599C153.694 105.836 153.559 106.125 153.464 106.467C153.368 106.809 153.32 107.203 153.32 107.649V107.937C153.32 108.287 153.368 108.618 153.464 108.928C153.564 109.233 153.707 109.502 153.894 109.734C154.086 109.967 154.316 110.149 154.585 110.281C154.858 110.413 155.168 110.479 155.514 110.479C155.961 110.479 156.339 110.388 156.649 110.206C156.959 110.024 157.23 109.78 157.463 109.475L158.228 110.083C158.069 110.325 157.866 110.555 157.62 110.773C157.374 110.992 157.071 111.17 156.711 111.307C156.355 111.443 155.934 111.512 155.446 111.512ZM161.229 109.871V110.89C161.229 111.304 161.124 111.742 160.915 112.202C160.705 112.667 160.411 113.054 160.033 113.364L159.315 112.865C159.461 112.665 159.584 112.46 159.684 112.25C159.784 112.045 159.86 111.831 159.91 111.607C159.964 111.389 159.992 111.156 159.992 110.91V109.871H161.229ZM169.835 110.473C170.136 110.473 170.414 110.411 170.669 110.288C170.924 110.165 171.134 109.996 171.298 109.782C171.462 109.563 171.555 109.315 171.578 109.037H172.781C172.758 109.475 172.61 109.882 172.337 110.261C172.068 110.634 171.715 110.938 171.277 111.17C170.84 111.398 170.359 111.512 169.835 111.512C169.279 111.512 168.794 111.414 168.379 111.218C167.969 111.022 167.627 110.753 167.353 110.411C167.085 110.069 166.882 109.677 166.745 109.235C166.613 108.789 166.547 108.317 166.547 107.82V107.533C166.547 107.036 166.613 106.567 166.745 106.125C166.882 105.678 167.085 105.284 167.353 104.942C167.627 104.601 167.969 104.332 168.379 104.136C168.794 103.94 169.279 103.842 169.835 103.842C170.414 103.842 170.92 103.96 171.353 104.197C171.785 104.43 172.125 104.749 172.371 105.154C172.622 105.555 172.758 106.011 172.781 106.521H171.578C171.555 106.216 171.469 105.94 171.318 105.694C171.172 105.448 170.972 105.252 170.717 105.106C170.466 104.956 170.172 104.881 169.835 104.881C169.448 104.881 169.122 104.958 168.857 105.113C168.598 105.264 168.39 105.469 168.235 105.729C168.085 105.984 167.976 106.269 167.907 106.583C167.843 106.893 167.811 107.21 167.811 107.533V107.82C167.811 108.144 167.843 108.463 167.907 108.777C167.971 109.092 168.078 109.377 168.228 109.632C168.383 109.887 168.591 110.092 168.851 110.247C169.115 110.397 169.443 110.473 169.835 110.473ZM175.857 103.979V111.375H174.592V103.979H175.857ZM180.711 103.979L177.204 108.217H175.433L175.242 107.109H176.691L179.173 103.979H180.711ZM179.35 111.375L176.63 108.025L177.443 107.109L180.957 111.375H179.35ZM181.852 107.759V107.602C181.852 107.068 181.929 106.574 182.084 106.118C182.239 105.658 182.463 105.259 182.754 104.922C183.046 104.58 183.399 104.316 183.814 104.129C184.229 103.938 184.693 103.842 185.208 103.842C185.728 103.842 186.195 103.938 186.61 104.129C187.029 104.316 187.385 104.58 187.676 104.922C187.972 105.259 188.198 105.658 188.353 106.118C188.508 106.574 188.585 107.068 188.585 107.602V107.759C188.585 108.292 188.508 108.786 188.353 109.242C188.198 109.698 187.972 110.097 187.676 110.438C187.385 110.776 187.031 111.04 186.617 111.231C186.206 111.418 185.742 111.512 185.222 111.512C184.703 111.512 184.235 111.418 183.821 111.231C183.406 111.04 183.051 110.776 182.754 110.438C182.463 110.097 182.239 109.698 182.084 109.242C181.929 108.786 181.852 108.292 181.852 107.759ZM183.117 107.602V107.759C183.117 108.128 183.16 108.477 183.246 108.805C183.333 109.128 183.463 109.415 183.636 109.666C183.814 109.917 184.035 110.115 184.299 110.261C184.564 110.402 184.871 110.473 185.222 110.473C185.568 110.473 185.871 110.402 186.131 110.261C186.396 110.115 186.614 109.917 186.788 109.666C186.961 109.415 187.091 109.128 187.177 108.805C187.268 108.477 187.314 108.128 187.314 107.759V107.602C187.314 107.237 187.268 106.893 187.177 106.569C187.091 106.241 186.958 105.952 186.781 105.701C186.607 105.446 186.389 105.245 186.124 105.1C185.865 104.954 185.559 104.881 185.208 104.881C184.862 104.881 184.557 104.954 184.292 105.1C184.033 105.245 183.814 105.446 183.636 105.701C183.463 105.952 183.333 106.241 183.246 106.569C183.16 106.893 183.117 107.237 183.117 107.602ZM191.716 105.4V114.219H190.444V103.979H191.607L191.716 105.4ZM196.699 107.615V107.759C196.699 108.297 196.636 108.796 196.508 109.256C196.38 109.712 196.193 110.108 195.947 110.445C195.706 110.783 195.407 111.045 195.052 111.231C194.696 111.418 194.289 111.512 193.828 111.512C193.359 111.512 192.944 111.434 192.584 111.279C192.224 111.124 191.919 110.899 191.668 110.603C191.417 110.306 191.217 109.951 191.067 109.536C190.921 109.121 190.82 108.654 190.766 108.135V107.369C190.82 106.822 190.923 106.332 191.073 105.899C191.224 105.466 191.422 105.097 191.668 104.792C191.919 104.482 192.222 104.247 192.577 104.088C192.933 103.924 193.343 103.842 193.808 103.842C194.273 103.842 194.685 103.933 195.045 104.115C195.405 104.293 195.708 104.548 195.954 104.881C196.2 105.214 196.385 105.612 196.508 106.077C196.636 106.537 196.699 107.05 196.699 107.615ZM195.428 107.759V107.615C195.428 107.246 195.389 106.9 195.312 106.576C195.234 106.248 195.113 105.961 194.949 105.715C194.79 105.464 194.585 105.268 194.334 105.127C194.083 104.981 193.785 104.908 193.439 104.908C193.12 104.908 192.842 104.963 192.605 105.072C192.372 105.182 192.174 105.33 192.01 105.517C191.846 105.699 191.711 105.909 191.607 106.146C191.506 106.378 191.431 106.619 191.381 106.87V108.641C191.472 108.96 191.6 109.26 191.764 109.543C191.928 109.821 192.147 110.047 192.42 110.22C192.693 110.388 193.038 110.473 193.452 110.473C193.794 110.473 194.088 110.402 194.334 110.261C194.585 110.115 194.79 109.917 194.949 109.666C195.113 109.415 195.234 109.128 195.312 108.805C195.389 108.477 195.428 108.128 195.428 107.759ZM198.258 107.759V107.602C198.258 107.068 198.335 106.574 198.49 106.118C198.645 105.658 198.868 105.259 199.16 104.922C199.452 104.58 199.805 104.316 200.22 104.129C200.634 103.938 201.099 103.842 201.614 103.842C202.134 103.842 202.601 103.938 203.015 104.129C203.435 104.316 203.79 104.58 204.082 104.922C204.378 105.259 204.604 105.658 204.759 106.118C204.914 106.574 204.991 107.068 204.991 107.602V107.759C204.991 108.292 204.914 108.786 204.759 109.242C204.604 109.698 204.378 110.097 204.082 110.438C203.79 110.776 203.437 111.04 203.022 111.231C202.612 111.418 202.147 111.512 201.628 111.512C201.108 111.512 200.641 111.418 200.226 111.231C199.812 111.04 199.456 110.776 199.16 110.438C198.868 110.097 198.645 109.698 198.49 109.242C198.335 108.786 198.258 108.292 198.258 107.759ZM199.522 107.602V107.759C199.522 108.128 199.566 108.477 199.652 108.805C199.739 109.128 199.869 109.415 200.042 109.666C200.22 109.917 200.441 110.115 200.705 110.261C200.969 110.402 201.277 110.473 201.628 110.473C201.974 110.473 202.277 110.402 202.537 110.261C202.801 110.115 203.02 109.917 203.193 109.666C203.366 109.415 203.496 109.128 203.583 108.805C203.674 108.477 203.72 108.128 203.72 107.759V107.602C203.72 107.237 203.674 106.893 203.583 106.569C203.496 106.241 203.364 105.952 203.186 105.701C203.013 105.446 202.794 105.245 202.53 105.1C202.27 104.954 201.965 104.881 201.614 104.881C201.268 104.881 200.962 104.954 200.698 105.1C200.438 105.245 200.22 105.446 200.042 105.701C199.869 105.952 199.739 106.241 199.652 106.569C199.566 106.893 199.522 107.237 199.522 107.602ZM209.817 110.473C210.118 110.473 210.396 110.411 210.651 110.288C210.906 110.165 211.116 109.996 211.28 109.782C211.444 109.563 211.537 109.315 211.56 109.037H212.763C212.74 109.475 212.592 109.882 212.319 110.261C212.05 110.634 211.697 110.938 211.259 111.17C210.822 111.398 210.341 111.512 209.817 111.512C209.261 111.512 208.776 111.414 208.361 111.218C207.951 111.022 207.609 110.753 207.336 110.411C207.067 110.069 206.864 109.677 206.727 109.235C206.595 108.789 206.529 108.317 206.529 107.82V107.533C206.529 107.036 206.595 106.567 206.727 106.125C206.864 105.678 207.067 105.284 207.336 104.942C207.609 104.601 207.951 104.332 208.361 104.136C208.776 103.94 209.261 103.842 209.817 103.842C210.396 103.842 210.902 103.96 211.335 104.197C211.767 104.43 212.107 104.749 212.353 105.154C212.604 105.555 212.74 106.011 212.763 106.521H211.56C211.537 106.216 211.451 105.94 211.3 105.694C211.155 105.448 210.954 105.252 210.699 105.106C210.448 104.956 210.154 104.881 209.817 104.881C209.43 104.881 209.104 104.958 208.839 105.113C208.58 105.264 208.372 105.469 208.217 105.729C208.067 105.984 207.958 106.269 207.889 106.583C207.825 106.893 207.794 107.21 207.794 107.533V107.82C207.794 108.144 207.825 108.463 207.889 108.777C207.953 109.092 208.06 109.377 208.211 109.632C208.365 109.887 208.573 110.092 208.833 110.247C209.097 110.397 209.425 110.473 209.817 110.473ZM217.48 103.979V111.375H216.208V103.979H217.48ZM219.961 103.979V105.004H213.775V103.979H219.961ZM222.853 109.372L226.264 103.979H227.535V111.375H226.264V105.981L222.853 111.375H221.595V103.979H222.853V109.372ZM32.3519 119.979H33.6166L33.5072 122.747C33.4798 123.449 33.4001 124.055 33.2679 124.565C33.1358 125.076 32.9671 125.511 32.7621 125.871C32.557 126.227 32.3268 126.525 32.0716 126.767C31.821 127.008 31.5612 127.211 31.2923 127.375H30.6634L30.6976 126.343L30.9574 126.336C31.1078 126.158 31.2536 125.976 31.3949 125.789C31.5362 125.598 31.666 125.372 31.7845 125.112C31.903 124.848 32.001 124.527 32.0785 124.148C32.1605 123.766 32.2129 123.299 32.2357 122.747L32.3519 119.979ZM32.6664 119.979H37.1166V127.375H35.8519V121.147H32.6664V119.979ZM30.3763 126.336H38.0668V129.556H36.8021V127.375H31.641V129.556H30.3695L30.3763 126.336ZM39.4132 123.759V123.602C39.4132 123.068 39.4906 122.574 39.6456 122.118C39.8005 121.658 40.0238 121.259 40.3155 120.922C40.6072 120.58 40.9604 120.316 41.3751 120.129C41.7898 119.938 42.2546 119.842 42.7696 119.842C43.2891 119.842 43.7563 119.938 44.171 120.129C44.5902 120.316 44.9457 120.58 45.2374 120.922C45.5336 121.259 45.7592 121.658 45.9141 122.118C46.0691 122.574 46.1466 123.068 46.1466 123.602V123.759C46.1466 124.292 46.0691 124.786 45.9141 125.242C45.7592 125.698 45.5336 126.097 45.2374 126.438C44.9457 126.776 44.5925 127.04 44.1778 127.231C43.7677 127.418 43.3028 127.512 42.7833 127.512C42.2637 127.512 41.7966 127.418 41.3819 127.231C40.9672 127.04 40.6117 126.776 40.3155 126.438C40.0238 126.097 39.8005 125.698 39.6456 125.242C39.4906 124.786 39.4132 124.292 39.4132 123.759ZM40.6778 123.602V123.759C40.6778 124.128 40.7211 124.477 40.8077 124.805C40.8943 125.128 41.0242 125.415 41.1973 125.666C41.3751 125.917 41.5961 126.115 41.8604 126.261C42.1248 126.402 42.4324 126.473 42.7833 126.473C43.1296 126.473 43.4327 126.402 43.6925 126.261C43.9568 126.115 44.1755 125.917 44.3487 125.666C44.5219 125.415 44.6518 125.128 44.7384 124.805C44.8295 124.477 44.8751 124.128 44.8751 123.759V123.602C44.8751 123.237 44.8295 122.893 44.7384 122.569C44.6518 122.241 44.5196 121.952 44.3419 121.701C44.1687 121.446 43.9499 121.245 43.6856 121.1C43.4259 120.954 43.1205 120.881 42.7696 120.881C42.4233 120.881 42.1179 120.954 41.8536 121.1C41.5938 121.245 41.3751 121.446 41.1973 121.701C41.0242 121.952 40.8943 122.241 40.8077 122.569C40.7211 122.893 40.6778 123.237 40.6778 123.602ZM50.9725 126.473C51.2732 126.473 51.5512 126.411 51.8064 126.288C52.0617 126.165 52.2713 125.996 52.4354 125.782C52.5994 125.563 52.6928 125.315 52.7156 125.037H53.9187C53.896 125.475 53.7479 125.882 53.4744 126.261C53.2055 126.634 52.8523 126.938 52.4148 127.17C51.9773 127.398 51.4965 127.512 50.9725 127.512C50.4165 127.512 49.9311 127.414 49.5164 127.218C49.1062 127.022 48.7645 126.753 48.491 126.411C48.2221 126.069 48.0193 125.677 47.8826 125.235C47.7505 124.789 47.6844 124.317 47.6844 123.82V123.533C47.6844 123.036 47.7505 122.567 47.8826 122.125C48.0193 121.678 48.2221 121.284 48.491 120.942C48.7645 120.601 49.1062 120.332 49.5164 120.136C49.9311 119.94 50.4165 119.842 50.9725 119.842C51.5512 119.842 52.0571 119.96 52.49 120.197C52.923 120.43 53.2625 120.749 53.5086 121.154C53.7592 121.555 53.896 122.011 53.9187 122.521H52.7156C52.6928 122.216 52.6062 121.94 52.4559 121.694C52.31 121.448 52.1095 121.252 51.8543 121.106C51.6036 120.956 51.3097 120.881 50.9725 120.881C50.5851 120.881 50.2592 120.958 49.9949 121.113C49.7352 121.264 49.5278 121.469 49.3729 121.729C49.2225 121.984 49.1131 122.269 49.0447 122.583C48.9809 122.893 48.949 123.21 48.949 123.533V123.82C48.949 124.144 48.9809 124.463 49.0447 124.777C49.1085 125.092 49.2156 125.377 49.366 125.632C49.521 125.887 49.7283 126.092 49.9881 126.247C50.2524 126.397 50.5805 126.473 50.9725 126.473ZM58.6353 119.979V127.375H57.3638V119.979H58.6353ZM61.1167 119.979V121.004H54.9302V119.979H61.1167ZM66.8928 126.11V122.303C66.8928 122.011 66.8336 121.758 66.7151 121.544C66.6011 121.325 66.428 121.157 66.1955 121.038C65.9631 120.92 65.676 120.86 65.3342 120.86C65.0152 120.86 64.7349 120.915 64.4934 121.024C64.2564 121.134 64.0696 121.277 63.9329 121.455C63.8007 121.633 63.7346 121.824 63.7346 122.029H62.47C62.47 121.765 62.5383 121.503 62.675 121.243C62.8118 120.983 63.0077 120.749 63.2629 120.539C63.5227 120.325 63.8326 120.156 64.1926 120.033C64.5572 119.906 64.9628 119.842 65.4094 119.842C65.9472 119.842 66.4211 119.933 66.8313 120.115C67.246 120.298 67.5696 120.573 67.802 120.942C68.039 121.307 68.1575 121.765 68.1575 122.316V125.762C68.1575 126.008 68.178 126.27 68.219 126.548C68.2646 126.826 68.3306 127.065 68.4172 127.266V127.375H67.0979C67.0341 127.229 66.984 127.035 66.9475 126.794C66.911 126.548 66.8928 126.32 66.8928 126.11ZM67.1116 122.891L67.1252 123.779H65.8469C65.4869 123.779 65.1656 123.809 64.883 123.868C64.6005 123.923 64.3635 124.007 64.1721 124.121C63.9807 124.235 63.8349 124.379 63.7346 124.552C63.6344 124.72 63.5842 124.919 63.5842 125.146C63.5842 125.379 63.6366 125.591 63.7414 125.782C63.8463 125.974 64.0035 126.126 64.2131 126.24C64.4273 126.35 64.6894 126.404 64.9993 126.404C65.3866 126.404 65.7284 126.322 66.0247 126.158C66.3209 125.994 66.5556 125.794 66.7288 125.557C66.9065 125.32 67.0022 125.09 67.0159 124.866L67.5559 125.475C67.524 125.666 67.4374 125.878 67.2961 126.11C67.1549 126.343 66.9657 126.566 66.7288 126.78C66.4963 126.99 66.2183 127.165 65.8948 127.307C65.5758 127.443 65.2157 127.512 64.8147 127.512C64.3134 127.512 63.8736 127.414 63.4954 127.218C63.1217 127.022 62.83 126.76 62.6204 126.432C62.4153 126.099 62.3127 125.728 62.3127 125.317C62.3127 124.921 62.3902 124.572 62.5452 124.271C62.7001 123.966 62.9234 123.713 63.2151 123.513C63.5067 123.308 63.8577 123.153 64.2678 123.048C64.678 122.943 65.136 122.891 65.6418 122.891H67.1116ZM73.8994 124.121H71.4726L71.4589 123.109H73.4414C73.8333 123.109 74.1591 123.071 74.4189 122.993C74.6832 122.916 74.8815 122.799 75.0136 122.645C75.1458 122.49 75.2119 122.298 75.2119 122.07C75.2119 121.893 75.1731 121.738 75.0957 121.605C75.0227 121.469 74.9111 121.357 74.7607 121.271C74.6103 121.179 74.4235 121.113 74.2002 121.072C73.9814 121.027 73.7239 121.004 73.4277 121.004H71.8076V127.375H70.5429V119.979H73.4277C73.8971 119.979 74.3186 120.02 74.6923 120.102C75.0706 120.184 75.3919 120.309 75.6562 120.478C75.9251 120.642 76.1302 120.851 76.2714 121.106C76.4127 121.362 76.4834 121.662 76.4834 122.009C76.4834 122.232 76.4378 122.444 76.3466 122.645C76.2555 122.845 76.1211 123.023 75.9433 123.178C75.7656 123.333 75.5468 123.46 75.2871 123.561C75.0273 123.656 74.7288 123.718 74.3916 123.745L73.8994 124.121ZM73.8994 127.375H71.0146L71.6435 126.35H73.8994C74.2503 126.35 74.542 126.306 74.7744 126.22C75.0068 126.129 75.18 126.001 75.2939 125.837C75.4124 125.668 75.4716 125.468 75.4716 125.235C75.4716 125.003 75.4124 124.805 75.2939 124.641C75.18 124.472 75.0068 124.344 74.7744 124.258C74.542 124.167 74.2503 124.121 73.8994 124.121H71.9785L71.9921 123.109H74.3916L74.8496 123.492C75.2552 123.524 75.5992 123.624 75.8818 123.793C76.1643 123.962 76.3785 124.176 76.5244 124.436C76.6702 124.691 76.7431 124.969 76.7431 125.27C76.7431 125.616 76.677 125.921 76.5449 126.186C76.4173 126.45 76.2304 126.671 75.9843 126.849C75.7382 127.022 75.4397 127.154 75.0888 127.245C74.7379 127.332 74.3414 127.375 73.8994 127.375ZM80.0925 119.979V127.375H78.8278V119.979H80.0925ZM84.946 119.979L81.4391 124.217H79.6686L79.4772 123.109H80.9264L83.4079 119.979H84.946ZM83.5856 127.375L80.8649 124.025L81.6784 123.109L85.1921 127.375H83.5856ZM87.9398 125.372L91.351 119.979H92.6225V127.375H91.351V121.981L87.9398 127.375H86.682V119.979H87.9398V125.372ZM100.053 125.372L103.464 119.979H104.735V127.375H103.464V121.981L100.053 127.375H98.7948V119.979H100.053V125.372ZM111.988 119.979V121.024H108.413V119.979H111.988ZM113.102 119.979V127.375H111.837V119.979H113.102ZM108.105 119.979H109.377L109.185 123.547C109.153 124.098 109.101 124.586 109.028 125.01C108.96 125.429 108.864 125.789 108.741 126.09C108.622 126.391 108.472 126.637 108.29 126.828C108.112 127.015 107.898 127.154 107.647 127.245C107.396 127.332 107.107 127.375 106.779 127.375H106.382V126.261L106.656 126.24C106.852 126.227 107.018 126.181 107.155 126.104C107.296 126.026 107.415 125.912 107.51 125.762C107.606 125.607 107.683 125.409 107.743 125.167C107.807 124.925 107.854 124.638 107.886 124.306C107.923 123.973 107.95 123.586 107.968 123.144L108.105 119.979ZM116.786 125.372L120.198 119.979H121.469V127.375H120.198V121.981L116.786 127.375H115.529V119.979H116.786V125.372ZM128.797 121.4V130.219H127.525V119.979H128.687L128.797 121.4ZM133.78 123.615V123.759C133.78 124.297 133.716 124.796 133.589 125.256C133.461 125.712 133.274 126.108 133.028 126.445C132.787 126.783 132.488 127.045 132.133 127.231C131.777 127.418 131.369 127.512 130.909 127.512C130.44 127.512 130.025 127.434 129.665 127.279C129.305 127.124 128.999 126.899 128.749 126.603C128.498 126.306 128.298 125.951 128.147 125.536C128.001 125.121 127.901 124.654 127.846 124.135V123.369C127.901 122.822 128.004 122.332 128.154 121.899C128.304 121.466 128.503 121.097 128.749 120.792C128.999 120.482 129.302 120.247 129.658 120.088C130.013 119.924 130.424 119.842 130.888 119.842C131.353 119.842 131.766 119.933 132.126 120.115C132.486 120.293 132.789 120.548 133.035 120.881C133.281 121.214 133.466 121.612 133.589 122.077C133.716 122.537 133.78 123.05 133.78 123.615ZM132.509 123.759V123.615C132.509 123.246 132.47 122.9 132.392 122.576C132.315 122.248 132.194 121.961 132.03 121.715C131.87 121.464 131.665 121.268 131.415 121.127C131.164 120.981 130.866 120.908 130.519 120.908C130.2 120.908 129.922 120.963 129.685 121.072C129.453 121.182 129.255 121.33 129.091 121.517C128.926 121.699 128.792 121.909 128.687 122.146C128.587 122.378 128.512 122.619 128.462 122.87V124.641C128.553 124.96 128.68 125.26 128.844 125.543C129.009 125.821 129.227 126.047 129.501 126.22C129.774 126.388 130.118 126.473 130.533 126.473C130.875 126.473 131.169 126.402 131.415 126.261C131.665 126.115 131.87 125.917 132.03 125.666C132.194 125.415 132.315 125.128 132.392 124.805C132.47 124.477 132.509 124.128 132.509 123.759ZM140.035 126.11V122.303C140.035 122.011 139.975 121.758 139.857 121.544C139.743 121.325 139.57 121.157 139.337 121.038C139.105 120.92 138.818 120.86 138.476 120.86C138.157 120.86 137.877 120.915 137.635 121.024C137.398 121.134 137.211 121.277 137.075 121.455C136.942 121.633 136.876 121.824 136.876 122.029H135.612C135.612 121.765 135.68 121.503 135.817 121.243C135.954 120.983 136.15 120.749 136.405 120.539C136.664 120.325 136.974 120.156 137.334 120.033C137.699 119.906 138.105 119.842 138.551 119.842C139.089 119.842 139.563 119.933 139.973 120.115C140.388 120.298 140.711 120.573 140.944 120.942C141.181 121.307 141.299 121.765 141.299 122.316V125.762C141.299 126.008 141.32 126.27 141.361 126.548C141.406 126.826 141.472 127.065 141.559 127.266V127.375H140.24C140.176 127.229 140.126 127.035 140.089 126.794C140.053 126.548 140.035 126.32 140.035 126.11ZM140.253 122.891L140.267 123.779H138.989C138.629 123.779 138.307 123.809 138.025 123.868C137.742 123.923 137.505 124.007 137.314 124.121C137.122 124.235 136.977 124.379 136.876 124.552C136.776 124.72 136.726 124.919 136.726 125.146C136.726 125.379 136.778 125.591 136.883 125.782C136.988 125.974 137.145 126.126 137.355 126.24C137.569 126.35 137.831 126.404 138.141 126.404C138.528 126.404 138.87 126.322 139.166 126.158C139.463 125.994 139.697 125.794 139.871 125.557C140.048 125.32 140.144 125.09 140.158 124.866L140.698 125.475C140.666 125.666 140.579 125.878 140.438 126.11C140.297 126.343 140.108 126.566 139.871 126.78C139.638 126.99 139.36 127.165 139.037 127.307C138.718 127.443 138.358 127.512 137.956 127.512C137.455 127.512 137.015 127.414 136.637 127.218C136.263 127.022 135.972 126.76 135.762 126.432C135.557 126.099 135.455 125.728 135.455 125.317C135.455 124.921 135.532 124.572 135.687 124.271C135.842 123.966 136.065 123.713 136.357 123.513C136.649 123.308 136.999 123.153 137.41 123.048C137.82 122.943 138.278 122.891 138.784 122.891H140.253ZM146.528 126.473C146.829 126.473 147.107 126.411 147.362 126.288C147.618 126.165 147.827 125.996 147.991 125.782C148.155 125.563 148.249 125.315 148.272 125.037H149.475C149.452 125.475 149.304 125.882 149.03 126.261C148.762 126.634 148.408 126.938 147.971 127.17C147.533 127.398 147.053 127.512 146.528 127.512C145.972 127.512 145.487 127.414 145.072 127.218C144.662 127.022 144.32 126.753 144.047 126.411C143.778 126.069 143.575 125.677 143.439 125.235C143.306 124.789 143.24 124.317 143.24 123.82V123.533C143.24 123.036 143.306 122.567 143.439 122.125C143.575 121.678 143.778 121.284 144.047 120.942C144.32 120.601 144.662 120.332 145.072 120.136C145.487 119.94 145.972 119.842 146.528 119.842C147.107 119.842 147.613 119.96 148.046 120.197C148.479 120.43 148.819 120.749 149.065 121.154C149.315 121.555 149.452 122.011 149.475 122.521H148.272C148.249 122.216 148.162 121.94 148.012 121.694C147.866 121.448 147.666 121.252 147.41 121.106C147.16 120.956 146.866 120.881 146.528 120.881C146.141 120.881 145.815 120.958 145.551 121.113C145.291 121.264 145.084 121.469 144.929 121.729C144.778 121.984 144.669 122.269 144.601 122.583C144.537 122.893 144.505 123.21 144.505 123.533V123.82C144.505 124.144 144.537 124.463 144.601 124.777C144.665 125.092 144.772 125.377 144.922 125.632C145.077 125.887 145.284 126.092 145.544 126.247C145.808 126.397 146.137 126.473 146.528 126.473ZM156.105 119.979V121.024H152.366V119.979H156.105ZM152.551 119.979V127.375H151.286V119.979H152.551ZM157.226 119.979V127.375H155.955V119.979H157.226ZM159.202 123.759V123.602C159.202 123.068 159.279 122.574 159.434 122.118C159.589 121.658 159.812 121.259 160.104 120.922C160.396 120.58 160.749 120.316 161.164 120.129C161.578 119.938 162.043 119.842 162.558 119.842C163.078 119.842 163.545 119.938 163.96 120.129C164.379 120.316 164.734 120.58 165.026 120.922C165.322 121.259 165.548 121.658 165.703 122.118C165.858 122.574 165.935 123.068 165.935 123.602V123.759C165.935 124.292 165.858 124.786 165.703 125.242C165.548 125.698 165.322 126.097 165.026 126.438C164.734 126.776 164.381 127.04 163.966 127.231C163.556 127.418 163.091 127.512 162.572 127.512C162.052 127.512 161.585 127.418 161.171 127.231C160.756 127.04 160.4 126.776 160.104 126.438C159.812 126.097 159.589 125.698 159.434 125.242C159.279 124.786 159.202 124.292 159.202 123.759ZM160.466 123.602V123.759C160.466 124.128 160.51 124.477 160.596 124.805C160.683 125.128 160.813 125.415 160.986 125.666C161.164 125.917 161.385 126.115 161.649 126.261C161.913 126.402 162.221 126.473 162.572 126.473C162.918 126.473 163.221 126.402 163.481 126.261C163.745 126.115 163.964 125.917 164.137 125.666C164.31 125.415 164.44 125.128 164.527 124.805C164.618 124.477 164.664 124.128 164.664 123.759V123.602C164.664 123.237 164.618 122.893 164.527 122.569C164.44 122.241 164.308 121.952 164.13 121.701C163.957 121.446 163.739 121.245 163.474 121.1C163.214 120.954 162.909 120.881 162.558 120.881C162.212 120.881 161.907 120.954 161.642 121.1C161.382 121.245 161.164 121.446 160.986 121.701C160.813 121.952 160.683 122.241 160.596 122.569C160.51 122.893 160.466 123.237 160.466 123.602ZM172.634 119.979V121.024H169.059V119.979H172.634ZM173.748 119.979V127.375H172.484V119.979H173.748ZM168.751 119.979H170.023L169.831 123.547C169.799 124.098 169.747 124.586 169.674 125.01C169.606 125.429 169.51 125.789 169.387 126.09C169.269 126.391 169.118 126.637 168.936 126.828C168.758 127.015 168.544 127.154 168.293 127.245C168.043 127.332 167.753 127.375 167.425 127.375H167.029V126.261L167.302 126.24C167.498 126.227 167.664 126.181 167.801 126.104C167.942 126.026 168.061 125.912 168.157 125.762C168.252 125.607 168.33 125.409 168.389 125.167C168.453 124.925 168.501 124.638 168.533 124.306C168.569 123.973 168.596 123.586 168.615 123.144L168.751 119.979ZM175.731 123.759V123.602C175.731 123.068 175.808 122.574 175.963 122.118C176.118 121.658 176.341 121.259 176.633 120.922C176.925 120.58 177.278 120.316 177.692 120.129C178.107 119.938 178.572 119.842 179.087 119.842C179.606 119.842 180.074 119.938 180.488 120.129C180.908 120.316 181.263 120.58 181.555 120.922C181.851 121.259 182.077 121.658 182.231 122.118C182.386 122.574 182.464 123.068 182.464 123.602V123.759C182.464 124.292 182.386 124.786 182.231 125.242C182.077 125.698 181.851 126.097 181.555 126.438C181.263 126.776 180.91 127.04 180.495 127.231C180.085 127.418 179.62 127.512 179.101 127.512C178.581 127.512 178.114 127.418 177.699 127.231C177.285 127.04 176.929 126.776 176.633 126.438C176.341 126.097 176.118 125.698 175.963 125.242C175.808 124.786 175.731 124.292 175.731 123.759ZM176.995 123.602V123.759C176.995 124.128 177.038 124.477 177.125 124.805C177.212 125.128 177.342 125.415 177.515 125.666C177.692 125.917 177.913 126.115 178.178 126.261C178.442 126.402 178.75 126.473 179.101 126.473C179.447 126.473 179.75 126.402 180.01 126.261C180.274 126.115 180.493 125.917 180.666 125.666C180.839 125.415 180.969 125.128 181.056 124.805C181.147 124.477 181.192 124.128 181.192 123.759V123.602C181.192 123.237 181.147 122.893 181.056 122.569C180.969 122.241 180.837 121.952 180.659 121.701C180.486 121.446 180.267 121.245 180.003 121.1C179.743 120.954 179.438 120.881 179.087 120.881C178.741 120.881 178.435 120.954 178.171 121.1C177.911 121.245 177.692 121.446 177.515 121.701C177.342 121.952 177.212 122.241 177.125 122.569C177.038 122.893 176.995 123.237 176.995 123.602ZM186.422 124.155L183.619 119.979H185.143L187.057 123.041H188.534L188.349 124.155H186.422ZM187.112 124.025L184.966 127.375H183.366L186.312 123.109L187.112 124.025ZM189.183 119.979V127.375H187.919V119.979H189.183ZM193.497 119.979L190.694 124.155H188.766L188.568 123.041H190.052L191.966 119.979H193.497ZM192.143 127.375L189.99 124.025L190.803 123.109L193.743 127.375H192.143ZM198.124 127.512C197.61 127.512 197.142 127.425 196.723 127.252C196.308 127.074 195.951 126.826 195.65 126.507C195.354 126.188 195.126 125.81 194.966 125.372C194.807 124.935 194.727 124.456 194.727 123.937V123.649C194.727 123.048 194.816 122.512 194.994 122.043C195.171 121.569 195.413 121.168 195.718 120.84C196.024 120.512 196.37 120.263 196.757 120.095C197.145 119.926 197.546 119.842 197.96 119.842C198.489 119.842 198.945 119.933 199.328 120.115C199.715 120.298 200.032 120.553 200.278 120.881C200.524 121.204 200.706 121.587 200.825 122.029C200.943 122.467 201.002 122.945 201.002 123.465V124.032H195.479V123H199.738V122.904C199.72 122.576 199.651 122.257 199.533 121.947C199.419 121.637 199.236 121.382 198.986 121.182C198.735 120.981 198.393 120.881 197.96 120.881C197.673 120.881 197.409 120.942 197.167 121.065C196.926 121.184 196.719 121.362 196.545 121.599C196.372 121.836 196.238 122.125 196.142 122.467C196.046 122.809 195.999 123.203 195.999 123.649V123.937C195.999 124.287 196.046 124.618 196.142 124.928C196.242 125.233 196.386 125.502 196.573 125.734C196.764 125.967 196.994 126.149 197.263 126.281C197.537 126.413 197.847 126.479 198.193 126.479C198.639 126.479 199.018 126.388 199.328 126.206C199.638 126.024 199.909 125.78 200.141 125.475L200.907 126.083C200.747 126.325 200.544 126.555 200.298 126.773C200.052 126.992 199.749 127.17 199.389 127.307C199.034 127.443 198.612 127.512 198.124 127.512ZM207.777 123.185V124.21H203.866V123.185H207.777ZM204.133 119.979V127.375H202.868V119.979H204.133ZM208.802 119.979V127.375H207.53V119.979H208.802ZM212.486 125.372L215.897 119.979H217.169V127.375H215.897V121.981L212.486 127.375H211.228V119.979H212.486V125.372ZM223.69 123.116V124.148H219.759V123.116H223.69ZM220.86 119.979V127.375H219.595V119.979H220.86ZM222.61 123.759V123.602C222.61 123.068 222.687 122.574 222.842 122.118C222.997 121.658 223.221 121.259 223.512 120.922C223.809 120.58 224.162 120.316 224.572 120.129C224.987 119.938 225.451 119.842 225.966 119.842C226.491 119.842 226.96 119.938 227.375 120.129C227.789 120.316 228.143 120.58 228.434 120.922C228.73 121.259 228.956 121.658 229.111 122.118C229.266 122.574 229.343 123.068 229.343 123.602V123.759C229.343 124.292 229.266 124.786 229.111 125.242C228.956 125.698 228.733 126.097 228.441 126.438C228.149 126.776 227.796 127.04 227.381 127.231C226.967 127.418 226.5 127.512 225.98 127.512C225.461 127.512 224.993 127.418 224.579 127.231C224.164 127.04 223.809 126.776 223.512 126.438C223.221 126.097 222.997 125.698 222.842 125.242C222.687 124.786 222.61 124.292 222.61 123.759ZM223.881 123.602V123.759C223.881 124.128 223.925 124.477 224.011 124.805C224.098 125.128 224.228 125.415 224.401 125.666C224.579 125.917 224.798 126.115 225.057 126.261C225.322 126.402 225.629 126.473 225.98 126.473C226.331 126.473 226.636 126.402 226.896 126.261C227.16 126.115 227.379 125.917 227.552 125.666C227.726 125.415 227.855 125.128 227.942 124.805C228.033 124.477 228.079 124.128 228.079 123.759V123.602C228.079 123.237 228.033 122.893 227.942 122.569C227.855 122.241 227.723 121.952 227.546 121.701C227.372 121.446 227.154 121.245 226.889 121.1C226.625 120.954 226.317 120.881 225.966 120.881C225.62 120.881 225.317 120.954 225.057 121.1C224.798 121.245 224.579 121.446 224.401 121.701C224.228 121.952 224.098 122.241 224.011 122.569C223.925 122.893 223.881 123.237 223.881 123.602Z" fill="#333333"/>
<g clip-path="url(#clip0_1_1314)">
<path d="M119.465 58.9316C121.136 58.9316 122.49 57.5776 122.49 55.9073C122.49 54.2371 121.136 52.8831 119.465 52.8831C117.795 52.8831 116.441 54.2371 116.441 55.9073C116.441 57.5776 117.795 58.9316 119.465 58.9316Z" fill="#F9BA48"/>
<path d="M122.274 54.5599L121.499 53.6309L118.295 56.3012L117.475 55.4823L116.62 56.3376L118.22 57.938L122.274 54.5599Z" fill="#333333"/>
<path d="M133.377 54.0927H124.305V55.3024H133.377V54.0927Z" fill="#333333"/>
<path d="M134.587 56.512H124.305V57.7217H134.587V56.512Z" fill="#333333"/>
<path d="M122.274 60.6083L121.499 59.6793L118.295 62.3496L117.475 61.5307L116.62 62.386L118.22 63.9864L122.274 60.6083Z" fill="#333333"/>
<path d="M137.006 60.1411H124.305V61.3507H137.006V60.1411Z" fill="#333333"/>
<path d="M126.724 62.5604H124.305V63.7701H126.724V62.5604Z" fill="#333333"/>
<path d="M137.006 62.5604H127.934V63.7701H137.006V62.5604Z" fill="#333333"/>
<path d="M122.274 66.6567L121.499 65.7277L118.295 68.398L117.475 67.579L116.62 68.4344L118.22 70.0348L122.274 66.6567Z" fill="#333333"/>
<path d="M137.006 66.1895H124.305V67.3991H137.006V66.1895Z" fill="#333333"/>
<path d="M133.377 68.6088H124.305V69.8184H133.377V68.6088Z" fill="#333333"/>
<path d="M137.005 68.6088H134.586V69.8184H137.005V68.6088Z" fill="#333333"/>
<path d="M137.005 54.0927H134.586V55.3024H137.005V54.0927Z" fill="#333333"/>
<path d="M146.684 73.4475H145.474H144.264H143.055H141.845V48.6492C141.845 46.9816 140.488 45.625 138.821 45.625H114.023C112.355 45.625 110.998 46.9816 110.998 48.6492C110.998 50.3169 112.355 51.6735 114.023 51.6735V83.125H139.426V79.4958H141.845V77.0765H143.055H144.264H145.474H146.684C147.684 77.0765 148.498 76.2624 148.498 75.2619C148.498 74.2614 147.684 73.4475 146.684 73.4475ZM140.635 48.6492V73.4476H139.426V50.4637H138.821C137.82 50.4637 137.006 49.6496 137.006 48.6491C137.006 47.6486 137.82 46.8345 138.821 46.8345C139.821 46.8345 140.635 47.6487 140.635 48.6492ZM112.208 48.6492C112.208 47.6489 113.022 46.8347 114.023 46.8347H136.417C136.033 47.3415 135.797 47.9658 135.797 48.6492C135.797 49.3327 136.033 49.9569 136.417 50.4638H114.023C113.022 50.4637 112.208 49.6496 112.208 48.6492ZM115.232 81.9152V51.6734H138.216V73.4475H121.183L115.739 75.2621L121.183 77.0766H138.216V81.9153H115.232V81.9152ZM119.564 75.2621L120.676 74.8912V75.6321L119.564 75.2621ZM140.635 78.2862H139.426V77.0765H140.635V78.2862ZM141.845 75.8668H121.886V74.6572H141.845V75.8668ZM144.264 75.8668H143.055V74.6572H144.264V75.8668ZM146.684 75.8668H145.474V74.6572H146.684C147.018 74.6572 147.289 74.9288 147.289 75.2621C147.289 75.5953 147.018 75.8668 146.684 75.8668Z" fill="#333333"/>
</g>
</g>
<defs>
<filter id="filter0_d_1_1314" x="0" y="0" width="260" height="184" filterUnits="userSpaceOnUse" color-interpolation-filters="sRGB">
<feFlood flood-opacity="0" result="BackgroundImageFix"/>
<feColorMatrix in="SourceAlpha" type="matrix" values="0 0 0 0 0 0 0 0 0 0 0 0 0 0 0 0 0 0 127 0" result="hardAlpha"/>
<feOffset dy="4"/>
<feGaussianBlur stdDeviation="10"/>
<feComposite in2="hardAlpha" operator="out"/>
<feColorMatrix type="matrix" values="0 0 0 0 0.176471 0 0 0 0 0.47451 0 0 0 0 0.47451 0 0 0 0.5 0"/>
<feBlend mode="normal" in2="BackgroundImageFix" result="effect1_dropShadow_1_1314"/>
<feBlend mode="normal" in="SourceGraphic" in2="effect1_dropShadow_1_1314" result="shape"/>
</filter>
<clipPath id="clip0_1_1314">
<rect width="37.5" height="37.5" fill="white" transform="translate(111 45.625)"/>
</clipPath>
</defs>
</svg>
