<svg width="260" height="184" viewBox="0 0 260 184" fill="none" xmlns="http://www.w3.org/2000/svg">
<g filter="url(#filter0_d_1_1315)">
<rect x="20" y="16" width="220" height="144" rx="5" fill="white" shape-rendering="crispEdges"/>
<path d="M96.7566 107.425L95.0691 107.012L95.7634 100.578H102.663V102.371H97.5213L97.1697 105.509C97.3689 105.392 97.6443 105.277 97.9959 105.166C98.3474 105.049 98.7488 104.99 99.2 104.99C99.8035 104.99 100.343 105.09 100.817 105.289C101.298 105.482 101.705 105.767 102.039 106.142C102.373 106.511 102.628 106.962 102.803 107.495C102.979 108.022 103.067 108.617 103.067 109.279C103.067 109.871 102.979 110.425 102.803 110.94C102.634 111.456 102.376 111.91 102.03 112.303C101.684 112.695 101.248 113.003 100.72 113.226C100.199 113.442 99.5808 113.551 98.866 113.551C98.3328 113.551 97.8201 113.475 97.3279 113.322C96.8416 113.164 96.405 112.933 96.0183 112.628C95.6316 112.317 95.3211 111.937 95.0867 111.485C94.8523 111.028 94.7175 110.504 94.6824 109.912H96.7566C96.8093 110.328 96.9236 110.683 97.0994 110.976C97.281 111.263 97.5213 111.482 97.8201 111.635C98.1189 111.787 98.4646 111.863 98.8572 111.863C99.2146 111.863 99.5222 111.802 99.78 111.679C100.038 111.55 100.252 111.368 100.422 111.134C100.597 110.894 100.726 110.612 100.808 110.29C100.896 109.968 100.94 109.61 100.94 109.218C100.94 108.843 100.89 108.5 100.791 108.189C100.697 107.879 100.553 107.609 100.36 107.381C100.173 107.152 99.9353 106.977 99.6482 106.854C99.3611 106.725 99.03 106.66 98.655 106.66C98.1511 106.66 97.7644 106.733 97.4949 106.88C97.2312 107.026 96.9851 107.208 96.7566 107.425ZM113.491 109.886C113.491 110.683 113.306 111.354 112.937 111.898C112.568 112.443 112.064 112.856 111.425 113.138C110.792 113.413 110.078 113.551 109.281 113.551C108.484 113.551 107.766 113.413 107.127 113.138C106.489 112.856 105.985 112.443 105.616 111.898C105.246 111.354 105.062 110.683 105.062 109.886C105.062 109.358 105.164 108.881 105.37 108.453C105.575 108.02 105.865 107.647 106.24 107.337C106.621 107.021 107.066 106.777 107.576 106.607C108.091 106.438 108.654 106.353 109.263 106.353C110.072 106.353 110.795 106.502 111.434 106.801C112.073 107.1 112.574 107.513 112.937 108.04C113.306 108.567 113.491 109.183 113.491 109.886ZM111.364 109.78C111.364 109.353 111.276 108.978 111.1 108.655C110.924 108.333 110.678 108.084 110.362 107.908C110.045 107.732 109.679 107.645 109.263 107.645C108.841 107.645 108.475 107.732 108.164 107.908C107.854 108.084 107.611 108.333 107.435 108.655C107.265 108.978 107.18 109.353 107.18 109.78C107.18 110.214 107.265 110.589 107.435 110.905C107.605 111.216 107.848 111.453 108.164 111.617C108.481 111.781 108.853 111.863 109.281 111.863C109.708 111.863 110.078 111.781 110.388 111.617C110.699 111.453 110.939 111.216 111.109 110.905C111.279 110.589 111.364 110.214 111.364 109.78ZM113.201 103.944C113.201 104.583 113.031 105.151 112.691 105.649C112.357 106.147 111.894 106.54 111.302 106.827C110.71 107.108 110.037 107.249 109.281 107.249C108.519 107.249 107.839 107.108 107.242 106.827C106.65 106.54 106.184 106.147 105.844 105.649C105.51 105.151 105.343 104.583 105.343 103.944C105.343 103.183 105.51 102.541 105.844 102.02C106.184 101.492 106.65 101.091 107.242 100.815C107.833 100.54 108.51 100.402 109.272 100.402C110.034 100.402 110.71 100.54 111.302 100.815C111.894 101.091 112.357 101.492 112.691 102.02C113.031 102.541 113.201 103.183 113.201 103.944ZM111.082 104.015C111.082 103.634 111.006 103.3 110.854 103.013C110.707 102.72 110.499 102.491 110.23 102.327C109.96 102.163 109.641 102.081 109.272 102.081C108.903 102.081 108.583 102.16 108.314 102.318C108.044 102.477 107.836 102.699 107.69 102.986C107.543 103.273 107.47 103.616 107.47 104.015C107.47 104.407 107.543 104.75 107.69 105.043C107.836 105.33 108.044 105.556 108.314 105.72C108.589 105.884 108.912 105.966 109.281 105.966C109.65 105.966 109.969 105.884 110.239 105.72C110.508 105.556 110.716 105.33 110.863 105.043C111.009 104.75 111.082 104.407 111.082 104.015ZM117.419 111.705H117.595C118.403 111.705 119.077 111.6 119.616 111.389C120.161 111.172 120.595 110.873 120.917 110.492C121.239 110.111 121.471 109.663 121.611 109.147C121.752 108.632 121.822 108.072 121.822 107.469V105.263C121.822 104.741 121.767 104.284 121.655 103.892C121.55 103.493 121.398 103.162 121.198 102.898C121.005 102.629 120.779 102.427 120.522 102.292C120.27 102.157 119.997 102.09 119.704 102.09C119.382 102.09 119.092 102.163 118.834 102.31C118.582 102.45 118.368 102.646 118.192 102.898C118.023 103.145 117.891 103.435 117.797 103.769C117.709 104.097 117.665 104.448 117.665 104.823C117.665 105.175 117.706 105.515 117.788 105.843C117.876 106.165 118.005 106.452 118.175 106.704C118.345 106.956 118.559 107.155 118.816 107.302C119.074 107.448 119.376 107.521 119.722 107.521C120.05 107.521 120.352 107.46 120.627 107.337C120.902 107.208 121.143 107.035 121.348 106.818C121.553 106.602 121.714 106.358 121.831 106.089C121.948 105.819 122.013 105.544 122.024 105.263L122.833 105.509C122.833 105.954 122.739 106.394 122.552 106.827C122.37 107.255 122.115 107.647 121.787 108.005C121.465 108.356 121.087 108.638 120.653 108.849C120.226 109.06 119.76 109.165 119.256 109.165C118.647 109.165 118.107 109.051 117.639 108.822C117.176 108.588 116.789 108.271 116.479 107.873C116.174 107.475 115.945 107.018 115.793 106.502C115.641 105.986 115.564 105.444 115.564 104.876C115.564 104.261 115.658 103.684 115.846 103.145C116.033 102.605 116.306 102.131 116.663 101.721C117.021 101.305 117.454 100.982 117.964 100.754C118.48 100.52 119.063 100.402 119.713 100.402C120.404 100.402 121.011 100.537 121.532 100.807C122.054 101.076 122.493 101.448 122.851 101.923C123.208 102.397 123.478 102.948 123.659 103.575C123.841 104.202 123.932 104.876 123.932 105.597V106.344C123.932 107.1 123.864 107.829 123.73 108.532C123.595 109.229 123.375 109.877 123.07 110.475C122.772 111.066 122.376 111.588 121.884 112.039C121.398 112.484 120.8 112.833 120.091 113.085C119.388 113.331 118.562 113.454 117.612 113.454H117.419V111.705ZM139.514 109.886C139.514 110.683 139.329 111.354 138.96 111.898C138.591 112.443 138.087 112.856 137.449 113.138C136.816 113.413 136.101 113.551 135.304 113.551C134.507 113.551 133.789 113.413 133.151 113.138C132.512 112.856 132.008 112.443 131.639 111.898C131.27 111.354 131.085 110.683 131.085 109.886C131.085 109.358 131.188 108.881 131.393 108.453C131.598 108.02 131.888 107.647 132.263 107.337C132.644 107.021 133.089 106.777 133.599 106.607C134.115 106.438 134.677 106.353 135.286 106.353C136.095 106.353 136.819 106.502 137.457 106.801C138.096 107.1 138.597 107.513 138.96 108.04C139.329 108.567 139.514 109.183 139.514 109.886ZM137.387 109.78C137.387 109.353 137.299 108.978 137.123 108.655C136.948 108.333 136.701 108.084 136.385 107.908C136.069 107.732 135.702 107.645 135.286 107.645C134.865 107.645 134.498 107.732 134.188 107.908C133.877 108.084 133.634 108.333 133.458 108.655C133.288 108.978 133.203 109.353 133.203 109.78C133.203 110.214 133.288 110.589 133.458 110.905C133.628 111.216 133.871 111.453 134.188 111.617C134.504 111.781 134.876 111.863 135.304 111.863C135.732 111.863 136.101 111.781 136.411 111.617C136.722 111.453 136.962 111.216 137.132 110.905C137.302 110.589 137.387 110.214 137.387 109.78ZM139.224 103.944C139.224 104.583 139.054 105.151 138.714 105.649C138.38 106.147 137.917 106.54 137.326 106.827C136.734 107.108 136.06 107.249 135.304 107.249C134.542 107.249 133.863 107.108 133.265 106.827C132.673 106.54 132.207 106.147 131.868 105.649C131.534 105.151 131.367 104.583 131.367 103.944C131.367 103.183 131.534 102.541 131.868 102.02C132.207 101.492 132.673 101.091 133.265 100.815C133.857 100.54 134.534 100.402 135.295 100.402C136.057 100.402 136.734 100.54 137.326 100.815C137.917 101.091 138.38 101.492 138.714 102.02C139.054 102.541 139.224 103.183 139.224 103.944ZM137.106 104.015C137.106 103.634 137.03 103.3 136.877 103.013C136.731 102.72 136.523 102.491 136.253 102.327C135.984 102.163 135.664 102.081 135.295 102.081C134.926 102.081 134.607 102.16 134.337 102.318C134.068 102.477 133.86 102.699 133.713 102.986C133.567 103.273 133.493 103.616 133.493 104.015C133.493 104.407 133.567 104.75 133.713 105.043C133.86 105.33 134.068 105.556 134.337 105.72C134.613 105.884 134.935 105.966 135.304 105.966C135.673 105.966 135.993 105.884 136.262 105.72C136.532 105.556 136.74 105.33 136.886 105.043C137.033 104.75 137.106 104.407 137.106 104.015ZM144.225 106.019H145.49C145.982 106.019 146.39 105.934 146.712 105.764C147.04 105.594 147.283 105.359 147.441 105.061C147.6 104.762 147.679 104.419 147.679 104.032C147.679 103.628 147.605 103.282 147.459 102.995C147.318 102.702 147.102 102.477 146.809 102.318C146.521 102.16 146.155 102.081 145.71 102.081C145.335 102.081 144.995 102.157 144.69 102.31C144.392 102.456 144.154 102.667 143.978 102.942C143.803 103.212 143.715 103.534 143.715 103.909H141.588C141.588 103.229 141.767 102.626 142.124 102.099C142.481 101.571 142.968 101.158 143.583 100.859C144.204 100.555 144.901 100.402 145.675 100.402C146.501 100.402 147.222 100.54 147.837 100.815C148.458 101.085 148.941 101.489 149.287 102.028C149.633 102.567 149.806 103.235 149.806 104.032C149.806 104.396 149.721 104.765 149.551 105.14C149.381 105.515 149.129 105.857 148.795 106.168C148.461 106.473 148.045 106.722 147.547 106.915C147.049 107.103 146.472 107.196 145.815 107.196H144.225V106.019ZM144.225 107.671V106.511H145.815C146.565 106.511 147.204 106.599 147.731 106.774C148.265 106.95 148.698 107.193 149.032 107.504C149.366 107.809 149.609 108.157 149.762 108.55C149.92 108.942 149.999 109.358 149.999 109.798C149.999 110.396 149.891 110.929 149.674 111.397C149.463 111.86 149.161 112.253 148.769 112.575C148.376 112.897 147.916 113.141 147.389 113.305C146.867 113.469 146.299 113.551 145.684 113.551C145.133 113.551 144.605 113.475 144.102 113.322C143.598 113.17 143.146 112.944 142.748 112.646C142.35 112.341 142.033 111.963 141.799 111.512C141.57 111.055 141.456 110.527 141.456 109.93H143.574C143.574 110.311 143.662 110.647 143.838 110.94C144.02 111.228 144.271 111.453 144.594 111.617C144.922 111.781 145.297 111.863 145.719 111.863C146.164 111.863 146.548 111.784 146.87 111.626C147.192 111.468 147.438 111.233 147.608 110.923C147.784 110.612 147.872 110.237 147.872 109.798C147.872 109.3 147.775 108.896 147.582 108.585C147.389 108.274 147.113 108.046 146.756 107.899C146.398 107.747 145.977 107.671 145.49 107.671H144.225ZM160.827 100.578V101.738L155.712 113.375H153.479L158.586 102.266H151.959V100.578H160.827Z" fill="black"/>
<path d="M31.7132 125.841H30.3528V125.062H31.6106C31.9615 125.062 32.2395 125.018 32.4446 124.932C32.6497 124.84 32.7955 124.715 32.8821 124.556C32.9687 124.396 33.012 124.209 33.012 123.995C33.012 123.804 32.9619 123.624 32.8616 123.455C32.7659 123.282 32.611 123.143 32.3968 123.038C32.1826 122.929 31.8955 122.874 31.5354 122.874C31.2438 122.874 30.9794 122.926 30.7425 123.031C30.5055 123.132 30.3164 123.271 30.1751 123.448C30.0384 123.621 29.97 123.817 29.97 124.036H28.7054C28.7054 123.585 28.833 123.198 29.0882 122.874C29.3479 122.546 29.692 122.293 30.1204 122.115C30.5533 121.938 31.025 121.849 31.5354 121.849C31.9638 121.849 32.3466 121.896 32.6839 121.992C33.0257 122.083 33.3151 122.22 33.552 122.402C33.789 122.58 33.969 122.803 34.0921 123.072C34.2197 123.337 34.2835 123.644 34.2835 123.995C34.2835 124.246 34.2242 124.483 34.1057 124.706C33.9873 124.929 33.8164 125.128 33.593 125.301C33.3697 125.469 33.0986 125.602 32.7796 125.697C32.4651 125.793 32.1096 125.841 31.7132 125.841ZM30.3528 125.362H31.7132C32.1552 125.362 32.5449 125.406 32.8821 125.492C33.2194 125.574 33.5019 125.697 33.7298 125.861C33.9576 126.025 34.1285 126.228 34.2425 126.47C34.361 126.707 34.4202 126.98 34.4202 127.29C34.4202 127.636 34.3496 127.949 34.2083 128.227C34.0716 128.5 33.8756 128.732 33.6204 128.924C33.3652 129.115 33.0598 129.261 32.7044 129.361C32.3535 129.462 31.9638 129.512 31.5354 129.512C31.0569 129.512 30.5921 129.43 30.1409 129.266C29.6897 129.102 29.3183 128.849 29.0266 128.507C28.735 128.16 28.5891 127.721 28.5891 127.188H29.8538C29.8538 127.411 29.9244 127.623 30.0657 127.823C30.207 128.024 30.4029 128.186 30.6536 128.309C30.9088 128.432 31.2027 128.493 31.5354 128.493C31.8909 128.493 32.1871 128.438 32.4241 128.329C32.6611 128.22 32.8388 128.074 32.9573 127.892C33.0804 127.709 33.1419 127.511 33.1419 127.297C33.1419 127.019 33.0872 126.796 32.9778 126.627C32.8684 126.458 32.6998 126.335 32.472 126.258C32.2486 126.176 31.9615 126.135 31.6106 126.135H30.3528V125.362ZM40.7021 128.11V124.303C40.7021 124.011 40.6429 123.758 40.5244 123.544C40.4105 123.325 40.2373 123.157 40.0049 123.038C39.7725 122.92 39.4854 122.86 39.1436 122.86C38.8245 122.86 38.5443 122.915 38.3027 123.024C38.0658 123.134 37.8789 123.277 37.7422 123.455C37.61 123.633 37.5439 123.824 37.5439 124.029H36.2793C36.2793 123.765 36.3477 123.503 36.4844 123.243C36.6211 122.983 36.8171 122.749 37.0723 122.539C37.332 122.325 37.6419 122.156 38.002 122.033C38.3665 121.906 38.7721 121.842 39.2188 121.842C39.7565 121.842 40.2305 121.933 40.6406 122.115C41.0553 122.298 41.3789 122.573 41.6113 122.942C41.8483 123.307 41.9668 123.765 41.9668 124.316V127.762C41.9668 128.008 41.9873 128.27 42.0283 128.548C42.0739 128.826 42.14 129.065 42.2266 129.266V129.375H40.9072C40.8434 129.229 40.7933 129.035 40.7568 128.794C40.7204 128.548 40.7021 128.32 40.7021 128.11ZM40.9209 124.891L40.9346 125.779H39.6563C39.2962 125.779 38.9749 125.809 38.6924 125.868C38.4098 125.923 38.1729 126.007 37.9814 126.121C37.79 126.235 37.6442 126.379 37.5439 126.552C37.4437 126.72 37.3936 126.919 37.3936 127.146C37.3936 127.379 37.446 127.591 37.5508 127.782C37.6556 127.974 37.8128 128.126 38.0225 128.24C38.2367 128.35 38.4987 128.404 38.8086 128.404C39.196 128.404 39.5378 128.322 39.834 128.158C40.1302 127.994 40.3649 127.794 40.5381 127.557C40.7158 127.32 40.8115 127.09 40.8252 126.866L41.3652 127.475C41.3333 127.666 41.2467 127.878 41.1055 128.11C40.9642 128.343 40.7751 128.566 40.5381 128.78C40.3057 128.99 40.0277 129.165 39.7041 129.307C39.3851 129.443 39.0251 129.512 38.624 129.512C38.1227 129.512 37.6829 129.414 37.3047 129.218C36.931 129.022 36.6393 128.76 36.4297 128.432C36.2246 128.099 36.1221 127.728 36.1221 127.317C36.1221 126.921 36.1995 126.572 36.3545 126.271C36.5094 125.966 36.7327 125.713 37.0244 125.513C37.3161 125.308 37.667 125.153 38.0771 125.048C38.4873 124.943 38.9453 124.891 39.4512 124.891H40.9209ZM49.1648 121.979V123.024H45.4255V121.979H49.1648ZM45.6101 121.979V129.375H44.3454V121.979H45.6101ZM50.2859 121.979V129.375H49.0144V121.979H50.2859ZM58.1743 121.979V129.375H56.9096V121.979H58.1743ZM57.7436 125.376V126.415C57.4884 126.511 57.2286 126.597 56.9643 126.675C56.7045 126.748 56.4288 126.807 56.1371 126.853C55.85 126.894 55.5379 126.914 55.2006 126.914C54.6173 126.914 54.1114 126.814 53.683 126.613C53.2547 126.408 52.9243 126.101 52.6918 125.69C52.4594 125.276 52.3432 124.754 52.3432 124.125V121.965H53.6079V124.125C53.6079 124.535 53.6694 124.868 53.7924 125.123C53.9155 125.378 54.0955 125.567 54.3325 125.69C54.5694 125.809 54.8588 125.868 55.2006 125.868C55.5288 125.868 55.8364 125.848 56.1235 125.807C56.4151 125.761 56.6931 125.702 56.9575 125.629C57.2263 125.556 57.4884 125.472 57.7436 125.376ZM64.8527 128.11V124.303C64.8527 124.011 64.7935 123.758 64.675 123.544C64.561 123.325 64.3879 123.157 64.1554 123.038C63.923 122.92 63.6359 122.86 63.2941 122.86C62.9751 122.86 62.6948 122.915 62.4533 123.024C62.2163 123.134 62.0295 123.277 61.8927 123.455C61.7606 123.633 61.6945 123.824 61.6945 124.029H60.4298C60.4298 123.765 60.4982 123.503 60.6349 123.243C60.7716 122.983 60.9676 122.749 61.2228 122.539C61.4826 122.325 61.7925 122.156 62.1525 122.033C62.5171 121.906 62.9227 121.842 63.3693 121.842C63.9071 121.842 64.381 121.933 64.7912 122.115C65.2059 122.298 65.5295 122.573 65.7619 122.942C65.9989 123.307 66.1173 123.765 66.1173 124.316V127.762C66.1173 128.008 66.1379 128.27 66.1789 128.548C66.2244 128.826 66.2905 129.065 66.3771 129.266V129.375H65.0578C64.994 129.229 64.9438 129.035 64.9074 128.794C64.8709 128.548 64.8527 128.32 64.8527 128.11ZM65.0714 124.891L65.0851 125.779H63.8068C63.4468 125.779 63.1255 125.809 62.8429 125.868C62.5604 125.923 62.3234 126.007 62.132 126.121C61.9406 126.235 61.7948 126.379 61.6945 126.552C61.5942 126.72 61.5441 126.919 61.5441 127.146C61.5441 127.379 61.5965 127.591 61.7013 127.782C61.8061 127.974 61.9634 128.126 62.173 128.24C62.3872 128.35 62.6492 128.404 62.9591 128.404C63.3465 128.404 63.6883 128.322 63.9845 128.158C64.2808 127.994 64.5155 127.794 64.6886 127.557C64.8664 127.32 64.9621 127.09 64.9757 126.866L65.5158 127.475C65.4839 127.666 65.3973 127.878 65.256 128.11C65.1147 128.343 64.9256 128.566 64.6886 128.78C64.4562 128.99 64.1782 129.165 63.8547 129.307C63.5356 129.443 63.1756 129.512 62.7746 129.512C62.2733 129.512 61.8335 129.414 61.4552 129.218C61.0815 129.022 60.7899 128.76 60.5802 128.432C60.3752 128.099 60.2726 127.728 60.2726 127.317C60.2726 126.921 60.3501 126.572 60.505 126.271C60.66 125.966 60.8833 125.713 61.175 125.513C61.4666 125.308 61.8175 125.153 62.2277 125.048C62.6379 124.943 63.0959 124.891 63.6017 124.891H65.0714ZM71.3466 128.473C71.6473 128.473 71.9253 128.411 72.1805 128.288C72.4358 128.165 72.6454 127.996 72.8095 127.782C72.9735 127.563 73.0669 127.315 73.0897 127.037H74.2929C74.2701 127.475 74.122 127.882 73.8485 128.261C73.5796 128.634 73.2264 128.938 72.7889 129.17C72.3514 129.398 71.8707 129.512 71.3466 129.512C70.7906 129.512 70.3052 129.414 69.8905 129.218C69.4804 129.022 69.1386 128.753 68.8651 128.411C68.5962 128.069 68.3934 127.677 68.2567 127.235C68.1246 126.789 68.0585 126.317 68.0585 125.82V125.533C68.0585 125.036 68.1246 124.567 68.2567 124.125C68.3934 123.678 68.5962 123.284 68.8651 122.942C69.1386 122.601 69.4804 122.332 69.8905 122.136C70.3052 121.94 70.7906 121.842 71.3466 121.842C71.9253 121.842 72.4312 121.96 72.8641 122.197C73.2971 122.43 73.6366 122.749 73.8827 123.154C74.1333 123.555 74.2701 124.011 74.2929 124.521H73.0897C73.0669 124.216 72.9804 123.94 72.83 123.694C72.6841 123.448 72.4836 123.252 72.2284 123.106C71.9778 122.956 71.6838 122.881 71.3466 122.881C70.9592 122.881 70.6333 122.958 70.369 123.113C70.1093 123.264 69.9019 123.469 69.747 123.729C69.5966 123.984 69.4872 124.269 69.4188 124.583C69.355 124.893 69.3231 125.21 69.3231 125.533V125.82C69.3231 126.144 69.355 126.463 69.4188 126.777C69.4826 127.092 69.5897 127.377 69.7401 127.632C69.8951 127.887 70.1024 128.092 70.3622 128.247C70.6265 128.397 70.9546 128.473 71.3466 128.473ZM79.0094 121.979V129.375H77.7379V121.979H79.0094ZM81.4908 121.979V123.004H75.3043V121.979H81.4908ZM85.5374 129.512C85.0224 129.512 84.5553 129.425 84.1361 129.252C83.7213 129.074 83.3636 128.826 83.0628 128.507C82.7666 128.188 82.5387 127.81 82.3792 127.372C82.2197 126.935 82.14 126.456 82.14 125.937V125.649C82.14 125.048 82.2288 124.512 82.4066 124.043C82.5843 123.569 82.8258 123.168 83.1312 122.84C83.4365 122.512 83.7829 122.263 84.1702 122.095C84.5576 121.926 84.9586 121.842 85.3734 121.842C85.902 121.842 86.3577 121.933 86.7405 122.115C87.1279 122.298 87.4446 122.553 87.6907 122.881C87.9368 123.204 88.1191 123.587 88.2376 124.029C88.3561 124.467 88.4154 124.945 88.4154 125.465V126.032H82.8919V125H87.1507V124.904C87.1325 124.576 87.0641 124.257 86.9456 123.947C86.8317 123.637 86.6494 123.382 86.3988 123.182C86.1481 122.981 85.8063 122.881 85.3734 122.881C85.0863 122.881 84.8219 122.942 84.5804 123.065C84.3389 123.184 84.1315 123.362 83.9583 123.599C83.7851 123.836 83.6507 124.125 83.555 124.467C83.4593 124.809 83.4114 125.203 83.4114 125.649V125.937C83.4114 126.287 83.4593 126.618 83.555 126.928C83.6553 127.233 83.7988 127.502 83.9857 127.734C84.1771 127.967 84.4072 128.149 84.6761 128.281C84.9495 128.413 85.2594 128.479 85.6058 128.479C86.0524 128.479 86.4307 128.388 86.7405 128.206C87.0504 128.024 87.3216 127.78 87.554 127.475L88.3196 128.083C88.1601 128.325 87.9573 128.555 87.7113 128.773C87.4652 128.992 87.1621 129.17 86.8021 129.307C86.4466 129.443 86.0251 129.512 85.5374 129.512ZM91.5391 127.372L94.9502 121.979H96.2217V129.375H94.9502V123.981L91.5391 129.375H90.2813V121.979H91.5391V127.372ZM94.2598 119.299H95.2852C95.2852 119.654 95.2032 119.971 95.0391 120.249C94.875 120.522 94.6403 120.737 94.335 120.892C94.0297 121.047 93.6674 121.124 93.2481 121.124C92.6146 121.124 92.1133 120.955 91.7442 120.618C91.3796 120.276 91.1973 119.837 91.1973 119.299H92.2227C92.2227 119.568 92.3002 119.805 92.4551 120.01C92.6101 120.215 92.8744 120.317 93.2481 120.317C93.6127 120.317 93.8724 120.215 94.0274 120.01C94.1823 119.805 94.2598 119.568 94.2598 119.299ZM103.652 127.372L107.063 121.979H108.334V129.375H107.063V123.981L103.652 129.375H102.394V121.979H103.652V127.372ZM118.649 127.693L121.165 121.979H122.382L119.087 129.375H118.212L114.931 121.979H116.147L118.649 127.693ZM115.778 121.979V129.375H114.514V121.979H115.778ZM121.479 129.375V121.979H122.751V129.375H121.479ZM129.429 128.11V124.303C129.429 124.011 129.37 123.758 129.252 123.544C129.138 123.325 128.964 123.157 128.732 123.038C128.5 122.92 128.213 122.86 127.871 122.86C127.552 122.86 127.271 122.915 127.03 123.024C126.793 123.134 126.606 123.277 126.469 123.455C126.337 123.633 126.271 123.824 126.271 124.029H125.006C125.006 123.765 125.075 123.503 125.212 123.243C125.348 122.983 125.544 122.749 125.799 122.539C126.059 122.325 126.369 122.156 126.729 122.033C127.094 121.906 127.499 121.842 127.946 121.842C128.484 121.842 128.958 121.933 129.368 122.115C129.783 122.298 130.106 122.573 130.339 122.942C130.575 123.307 130.694 123.765 130.694 124.316V127.762C130.694 128.008 130.714 128.27 130.756 128.548C130.801 128.826 130.867 129.065 130.954 129.266V129.375H129.634C129.571 129.229 129.52 129.035 129.484 128.794C129.448 128.548 129.429 128.32 129.429 128.11ZM129.648 124.891L129.662 125.779H128.383C128.023 125.779 127.702 125.809 127.42 125.868C127.137 125.923 126.9 126.007 126.709 126.121C126.517 126.235 126.371 126.379 126.271 126.552C126.171 126.72 126.121 126.919 126.121 127.146C126.121 127.379 126.173 127.591 126.278 127.782C126.383 127.974 126.54 128.126 126.75 128.24C126.964 128.35 127.226 128.404 127.536 128.404C127.923 128.404 128.265 128.322 128.561 128.158C128.857 127.994 129.092 127.794 129.265 127.557C129.443 127.32 129.539 127.09 129.552 126.866L130.092 127.475C130.061 127.666 129.974 127.878 129.833 128.11C129.691 128.343 129.502 128.566 129.265 128.78C129.033 128.99 128.755 129.165 128.431 129.307C128.112 129.443 127.752 129.512 127.351 129.512C126.85 129.512 126.41 129.414 126.032 129.218C125.658 129.022 125.367 128.76 125.157 128.432C124.952 128.099 124.849 127.728 124.849 127.317C124.849 126.921 124.927 126.572 125.082 126.271C125.237 125.966 125.46 125.713 125.752 125.513C126.043 125.308 126.394 125.153 126.804 125.048C127.214 124.943 127.673 124.891 128.178 124.891H129.648ZM135.923 128.473C136.224 128.473 136.502 128.411 136.757 128.288C137.012 128.165 137.222 127.996 137.386 127.782C137.55 127.563 137.644 127.315 137.666 127.037H138.869C138.847 127.475 138.699 127.882 138.425 128.261C138.156 128.634 137.803 128.938 137.366 129.17C136.928 129.398 136.447 129.512 135.923 129.512C135.367 129.512 134.882 129.414 134.467 129.218C134.057 129.022 133.715 128.753 133.442 128.411C133.173 128.069 132.97 127.677 132.833 127.235C132.701 126.789 132.635 126.317 132.635 125.82V125.533C132.635 125.036 132.701 124.567 132.833 124.125C132.97 123.678 133.173 123.284 133.442 122.942C133.715 122.601 134.057 122.332 134.467 122.136C134.882 121.94 135.367 121.842 135.923 121.842C136.502 121.842 137.008 121.96 137.441 122.197C137.874 122.43 138.213 122.749 138.459 123.154C138.71 123.555 138.847 124.011 138.869 124.521H137.666C137.644 124.216 137.557 123.94 137.407 123.694C137.261 123.448 137.06 123.252 136.805 123.106C136.554 122.956 136.26 122.881 135.923 122.881C135.536 122.881 135.21 122.958 134.946 123.113C134.686 123.264 134.479 123.469 134.324 123.729C134.173 123.984 134.064 124.269 133.995 124.583C133.932 124.893 133.9 125.21 133.9 125.533V125.82C133.9 126.144 133.932 126.463 133.995 126.777C134.059 127.092 134.166 127.377 134.317 127.632C134.472 127.887 134.679 128.092 134.939 128.247C135.203 128.397 135.531 128.473 135.923 128.473ZM143.641 129.512C143.126 129.512 142.659 129.425 142.239 129.252C141.825 129.074 141.467 128.826 141.166 128.507C140.87 128.188 140.642 127.81 140.482 127.372C140.323 126.935 140.243 126.456 140.243 125.937V125.649C140.243 125.048 140.332 124.512 140.51 124.043C140.688 123.569 140.929 123.168 141.234 122.84C141.54 122.512 141.886 122.263 142.274 122.095C142.661 121.926 143.062 121.842 143.477 121.842C144.005 121.842 144.461 121.933 144.844 122.115C145.231 122.298 145.548 122.553 145.794 122.881C146.04 123.204 146.222 123.587 146.341 124.029C146.459 124.467 146.519 124.945 146.519 125.465V126.032H140.995V125H145.254V124.904C145.236 124.576 145.167 124.257 145.049 123.947C144.935 123.637 144.753 123.382 144.502 123.182C144.251 122.981 143.91 122.881 143.477 122.881C143.19 122.881 142.925 122.942 142.684 123.065C142.442 123.184 142.235 123.362 142.062 123.599C141.888 123.836 141.754 124.125 141.658 124.467C141.563 124.809 141.515 125.203 141.515 125.649V125.937C141.515 126.287 141.563 126.618 141.658 126.928C141.759 127.233 141.902 127.502 142.089 127.734C142.28 127.967 142.51 128.149 142.779 128.281C143.053 128.413 143.363 128.479 143.709 128.479C144.156 128.479 144.534 128.388 144.844 128.206C145.154 128.024 145.425 127.78 145.657 127.475L146.423 128.083C146.263 128.325 146.061 128.555 145.815 128.773C145.568 128.992 145.265 129.17 144.905 129.307C144.55 129.443 144.128 129.512 143.641 129.512ZM153.218 121.979V123.024H149.642V121.979H153.218ZM154.332 121.979V129.375H153.067V121.979H154.332ZM149.335 121.979H150.606L150.415 125.547C150.383 126.098 150.331 126.586 150.258 127.01C150.189 127.429 150.094 127.789 149.971 128.09C149.852 128.391 149.702 128.637 149.519 128.828C149.342 129.015 149.127 129.154 148.877 129.245C148.626 129.332 148.337 129.375 148.009 129.375H147.612V128.261L147.886 128.24C148.082 128.227 148.248 128.181 148.385 128.104C148.526 128.026 148.644 127.912 148.74 127.762C148.836 127.607 148.913 127.409 148.972 127.167C149.036 126.925 149.084 126.638 149.116 126.306C149.152 125.973 149.18 125.586 149.198 125.144L149.335 121.979ZM163.874 126.121H161.447L161.434 125.109H163.416C163.808 125.109 164.134 125.071 164.394 124.993C164.658 124.916 164.856 124.799 164.989 124.645C165.121 124.49 165.187 124.298 165.187 124.07C165.187 123.893 165.148 123.738 165.071 123.605C164.998 123.469 164.886 123.357 164.736 123.271C164.585 123.179 164.398 123.113 164.175 123.072C163.956 123.027 163.699 123.004 163.403 123.004H161.782V129.375H160.518V121.979H163.403C163.872 121.979 164.294 122.02 164.667 122.102C165.045 122.184 165.367 122.309 165.631 122.478C165.9 122.642 166.105 122.851 166.246 123.106C166.388 123.362 166.458 123.662 166.458 124.009C166.458 124.232 166.413 124.444 166.322 124.645C166.23 124.845 166.096 125.023 165.918 125.178C165.74 125.333 165.522 125.46 165.262 125.561C165.002 125.656 164.704 125.718 164.366 125.745L163.874 126.121ZM163.874 129.375H160.989L161.618 128.35H163.874C164.225 128.35 164.517 128.306 164.749 128.22C164.982 128.129 165.155 128.001 165.269 127.837C165.387 127.668 165.447 127.468 165.447 127.235C165.447 127.003 165.387 126.805 165.269 126.641C165.155 126.472 164.982 126.344 164.749 126.258C164.517 126.167 164.225 126.121 163.874 126.121H161.953L161.967 125.109H164.366L164.824 125.492C165.23 125.524 165.574 125.624 165.857 125.793C166.139 125.962 166.353 126.176 166.499 126.436C166.645 126.691 166.718 126.969 166.718 127.27C166.718 127.616 166.652 127.921 166.52 128.186C166.392 128.45 166.205 128.671 165.959 128.849C165.713 129.022 165.415 129.154 165.064 129.245C164.713 129.332 164.316 129.375 163.874 129.375ZM173.82 121.979V129.375H172.555V121.979H173.82ZM178.674 121.979L175.167 126.217H173.396L173.205 125.109H174.654L177.135 121.979H178.674ZM177.313 129.375L174.592 126.025L175.406 125.109L178.92 129.375H177.313ZM184.662 128.11V124.303C184.662 124.011 184.602 123.758 184.484 123.544C184.37 123.325 184.197 123.157 183.964 123.038C183.732 122.92 183.445 122.86 183.103 122.86C182.784 122.86 182.504 122.915 182.262 123.024C182.025 123.134 181.838 123.277 181.702 123.455C181.569 123.633 181.503 123.824 181.503 124.029H180.239C180.239 123.765 180.307 123.503 180.444 123.243C180.58 122.983 180.776 122.749 181.032 122.539C181.291 122.325 181.601 122.156 181.961 122.033C182.326 121.906 182.732 121.842 183.178 121.842C183.716 121.842 184.19 121.933 184.6 122.115C185.015 122.298 185.338 122.573 185.571 122.942C185.808 123.307 185.926 123.765 185.926 124.316V127.762C185.926 128.008 185.947 128.27 185.988 128.548C186.033 128.826 186.099 129.065 186.186 129.266V129.375H184.867C184.803 129.229 184.753 129.035 184.716 128.794C184.68 128.548 184.662 128.32 184.662 128.11ZM184.88 124.891L184.894 125.779H183.616C183.256 125.779 182.934 125.809 182.652 125.868C182.369 125.923 182.132 126.007 181.941 126.121C181.749 126.235 181.604 126.379 181.503 126.552C181.403 126.72 181.353 126.919 181.353 127.146C181.353 127.379 181.405 127.591 181.51 127.782C181.615 127.974 181.772 128.126 181.982 128.24C182.196 128.35 182.458 128.404 182.768 128.404C183.155 128.404 183.497 128.322 183.793 128.158C184.09 127.994 184.324 127.794 184.497 127.557C184.675 127.32 184.771 127.09 184.785 126.866L185.325 127.475C185.293 127.666 185.206 127.878 185.065 128.11C184.924 128.343 184.734 128.566 184.497 128.78C184.265 128.99 183.987 129.165 183.663 129.307C183.344 129.443 182.984 129.512 182.583 129.512C182.082 129.512 181.642 129.414 181.264 129.218C180.89 129.022 180.599 128.76 180.389 128.432C180.184 128.099 180.081 127.728 180.081 127.317C180.081 126.921 180.159 126.572 180.314 126.271C180.469 125.966 180.692 125.713 180.984 125.513C181.275 125.308 181.626 125.153 182.037 125.048C182.447 124.943 182.905 124.891 183.411 124.891H184.88ZM191.101 121.979V129.375H189.829V121.979H191.101ZM193.582 121.979V123.004H187.396V121.979H193.582ZM199.358 128.11V124.303C199.358 124.011 199.299 123.758 199.181 123.544C199.067 123.325 198.893 123.157 198.661 123.038C198.429 122.92 198.141 122.86 197.8 122.86C197.481 122.86 197.2 122.915 196.959 123.024C196.722 123.134 196.535 123.277 196.398 123.455C196.266 123.633 196.2 123.824 196.2 124.029H194.935C194.935 123.765 195.004 123.503 195.14 123.243C195.277 122.983 195.473 122.749 195.728 122.539C195.988 122.325 196.298 122.156 196.658 122.033C197.023 121.906 197.428 121.842 197.875 121.842C198.413 121.842 198.887 121.933 199.297 122.115C199.711 122.298 200.035 122.573 200.267 122.942C200.504 123.307 200.623 123.765 200.623 124.316V127.762C200.623 128.008 200.643 128.27 200.684 128.548C200.73 128.826 200.796 129.065 200.883 129.266V129.375H199.563C199.5 129.229 199.449 129.035 199.413 128.794C199.376 128.548 199.358 128.32 199.358 128.11ZM199.577 124.891L199.591 125.779H198.312C197.952 125.779 197.631 125.809 197.348 125.868C197.066 125.923 196.829 126.007 196.638 126.121C196.446 126.235 196.3 126.379 196.2 126.552C196.1 126.72 196.05 126.919 196.05 127.146C196.05 127.379 196.102 127.591 196.207 127.782C196.312 127.974 196.469 128.126 196.679 128.24C196.893 128.35 197.155 128.404 197.465 128.404C197.852 128.404 198.194 128.322 198.49 128.158C198.786 127.994 199.021 127.794 199.194 127.557C199.372 127.32 199.468 127.09 199.481 126.866L200.021 127.475C199.989 127.666 199.903 127.878 199.762 128.11C199.62 128.343 199.431 128.566 199.194 128.78C198.962 128.99 198.684 129.165 198.36 129.307C198.041 129.443 197.681 129.512 197.28 129.512C196.779 129.512 196.339 129.414 195.961 129.218C195.587 129.022 195.295 128.76 195.086 128.432C194.881 128.099 194.778 127.728 194.778 127.317C194.778 126.921 194.856 126.572 195.011 126.271C195.166 125.966 195.389 125.713 195.681 125.513C195.972 125.308 196.323 125.153 196.733 125.048C197.143 124.943 197.601 124.891 198.107 124.891H199.577ZM207.835 121.979V123.024H204.259V121.979H207.835ZM208.949 121.979V129.375H207.684V121.979H208.949ZM203.952 121.979H205.223L205.032 125.547C205 126.098 204.947 126.586 204.875 127.01C204.806 127.429 204.711 127.789 204.587 128.09C204.469 128.391 204.319 128.637 204.136 128.828C203.959 129.015 203.744 129.154 203.494 129.245C203.243 129.332 202.954 129.375 202.626 129.375H202.229V128.261L202.503 128.24C202.698 128.227 202.865 128.181 203.002 128.104C203.143 128.026 203.261 127.912 203.357 127.762C203.453 127.607 203.53 127.409 203.589 127.167C203.653 126.925 203.701 126.638 203.733 126.306C203.769 125.973 203.797 125.586 203.815 125.144L203.952 121.979ZM210.931 125.759V125.602C210.931 125.068 211.008 124.574 211.163 124.118C211.318 123.658 211.542 123.259 211.833 122.922C212.125 122.58 212.478 122.316 212.893 122.129C213.308 121.938 213.772 121.842 214.287 121.842C214.807 121.842 215.274 121.938 215.689 122.129C216.108 122.316 216.463 122.58 216.755 122.922C217.051 123.259 217.277 123.658 217.432 124.118C217.587 124.574 217.664 125.068 217.664 125.602V125.759C217.664 126.292 217.587 126.786 217.432 127.242C217.277 127.698 217.051 128.097 216.755 128.438C216.463 128.776 216.11 129.04 215.696 129.231C215.285 129.418 214.821 129.512 214.301 129.512C213.782 129.512 213.314 129.418 212.9 129.231C212.485 129.04 212.13 128.776 211.833 128.438C211.542 128.097 211.318 127.698 211.163 127.242C211.008 126.786 210.931 126.292 210.931 125.759ZM212.196 125.602V125.759C212.196 126.128 212.239 126.477 212.325 126.805C212.412 127.128 212.542 127.415 212.715 127.666C212.893 127.917 213.114 128.115 213.378 128.261C213.643 128.402 213.95 128.473 214.301 128.473C214.647 128.473 214.95 128.402 215.21 128.261C215.475 128.115 215.693 127.917 215.866 127.666C216.04 127.415 216.17 127.128 216.256 126.805C216.347 126.477 216.393 126.128 216.393 125.759V125.602C216.393 125.237 216.347 124.893 216.256 124.569C216.17 124.241 216.037 123.952 215.86 123.701C215.686 123.446 215.468 123.245 215.203 123.1C214.944 122.954 214.638 122.881 214.287 122.881C213.941 122.881 213.636 122.954 213.371 123.1C213.112 123.245 212.893 123.446 212.715 123.701C212.542 123.952 212.412 124.241 212.325 124.569C212.239 124.893 212.196 125.237 212.196 125.602ZM224.309 121.979V123.024H220.891V129.375H219.626V121.979H224.309ZM228.622 129.512C228.107 129.512 227.64 129.425 227.22 129.252C226.806 129.074 226.448 128.826 226.147 128.507C225.851 128.188 225.623 127.81 225.464 127.372C225.304 126.935 225.224 126.456 225.224 125.937V125.649C225.224 125.048 225.313 124.512 225.491 124.043C225.669 123.569 225.91 123.168 226.216 122.84C226.521 122.512 226.867 122.263 227.255 122.095C227.642 121.926 228.043 121.842 228.458 121.842C228.986 121.842 229.442 121.933 229.825 122.115C230.212 122.298 230.529 122.553 230.775 122.881C231.021 123.204 231.204 123.587 231.322 124.029C231.44 124.467 231.5 124.945 231.5 125.465V126.032H225.976V125H230.235V124.904C230.217 124.576 230.148 124.257 230.03 123.947C229.916 123.637 229.734 123.382 229.483 123.182C229.232 122.981 228.891 122.881 228.458 122.881C228.171 122.881 227.906 122.942 227.665 123.065C227.423 123.184 227.216 123.362 227.043 123.599C226.87 123.836 226.735 124.125 226.639 124.467C226.544 124.809 226.496 125.203 226.496 125.649V125.937C226.496 126.287 226.544 126.618 226.639 126.928C226.74 127.233 226.883 127.502 227.07 127.734C227.261 127.967 227.492 128.149 227.76 128.281C228.034 128.413 228.344 128.479 228.69 128.479C229.137 128.479 229.515 128.388 229.825 128.206C230.135 128.024 230.406 127.78 230.638 127.475L231.404 128.083C231.245 128.325 231.042 128.555 230.796 128.773C230.55 128.992 230.246 129.17 229.886 129.307C229.531 129.443 229.109 129.512 228.622 129.512Z" fill="#333333"/>
<g clip-path="url(#clip0_1_1315)">
<path d="M127.358 63.8037H126.761C126.431 63.8037 126.164 63.5361 126.164 63.2064V62.0118C126.164 61.6821 126.431 61.4145 126.761 61.4145H130.942V59.0253C130.942 58.7332 131.051 58.4692 131.225 58.2614L124.372 47.78L115.679 61.0746C114.332 63.1347 113.62 65.5239 113.62 67.9847C113.62 73.9129 118.444 78.7361 124.372 78.7361C125.388 78.7361 126.391 78.5891 127.358 78.3102V63.8037Z" fill="#F9BA48"/>
<path d="M147.07 60.817H143.487V59.0251C143.487 58.0371 142.683 57.2332 141.695 57.2332H133.592L124.373 43.625L114.015 58.9152C112.195 61.6024 111.233 64.7388 111.233 67.9845C111.233 75.2303 117.127 81.125 124.373 81.125C125.525 81.125 126.664 80.9685 127.766 80.6746C128.158 80.9554 128.634 81.125 129.152 81.125H144.681C145.999 81.125 147.07 80.0535 147.07 78.7358V64.4007C147.729 64.4007 148.265 63.865 148.265 63.2061V62.0115C148.265 61.3527 147.729 60.817 147.07 60.817ZM142.292 59.0251V60.817H131.541V59.0251C131.541 58.696 131.809 58.4278 132.138 58.4278H141.695C142.024 58.4278 142.292 58.696 142.292 59.0251ZM112.427 67.9845C112.427 64.9783 113.318 62.0737 115.005 59.5847L124.373 45.755L132.149 57.2332H132.138C131.15 57.2332 130.346 58.0371 130.346 59.0251V60.817H126.762C126.104 60.817 125.568 61.3527 125.568 62.0115V63.2061C125.568 63.865 126.104 64.4007 126.762 64.4007V78.7358C126.762 79.0602 126.829 79.369 126.946 79.6515C126.105 79.836 125.243 79.9304 124.373 79.9304C117.786 79.9304 112.427 74.5721 112.427 67.9845ZM142.292 76.3466V64.4007H143.487V76.3466H142.292ZM141.097 76.3466H139.903V64.4007H141.097V76.3466ZM138.708 76.3466H137.514V64.4007H138.708V76.3466ZM136.319 76.3466H135.124V64.4007H136.319V76.3466ZM133.93 76.3466H132.735V64.4007H133.93V76.3466ZM131.541 76.3466H130.346V64.4007H131.541V76.3466ZM129.152 76.3466H127.957V64.4007H129.152V76.3466ZM144.681 79.9304H129.152C128.493 79.9304 127.957 79.3946 127.957 78.7358V77.5412H145.876V78.7358C145.876 79.3946 145.34 79.9304 144.681 79.9304ZM145.876 76.3466H144.681V64.4007H145.876V76.3466ZM126.762 63.2061V62.0115H147.07L147.071 63.2061H126.762Z" fill="#333333"/>
<path d="M124.373 64.4024C124.373 62.426 122.766 60.8187 120.789 60.8187C118.813 60.8187 117.206 62.426 117.206 64.4024C117.206 66.3789 118.813 67.9862 120.789 67.9862C122.766 67.9862 124.373 66.3789 124.373 64.4024ZM118.4 64.4024C118.4 63.0848 119.472 62.0133 120.789 62.0133C122.107 62.0133 123.178 63.0848 123.178 64.4024C123.178 65.7201 122.107 66.7916 120.789 66.7916C119.472 66.7916 118.4 65.7201 118.4 64.4024Z" fill="#333333"/>
<path d="M124.374 60.2193C125.691 60.2193 126.763 59.1477 126.763 57.8301C126.763 56.5125 125.691 55.4409 124.374 55.4409C123.056 55.4409 121.985 56.5125 121.985 57.8301C121.985 59.1477 123.056 60.2193 124.374 60.2193ZM124.374 56.6355C125.033 56.6355 125.568 57.1713 125.568 57.8301C125.568 58.4889 125.033 59.0247 124.374 59.0247C123.715 59.0247 123.179 58.4889 123.179 57.8301C123.179 57.1713 123.715 56.6355 124.374 56.6355Z" fill="#333333"/>
<path d="M123.18 69.1793C121.862 69.1793 120.791 70.2508 120.791 71.5684C120.791 72.8861 121.862 73.9576 123.18 73.9576C124.497 73.9576 125.569 72.8861 125.569 71.5684C125.569 70.2508 124.497 69.1793 123.18 69.1793ZM123.18 72.763C122.521 72.763 121.985 72.2273 121.985 71.5684C121.985 70.9096 122.521 70.3738 123.18 70.3738C123.839 70.3738 124.374 70.9096 124.374 71.5684C124.374 72.2273 123.839 72.763 123.18 72.763Z" fill="#333333"/>
</g>
</g>
<defs>
<filter id="filter0_d_1_1315" x="0" y="0" width="260" height="184" filterUnits="userSpaceOnUse" color-interpolation-filters="sRGB">
<feFlood flood-opacity="0" result="BackgroundImageFix"/>
<feColorMatrix in="SourceAlpha" type="matrix" values="0 0 0 0 0 0 0 0 0 0 0 0 0 0 0 0 0 0 127 0" result="hardAlpha"/>
<feOffset dy="4"/>
<feGaussianBlur stdDeviation="10"/>
<feComposite in2="hardAlpha" operator="out"/>
<feColorMatrix type="matrix" values="0 0 0 0 0.176471 0 0 0 0 0.47451 0 0 0 0 0.47451 0 0 0 0.5 0"/>
<feBlend mode="normal" in2="BackgroundImageFix" result="effect1_dropShadow_1_1315"/>
<feBlend mode="normal" in="SourceGraphic" in2="effect1_dropShadow_1_1315" result="shape"/>
</filter>
<clipPath id="clip0_1_1315">
<rect width="37.5" height="37.5" fill="white" transform="translate(111 43.625)"/>
</clipPath>
</defs>
</svg>
