<svg width="260" height="184" viewBox="0 0 260 184" fill="none" xmlns="http://www.w3.org/2000/svg">
<g filter="url(#filter0_d_1_1316)">
<rect x="20" y="16" width="220" height="144" rx="5" fill="white" shape-rendering="crispEdges"/>
<path d="M76.9723 104.71H78.2848C78.2164 105.339 78.0364 105.902 77.7447 106.398C77.4531 106.895 77.0406 107.289 76.5074 107.581C75.9742 107.868 75.3089 108.012 74.5113 108.012C73.928 108.012 73.3971 107.902 72.9186 107.684C72.4446 107.465 72.0367 107.155 71.6949 106.754C71.3531 106.348 71.0888 105.863 70.902 105.298C70.7197 104.728 70.6285 104.095 70.6285 103.397V102.406C70.6285 101.709 70.7197 101.078 70.902 100.513C71.0888 99.943 71.3554 99.4554 71.7018 99.0498C72.0527 98.6442 72.4742 98.332 72.9664 98.1133C73.4586 97.8945 74.0123 97.7852 74.6275 97.7852C75.3795 97.7852 76.0152 97.9264 76.5348 98.209C77.0543 98.4915 77.4576 98.8835 77.7447 99.3848C78.0364 99.8815 78.2164 100.458 78.2848 101.114H76.9723C76.9085 100.649 76.79 100.251 76.6168 99.918C76.4436 99.5807 76.1975 99.321 75.8785 99.1387C75.5595 98.9564 75.1425 98.8652 74.6275 98.8652C74.1855 98.8652 73.7958 98.9495 73.4586 99.1182C73.1259 99.2868 72.8456 99.526 72.6178 99.8359C72.3945 100.146 72.2258 100.517 72.1119 100.95C71.998 101.383 71.941 101.864 71.941 102.393V103.397C71.941 103.885 71.9911 104.343 72.0914 104.771C72.1962 105.2 72.3535 105.576 72.5631 105.899C72.7727 106.223 73.0393 106.478 73.3629 106.665C73.6865 106.847 74.0693 106.938 74.5113 106.938C75.0719 106.938 75.5185 106.85 75.8512 106.672C76.1839 106.494 76.4345 106.239 76.6031 105.906C76.7763 105.574 76.8994 105.175 76.9723 104.71ZM81.4359 101.9V110.719H80.1644V100.479H81.3265L81.4359 101.9ZM86.4193 104.115V104.259C86.4193 104.797 86.3555 105.296 86.2279 105.756C86.1002 106.212 85.9134 106.608 85.6673 106.945C85.4258 107.283 85.1273 107.545 84.7718 107.731C84.4163 107.918 84.0085 108.012 83.5482 108.012C83.0788 108.012 82.664 107.934 82.304 107.779C81.944 107.624 81.6387 107.399 81.388 107.103C81.1374 106.806 80.9368 106.451 80.7864 106.036C80.6406 105.621 80.5404 105.154 80.4857 104.635V103.869C80.5404 103.322 80.6429 102.832 80.7933 102.399C80.9437 101.966 81.1419 101.597 81.388 101.292C81.6387 100.982 81.9417 100.747 82.2972 100.588C82.6527 100.424 83.0628 100.342 83.5277 100.342C83.9925 100.342 84.4049 100.433 84.765 100.615C85.125 100.793 85.428 101.048 85.6741 101.381C85.9202 101.714 86.1048 102.112 86.2279 102.577C86.3555 103.037 86.4193 103.55 86.4193 104.115ZM85.1478 104.259V104.115C85.1478 103.746 85.109 103.4 85.0316 103.076C84.9541 102.748 84.8333 102.461 84.6693 102.215C84.5098 101.964 84.3047 101.768 84.054 101.627C83.8034 101.481 83.5049 101.408 83.1585 101.408C82.8395 101.408 82.5615 101.463 82.3245 101.572C82.0921 101.682 81.8939 101.83 81.7298 102.017C81.5657 102.199 81.4313 102.409 81.3265 102.646C81.2262 102.878 81.151 103.119 81.1009 103.37V105.141C81.192 105.46 81.3196 105.76 81.4837 106.043C81.6478 106.321 81.8665 106.547 82.14 106.72C82.4134 106.888 82.7575 106.973 83.1722 106.973C83.514 106.973 83.8079 106.902 84.054 106.761C84.3047 106.615 84.5098 106.417 84.6693 106.166C84.8333 105.915 84.9541 105.628 85.0316 105.305C85.109 104.977 85.1478 104.628 85.1478 104.259ZM91.3819 108.012C90.8669 108.012 90.3998 107.925 89.9805 107.752C89.5658 107.574 89.208 107.326 88.9073 107.007C88.611 106.688 88.3832 106.31 88.2237 105.872C88.0642 105.435 87.9844 104.956 87.9844 104.437V104.149C87.9844 103.548 88.0733 103.012 88.251 102.543C88.4287 102.069 88.6703 101.668 88.9756 101.34C89.281 101.012 89.6273 100.763 90.0147 100.595C90.4021 100.426 90.8031 100.342 91.2178 100.342C91.7465 100.342 92.2022 100.433 92.585 100.615C92.9724 100.798 93.2891 101.053 93.5352 101.381C93.7813 101.704 93.9636 102.087 94.0821 102.529C94.2006 102.967 94.2598 103.445 94.2598 103.965V104.532H88.7364V103.5H92.9952V103.404C92.9769 103.076 92.9086 102.757 92.7901 102.447C92.6761 102.137 92.4939 101.882 92.2432 101.682C91.9926 101.481 91.6508 101.381 91.2178 101.381C90.9307 101.381 90.6664 101.442 90.4248 101.565C90.1833 101.684 89.9759 101.862 89.8028 102.099C89.6296 102.336 89.4952 102.625 89.3995 102.967C89.3037 103.309 89.2559 103.703 89.2559 104.149V104.437C89.2559 104.787 89.3037 105.118 89.3995 105.428C89.4997 105.733 89.6433 106.002 89.8301 106.234C90.0215 106.467 90.2517 106.649 90.5205 106.781C90.794 106.913 91.1039 106.979 91.4502 106.979C91.8968 106.979 92.2751 106.888 92.585 106.706C92.8949 106.524 93.1661 106.28 93.3985 105.975L94.1641 106.583C94.0046 106.825 93.8018 107.055 93.5557 107.273C93.3096 107.492 93.0065 107.67 92.6465 107.807C92.2911 107.943 91.8695 108.012 91.3819 108.012ZM97.3494 100.479H98.614L98.5047 103.247C98.4773 103.949 98.3976 104.555 98.2654 105.065C98.1332 105.576 97.9646 106.011 97.7595 106.371C97.5545 106.727 97.3243 107.025 97.0691 107.267C96.8185 107.508 96.5587 107.711 96.2898 107.875H95.6609L95.6951 106.843L95.9548 106.836C96.1052 106.658 96.2511 106.476 96.3923 106.289C96.5336 106.098 96.6635 105.872 96.782 105.612C96.9005 105.348 96.9985 105.027 97.0759 104.648C97.158 104.266 97.2104 103.799 97.2332 103.247L97.3494 100.479ZM97.6638 100.479H102.114V107.875H100.849V101.647H97.6638V100.479ZM95.3738 106.836H103.064V110.056H101.8V107.875H96.6384V110.056H95.367L95.3738 106.836ZM109.763 103.685V104.71H105.853V103.685H109.763ZM106.12 100.479V107.875H104.855V100.479H106.12ZM110.789 100.479V107.875H109.517V100.479H110.789ZM114.473 105.872L117.884 100.479H119.155V107.875H117.884V102.481L114.473 107.875H113.215V100.479H114.473V105.872ZM122.833 105.872L126.244 100.479H127.516V107.875H126.244V102.481L122.833 107.875H121.575V100.479H122.833V105.872ZM125.554 97.7988H126.579C126.579 98.1543 126.497 98.471 126.333 98.749C126.169 99.0225 125.934 99.2367 125.629 99.3916C125.323 99.5465 124.961 99.624 124.542 99.624C123.908 99.624 123.407 99.4554 123.038 99.1182C122.673 98.7764 122.491 98.3366 122.491 97.7988H123.517C123.517 98.0677 123.594 98.3047 123.749 98.5098C123.904 98.7148 124.168 98.8174 124.542 98.8174C124.906 98.8174 125.166 98.7148 125.321 98.5098C125.476 98.3047 125.554 98.0677 125.554 97.7988ZM134.843 101.9V110.719H133.572V100.479H134.734L134.843 101.9ZM139.827 104.115V104.259C139.827 104.797 139.763 105.296 139.635 105.756C139.508 106.212 139.321 106.608 139.075 106.945C138.833 107.283 138.535 107.545 138.179 107.731C137.824 107.918 137.416 108.012 136.955 108.012C136.486 108.012 136.071 107.934 135.711 107.779C135.351 107.624 135.046 107.399 134.795 107.103C134.545 106.806 134.344 106.451 134.194 106.036C134.048 105.621 133.948 105.154 133.893 104.635V103.869C133.948 103.322 134.05 102.832 134.201 102.399C134.351 101.966 134.549 101.597 134.795 101.292C135.046 100.982 135.349 100.747 135.704 100.588C136.06 100.424 136.47 100.342 136.935 100.342C137.4 100.342 137.812 100.433 138.172 100.615C138.532 100.793 138.835 101.048 139.081 101.381C139.327 101.714 139.512 102.112 139.635 102.577C139.763 103.037 139.827 103.55 139.827 104.115ZM138.555 104.259V104.115C138.555 103.746 138.516 103.4 138.439 103.076C138.361 102.748 138.241 102.461 138.077 102.215C137.917 101.964 137.712 101.768 137.461 101.627C137.211 101.481 136.912 101.408 136.566 101.408C136.247 101.408 135.969 101.463 135.732 101.572C135.499 101.682 135.301 101.83 135.137 102.017C134.973 102.199 134.839 102.409 134.734 102.646C134.633 102.878 134.558 103.119 134.508 103.37V105.141C134.599 105.46 134.727 105.76 134.891 106.043C135.055 106.321 135.274 106.547 135.547 106.72C135.821 106.888 136.165 106.973 136.579 106.973C136.921 106.973 137.215 106.902 137.461 106.761C137.712 106.615 137.917 106.417 138.077 106.166C138.241 105.915 138.361 105.628 138.439 105.305C138.516 104.977 138.555 104.628 138.555 104.259ZM144.789 108.012C144.274 108.012 143.807 107.925 143.388 107.752C142.973 107.574 142.615 107.326 142.315 107.007C142.018 106.688 141.79 106.31 141.631 105.872C141.471 105.435 141.392 104.956 141.392 104.437V104.149C141.392 103.548 141.481 103.012 141.658 102.543C141.836 102.069 142.078 101.668 142.383 101.34C142.688 101.012 143.035 100.763 143.422 100.595C143.809 100.426 144.21 100.342 144.625 100.342C145.154 100.342 145.609 100.433 145.992 100.615C146.38 100.798 146.696 101.053 146.942 101.381C147.189 101.704 147.371 102.087 147.489 102.529C147.608 102.967 147.667 103.445 147.667 103.965V104.532H142.144V103.5H146.402V103.404C146.384 103.076 146.316 102.757 146.197 102.447C146.083 102.137 145.901 101.882 145.65 101.682C145.4 101.481 145.058 101.381 144.625 101.381C144.338 101.381 144.074 101.442 143.832 101.565C143.591 101.684 143.383 101.862 143.21 102.099C143.037 102.336 142.902 102.625 142.807 102.967C142.711 103.309 142.663 103.703 142.663 104.149V104.437C142.663 104.787 142.711 105.118 142.807 105.428C142.907 105.733 143.051 106.002 143.237 106.234C143.429 106.467 143.659 106.649 143.928 106.781C144.201 106.913 144.511 106.979 144.857 106.979C145.304 106.979 145.682 106.888 145.992 106.706C146.302 106.524 146.573 106.28 146.806 105.975L147.571 106.583C147.412 106.825 147.209 107.055 146.963 107.273C146.717 107.492 146.414 107.67 146.054 107.807C145.698 107.943 145.277 108.012 144.789 108.012ZM150.791 105.872L154.202 100.479H155.473V107.875H154.202V102.481L150.791 107.875H149.533V100.479H150.791V105.872ZM153.512 97.7988H154.537C154.537 98.1543 154.455 98.471 154.291 98.749C154.127 99.0225 153.892 99.2367 153.587 99.3916C153.281 99.5465 152.919 99.624 152.5 99.624C151.866 99.624 151.365 99.4554 150.996 99.1182C150.631 98.7764 150.449 98.3366 150.449 97.7988H151.474C151.474 98.0677 151.552 98.3047 151.707 98.5098C151.862 98.7148 152.126 98.8174 152.5 98.8174C152.864 98.8174 153.124 98.7148 153.279 98.5098C153.434 98.3047 153.512 98.0677 153.512 97.7988ZM160.798 100.479V107.875H159.527V100.479H160.798ZM163.28 100.479V101.504H157.093V100.479H163.28ZM166.171 105.872L169.582 100.479H170.854V107.875H169.582V102.481L166.171 107.875H164.913V100.479H166.171V105.872ZM178.182 103.685V104.71H174.271V103.685H178.182ZM174.538 100.479V107.875H173.273V100.479H174.538ZM179.207 100.479V107.875H177.936V100.479H179.207ZM186.302 100.479V101.524H182.884V107.875H181.62V100.479H186.302ZM58.2186 121.479V122.524H54.4793V121.479H58.2186ZM54.6639 121.479V128.875H53.3993V121.479H54.6639ZM59.3397 121.479V128.875H58.0682V121.479H59.3397ZM62.9146 122.9V131.719H61.6431V121.479H62.8052L62.9146 122.9ZM67.898 125.115V125.259C67.898 125.797 67.8342 126.296 67.7066 126.756C67.579 127.212 67.3922 127.608 67.1461 127.945C66.9045 128.283 66.606 128.545 66.2506 128.731C65.8951 128.918 65.4872 129.012 65.0269 129.012C64.5575 129.012 64.1428 128.934 63.7828 128.779C63.4228 128.624 63.1174 128.399 62.8668 128.103C62.6161 127.806 62.4156 127.451 62.2652 127.036C62.1194 126.621 62.0191 126.154 61.9644 125.635V124.869C62.0191 124.322 62.1216 123.832 62.272 123.399C62.4224 122.966 62.6207 122.597 62.8668 122.292C63.1174 121.982 63.4205 121.747 63.7759 121.588C64.1314 121.424 64.5416 121.342 65.0064 121.342C65.4713 121.342 65.8837 121.433 66.2437 121.615C66.6037 121.793 66.9068 122.048 67.1529 122.381C67.399 122.714 67.5836 123.112 67.7066 123.577C67.8342 124.037 67.898 124.55 67.898 125.115ZM66.6265 125.259V125.115C66.6265 124.746 66.5878 124.4 66.5103 124.076C66.4328 123.748 66.3121 123.461 66.148 123.215C65.9885 122.964 65.7834 122.768 65.5328 122.627C65.2821 122.481 64.9836 122.408 64.6373 122.408C64.3183 122.408 64.0403 122.463 63.8033 122.572C63.5709 122.682 63.3726 122.83 63.2086 123.017C63.0445 123.199 62.9101 123.409 62.8052 123.646C62.705 123.878 62.6298 124.119 62.5797 124.37V126.141C62.6708 126.46 62.7984 126.76 62.9625 127.043C63.1265 127.321 63.3453 127.547 63.6187 127.72C63.8922 127.888 64.2362 127.973 64.6509 127.973C64.9927 127.973 65.2867 127.902 65.5328 127.761C65.7834 127.615 65.9885 127.417 66.148 127.166C66.3121 126.915 66.4328 126.628 66.5103 126.305C66.5878 125.977 66.6265 125.628 66.6265 125.259ZM69.4563 125.259V125.102C69.4563 124.568 69.5338 124.074 69.6888 123.618C69.8437 123.158 70.067 122.759 70.3587 122.422C70.6503 122.08 71.0035 121.816 71.4182 121.629C71.833 121.438 72.2978 121.342 72.8128 121.342C73.3323 121.342 73.7994 121.438 74.2141 121.629C74.6334 121.816 74.9889 122.08 75.2806 122.422C75.5768 122.759 75.8024 123.158 75.9573 123.618C76.1123 124.074 76.1897 124.568 76.1897 125.102V125.259C76.1897 125.792 76.1123 126.286 75.9573 126.742C75.8024 127.198 75.5768 127.597 75.2806 127.938C74.9889 128.276 74.6357 128.54 74.221 128.731C73.8108 128.918 73.346 129.012 72.8264 129.012C72.3069 129.012 71.8398 128.918 71.4251 128.731C71.0104 128.54 70.6549 128.276 70.3587 127.938C70.067 127.597 69.8437 127.198 69.6888 126.742C69.5338 126.286 69.4563 125.792 69.4563 125.259ZM70.721 125.102V125.259C70.721 125.628 70.7643 125.977 70.8509 126.305C70.9375 126.628 71.0673 126.915 71.2405 127.166C71.4182 127.417 71.6393 127.615 71.9036 127.761C72.1679 127.902 72.4755 127.973 72.8264 127.973C73.1728 127.973 73.4759 127.902 73.7356 127.761C74 127.615 74.2187 127.417 74.3919 127.166C74.5651 126.915 74.6949 126.628 74.7815 126.305C74.8727 125.977 74.9182 125.628 74.9182 125.259V125.102C74.9182 124.737 74.8727 124.393 74.7815 124.069C74.6949 123.741 74.5628 123.452 74.385 123.201C74.2119 122.946 73.9931 122.745 73.7288 122.6C73.469 122.454 73.1637 122.381 72.8128 122.381C72.4664 122.381 72.1611 122.454 71.8968 122.6C71.637 122.745 71.4182 122.946 71.2405 123.201C71.0673 123.452 70.9375 123.741 70.8509 124.069C70.7643 124.393 70.721 124.737 70.721 125.102ZM78.8965 121.479H80.1611L80.0518 124.247C80.0244 124.949 79.9447 125.555 79.8125 126.065C79.6803 126.576 79.5117 127.011 79.3066 127.371C79.1016 127.727 78.8714 128.025 78.6162 128.267C78.3656 128.508 78.1058 128.711 77.8369 128.875H77.208L77.2422 127.843L77.502 127.836C77.6523 127.658 77.7982 127.476 77.9395 127.289C78.0807 127.098 78.2106 126.872 78.3291 126.612C78.4476 126.348 78.5456 126.027 78.6231 125.648C78.7051 125.266 78.7575 124.799 78.7803 124.247L78.8965 121.479ZM79.2109 121.479H83.6611V128.875H82.3965V122.647H79.2109V121.479ZM76.9209 127.836H84.6113V131.056H83.3467V128.875H78.1856V131.056H76.9141L76.9209 127.836ZM90.654 127.61V123.803C90.654 123.511 90.5948 123.258 90.4763 123.044C90.3624 122.825 90.1892 122.657 89.9568 122.538C89.7243 122.42 89.4372 122.36 89.0954 122.36C88.7764 122.36 88.4961 122.415 88.2546 122.524C88.0176 122.634 87.8308 122.777 87.6941 122.955C87.5619 123.133 87.4958 123.324 87.4958 123.529H86.2312C86.2312 123.265 86.2995 123.003 86.4363 122.743C86.573 122.483 86.7689 122.249 87.0241 122.039C87.2839 121.825 87.5938 121.656 87.9538 121.533C88.3184 121.406 88.724 121.342 89.1706 121.342C89.7084 121.342 90.1823 121.433 90.5925 121.615C91.0072 121.798 91.3308 122.073 91.5632 122.442C91.8002 122.807 91.9187 123.265 91.9187 123.816V127.262C91.9187 127.508 91.9392 127.77 91.9802 128.048C92.0258 128.326 92.0919 128.565 92.1784 128.766V128.875H90.8591C90.7953 128.729 90.7452 128.535 90.7087 128.294C90.6723 128.048 90.654 127.82 90.654 127.61ZM90.8728 124.391L90.8864 125.279H89.6081C89.2481 125.279 88.9268 125.309 88.6443 125.368C88.3617 125.423 88.1247 125.507 87.9333 125.621C87.7419 125.735 87.5961 125.879 87.4958 126.052C87.3956 126.22 87.3454 126.419 87.3454 126.646C87.3454 126.879 87.3978 127.091 87.5027 127.282C87.6075 127.474 87.7647 127.626 87.9743 127.74C88.1885 127.85 88.4506 127.904 88.7605 127.904C89.1478 127.904 89.4896 127.822 89.7859 127.658C90.0821 127.494 90.3168 127.294 90.49 127.057C90.6677 126.82 90.7634 126.59 90.7771 126.366L91.3171 126.975C91.2852 127.166 91.1986 127.378 91.0573 127.61C90.9161 127.843 90.7269 128.066 90.49 128.28C90.2575 128.49 89.9795 128.665 89.656 128.807C89.337 128.943 88.9769 129.012 88.5759 129.012C88.0746 129.012 87.6348 128.914 87.2566 128.718C86.8829 128.522 86.5912 128.26 86.3816 127.932C86.1765 127.599 86.0739 127.228 86.0739 126.817C86.0739 126.421 86.1514 126.072 86.3064 125.771C86.4613 125.466 86.6846 125.213 86.9763 125.013C87.268 124.808 87.6189 124.653 88.029 124.548C88.4392 124.443 88.8972 124.391 89.403 124.391H90.8728ZM97.6606 125.621H95.2338L95.2202 124.609H97.2026C97.5945 124.609 97.9204 124.571 98.1801 124.493C98.4444 124.416 98.6427 124.299 98.7748 124.145C98.907 123.99 98.9731 123.798 98.9731 123.57C98.9731 123.393 98.9344 123.238 98.8569 123.105C98.784 122.969 98.6723 122.857 98.5219 122.771C98.3715 122.679 98.1847 122.613 97.9614 122.572C97.7426 122.527 97.4851 122.504 97.1889 122.504H95.5688V128.875H94.3041V121.479H97.1889C97.6583 121.479 98.0799 121.52 98.4536 121.602C98.8318 121.684 99.1531 121.809 99.4174 121.978C99.6863 122.142 99.8914 122.351 100.033 122.606C100.174 122.862 100.245 123.162 100.245 123.509C100.245 123.732 100.199 123.944 100.108 124.145C100.017 124.345 99.8823 124.523 99.7045 124.678C99.5268 124.833 99.3081 124.96 99.0483 125.061C98.7885 125.156 98.49 125.218 98.1528 125.245L97.6606 125.621ZM97.6606 128.875H94.7758L95.4047 127.85H97.6606C98.0115 127.85 98.3032 127.806 98.5356 127.72C98.768 127.629 98.9412 127.501 99.0551 127.337C99.1736 127.168 99.2329 126.968 99.2329 126.735C99.2329 126.503 99.1736 126.305 99.0551 126.141C98.9412 125.972 98.768 125.844 98.5356 125.758C98.3032 125.667 98.0115 125.621 97.6606 125.621H95.7397L95.7534 124.609H98.1528L98.6108 124.992C99.0164 125.024 99.3605 125.124 99.643 125.293C99.9256 125.462 100.14 125.676 100.286 125.936C100.431 126.191 100.504 126.469 100.504 126.77C100.504 127.116 100.438 127.421 100.306 127.686C100.178 127.95 99.9916 128.171 99.7456 128.349C99.4995 128.522 99.201 128.654 98.85 128.745C98.4991 128.832 98.1026 128.875 97.6606 128.875ZM102.589 128.875V121.479H103.854V127.836H107.258V121.479H108.529V128.875H102.589ZM109.404 127.836L109.281 131.069H108.153V128.875H107.19V127.836H109.404ZM110.724 125.259V125.102C110.724 124.568 110.801 124.074 110.956 123.618C111.111 123.158 111.334 122.759 111.626 122.422C111.918 122.08 112.271 121.816 112.685 121.629C113.1 121.438 113.565 121.342 114.08 121.342C114.599 121.342 115.067 121.438 115.481 121.629C115.901 121.816 116.256 122.08 116.548 122.422C116.844 122.759 117.07 123.158 117.224 123.618C117.379 124.074 117.457 124.568 117.457 125.102V125.259C117.457 125.792 117.379 126.286 117.224 126.742C117.07 127.198 116.844 127.597 116.548 127.938C116.256 128.276 115.903 128.54 115.488 128.731C115.078 128.918 114.613 129.012 114.094 129.012C113.574 129.012 113.107 128.918 112.692 128.731C112.278 128.54 111.922 128.276 111.626 127.938C111.334 127.597 111.111 127.198 110.956 126.742C110.801 126.286 110.724 125.792 110.724 125.259ZM111.988 125.102V125.259C111.988 125.628 112.031 125.977 112.118 126.305C112.205 126.628 112.335 126.915 112.508 127.166C112.685 127.417 112.906 127.615 113.171 127.761C113.435 127.902 113.743 127.973 114.094 127.973C114.44 127.973 114.743 127.902 115.003 127.761C115.267 127.615 115.486 127.417 115.659 127.166C115.832 126.915 115.962 126.628 116.049 126.305C116.14 125.977 116.185 125.628 116.185 125.259V125.102C116.185 124.737 116.14 124.393 116.049 124.069C115.962 123.741 115.83 123.452 115.652 123.201C115.479 122.946 115.26 122.745 114.996 122.6C114.736 122.454 114.431 122.381 114.08 122.381C113.734 122.381 113.428 122.454 113.164 122.6C112.904 122.745 112.685 122.946 112.508 123.201C112.335 123.452 112.205 123.741 112.118 124.069C112.031 124.393 111.988 124.737 111.988 125.102ZM122.796 125.621H120.369L120.355 124.609H122.338C122.729 124.609 123.055 124.571 123.315 124.493C123.579 124.416 123.778 124.299 123.91 124.145C124.042 123.99 124.108 123.798 124.108 123.57C124.108 123.393 124.069 123.238 123.992 123.105C123.919 122.969 123.807 122.857 123.657 122.771C123.506 122.679 123.32 122.613 123.096 122.572C122.878 122.527 122.62 122.504 122.324 122.504H120.704V128.875H119.439V121.479H122.324C122.793 121.479 123.215 121.52 123.588 121.602C123.967 121.684 124.288 121.809 124.552 121.978C124.821 122.142 125.026 122.351 125.168 122.606C125.309 122.862 125.379 123.162 125.379 123.509C125.379 123.732 125.334 123.944 125.243 124.145C125.152 124.345 125.017 124.523 124.839 124.678C124.662 124.833 124.443 124.96 124.183 125.061C123.923 125.156 123.625 125.218 123.288 125.245L122.796 125.621ZM122.796 128.875H119.911L120.54 127.85H122.796C123.146 127.85 123.438 127.806 123.671 127.72C123.903 127.629 124.076 127.501 124.19 127.337C124.309 127.168 124.368 126.968 124.368 126.735C124.368 126.503 124.309 126.305 124.19 126.141C124.076 125.972 123.903 125.844 123.671 125.758C123.438 125.667 123.146 125.621 122.796 125.621H120.875L120.888 124.609H123.288L123.746 124.992C124.151 125.024 124.495 125.124 124.778 125.293C125.06 125.462 125.275 125.676 125.421 125.936C125.566 126.191 125.639 126.469 125.639 126.77C125.639 127.116 125.573 127.421 125.441 127.686C125.313 127.95 125.127 128.171 124.88 128.349C124.634 128.522 124.336 128.654 123.985 128.745C123.634 128.832 123.238 128.875 122.796 128.875Z" fill="#333333"/>
<path d="M140.186 124.313V126.001H130.957L130.887 124.727L136.406 116.078H138.103L136.266 119.225L133.093 124.313H140.186ZM138.586 116.078V128.875H136.468V116.078H138.586ZM142.172 127.82C142.172 127.492 142.283 127.217 142.506 126.994C142.728 126.766 143.03 126.651 143.411 126.651C143.798 126.651 144.099 126.766 144.316 126.994C144.539 127.217 144.65 127.492 144.65 127.82C144.65 128.148 144.539 128.424 144.316 128.646C144.099 128.869 143.798 128.98 143.411 128.98C143.03 128.98 142.728 128.869 142.506 128.646C142.283 128.424 142.172 128.148 142.172 127.82ZM155.698 125.386C155.698 126.183 155.513 126.854 155.144 127.398C154.775 127.943 154.271 128.356 153.632 128.638C152.999 128.913 152.284 129.051 151.488 129.051C150.691 129.051 149.973 128.913 149.334 128.638C148.696 128.356 148.192 127.943 147.823 127.398C147.453 126.854 147.269 126.183 147.269 125.386C147.269 124.858 147.371 124.381 147.576 123.953C147.782 123.52 148.072 123.147 148.447 122.837C148.827 122.521 149.273 122.277 149.783 122.107C150.298 121.938 150.861 121.853 151.47 121.853C152.279 121.853 153.002 122.002 153.641 122.301C154.28 122.6 154.781 123.013 155.144 123.54C155.513 124.067 155.698 124.683 155.698 125.386ZM153.571 125.28C153.571 124.853 153.483 124.478 153.307 124.155C153.131 123.833 152.885 123.584 152.569 123.408C152.252 123.232 151.886 123.145 151.47 123.145C151.048 123.145 150.682 123.232 150.371 123.408C150.061 123.584 149.818 123.833 149.642 124.155C149.472 124.478 149.387 124.853 149.387 125.28C149.387 125.714 149.472 126.089 149.642 126.405C149.812 126.716 150.055 126.953 150.371 127.117C150.688 127.281 151.06 127.363 151.488 127.363C151.915 127.363 152.284 127.281 152.595 127.117C152.906 126.953 153.146 126.716 153.316 126.405C153.486 126.089 153.571 125.714 153.571 125.28ZM155.408 119.444C155.408 120.083 155.238 120.651 154.898 121.149C154.564 121.647 154.101 122.04 153.509 122.327C152.917 122.608 152.243 122.749 151.488 122.749C150.726 122.749 150.046 122.608 149.449 122.327C148.857 122.04 148.391 121.647 148.051 121.149C147.717 120.651 147.55 120.083 147.55 119.444C147.55 118.683 147.717 118.041 148.051 117.52C148.391 116.992 148.857 116.591 149.449 116.315C150.04 116.04 150.717 115.902 151.479 115.902C152.241 115.902 152.917 116.04 153.509 116.315C154.101 116.591 154.564 116.992 154.898 117.52C155.238 118.041 155.408 118.683 155.408 119.444ZM153.289 119.515C153.289 119.134 153.213 118.8 153.061 118.513C152.914 118.22 152.706 117.991 152.437 117.827C152.167 117.663 151.848 117.581 151.479 117.581C151.11 117.581 150.79 117.66 150.521 117.818C150.251 117.977 150.043 118.199 149.897 118.486C149.75 118.773 149.677 119.116 149.677 119.515C149.677 119.907 149.75 120.25 149.897 120.543C150.043 120.83 150.251 121.056 150.521 121.22C150.796 121.384 151.118 121.466 151.488 121.466C151.857 121.466 152.176 121.384 152.446 121.22C152.715 121.056 152.923 120.83 153.07 120.543C153.216 120.25 153.289 119.907 153.289 119.515ZM160.408 121.519H161.674C162.166 121.519 162.573 121.434 162.895 121.264C163.224 121.094 163.467 120.859 163.625 120.561C163.783 120.262 163.862 119.919 163.862 119.532C163.862 119.128 163.789 118.782 163.643 118.495C163.502 118.202 163.285 117.977 162.992 117.818C162.705 117.66 162.339 117.581 161.894 117.581C161.519 117.581 161.179 117.657 160.874 117.81C160.575 117.956 160.338 118.167 160.162 118.442C159.986 118.712 159.898 119.034 159.898 119.409H157.771C157.771 118.729 157.95 118.126 158.308 117.599C158.665 117.071 159.151 116.658 159.767 116.359C160.388 116.055 161.085 115.902 161.858 115.902C162.685 115.902 163.405 116.04 164.02 116.315C164.642 116.585 165.125 116.989 165.471 117.528C165.816 118.067 165.989 118.735 165.989 119.532C165.989 119.896 165.904 120.265 165.734 120.64C165.564 121.015 165.312 121.357 164.978 121.668C164.644 121.973 164.228 122.222 163.73 122.415C163.232 122.603 162.655 122.696 161.999 122.696H160.408V121.519ZM160.408 123.171V122.011H161.999C162.749 122.011 163.388 122.099 163.915 122.274C164.448 122.45 164.882 122.693 165.216 123.004C165.55 123.309 165.793 123.657 165.945 124.05C166.103 124.442 166.183 124.858 166.183 125.298C166.183 125.896 166.074 126.429 165.857 126.897C165.646 127.36 165.345 127.753 164.952 128.075C164.56 128.397 164.1 128.641 163.572 128.805C163.051 128.969 162.482 129.051 161.867 129.051C161.316 129.051 160.789 128.975 160.285 128.822C159.781 128.67 159.33 128.444 158.932 128.146C158.533 127.841 158.217 127.463 157.982 127.012C157.754 126.555 157.64 126.027 157.64 125.43H159.758C159.758 125.811 159.846 126.147 160.021 126.44C160.203 126.728 160.455 126.953 160.777 127.117C161.105 127.281 161.48 127.363 161.902 127.363C162.348 127.363 162.731 127.284 163.054 127.126C163.376 126.968 163.622 126.733 163.792 126.423C163.968 126.112 164.056 125.737 164.056 125.298C164.056 124.8 163.959 124.396 163.766 124.085C163.572 123.774 163.297 123.546 162.939 123.399C162.582 123.247 162.16 123.171 161.674 123.171H160.408ZM175.665 125.781L179.401 119.365H181.519V128.875H179.401V122.45L175.665 128.875H173.547V119.365H175.665V125.781ZM188.058 124.331H186.229V123.259H187.706C188.081 123.259 188.38 123.209 188.602 123.109C188.831 123.01 188.992 122.872 189.086 122.696C189.185 122.515 189.235 122.304 189.235 122.063C189.235 121.853 189.185 121.653 189.086 121.466C188.992 121.272 188.831 121.114 188.602 120.991C188.374 120.868 188.063 120.807 187.671 120.807C187.349 120.807 187.058 120.859 186.801 120.965C186.549 121.07 186.35 121.217 186.203 121.404C186.057 121.592 185.983 121.809 185.983 122.055H183.865C183.865 121.463 184.032 120.953 184.366 120.525C184.706 120.098 185.16 119.77 185.728 119.541C186.297 119.312 186.921 119.198 187.6 119.198C188.181 119.198 188.702 119.26 189.165 119.383C189.628 119.5 190.02 119.676 190.343 119.91C190.671 120.139 190.92 120.426 191.09 120.771C191.266 121.111 191.353 121.507 191.353 121.958C191.353 122.28 191.277 122.585 191.125 122.872C190.973 123.159 190.753 123.414 190.466 123.637C190.179 123.854 189.83 124.023 189.42 124.146C189.016 124.27 188.561 124.331 188.058 124.331ZM186.229 123.716H188.058C188.62 123.716 189.118 123.771 189.552 123.883C189.985 123.988 190.349 124.146 190.641 124.357C190.934 124.568 191.154 124.829 191.301 125.14C191.453 125.444 191.529 125.796 191.529 126.194C191.529 126.64 191.433 127.041 191.239 127.398C191.052 127.75 190.782 128.049 190.431 128.295C190.085 128.541 189.672 128.729 189.191 128.857C188.711 128.986 188.181 129.051 187.6 129.051C186.968 129.051 186.352 128.945 185.755 128.734C185.163 128.523 184.674 128.198 184.287 127.759C183.906 127.313 183.716 126.748 183.716 126.062H185.834C185.834 126.303 185.907 126.528 186.054 126.739C186.2 126.95 186.411 127.123 186.686 127.258C186.962 127.387 187.293 127.451 187.68 127.451C188.078 127.451 188.403 127.39 188.655 127.267C188.907 127.138 189.095 126.971 189.218 126.766C189.341 126.555 189.402 126.332 189.402 126.098C189.402 125.781 189.341 125.526 189.218 125.333C189.095 125.14 188.907 124.999 188.655 124.911C188.403 124.817 188.087 124.771 187.706 124.771H186.229V123.716ZM200.634 122.925L198.946 122.512L199.641 116.078H206.54V117.871H201.399L201.047 121.009C201.246 120.892 201.522 120.777 201.873 120.666C202.225 120.549 202.626 120.49 203.077 120.49C203.681 120.49 204.22 120.59 204.694 120.789C205.175 120.982 205.582 121.267 205.916 121.642C206.25 122.011 206.505 122.462 206.681 122.995C206.857 123.522 206.944 124.117 206.944 124.779C206.944 125.371 206.857 125.925 206.681 126.44C206.511 126.956 206.253 127.41 205.907 127.803C205.562 128.195 205.125 128.503 204.598 128.726C204.076 128.942 203.458 129.051 202.743 129.051C202.21 129.051 201.697 128.975 201.205 128.822C200.719 128.664 200.282 128.433 199.896 128.128C199.509 127.817 199.198 127.437 198.964 126.985C198.73 126.528 198.595 126.004 198.56 125.412H200.634C200.687 125.828 200.801 126.183 200.977 126.476C201.158 126.763 201.399 126.982 201.697 127.135C201.996 127.287 202.342 127.363 202.735 127.363C203.092 127.363 203.4 127.302 203.657 127.179C203.915 127.05 204.129 126.868 204.299 126.634C204.475 126.394 204.604 126.112 204.686 125.79C204.774 125.468 204.818 125.11 204.818 124.718C204.818 124.343 204.768 124 204.668 123.689C204.574 123.379 204.431 123.109 204.237 122.881C204.05 122.652 203.813 122.477 203.526 122.354C203.238 122.225 202.907 122.16 202.532 122.16C202.028 122.16 201.642 122.233 201.372 122.38C201.109 122.526 200.862 122.708 200.634 122.925Z" fill="black"/>
<g clip-path="url(#clip0_1_1316)">
<path d="M133.879 56.6411H132.669V58.4556H133.879V56.6411Z" fill="#333333"/>
<path d="M124.202 46.3589C122.407 46.3589 120.917 47.6696 120.627 49.3831H118.153H115.286C113.199 49.3831 111.5 51.0821 111.5 53.1694V58.1532C111.5 59.3206 112.45 60.2702 113.617 60.2702C113.943 60.2702 114.248 60.1897 114.524 60.0579V69.0403C114.524 70.2077 115.474 71.1573 116.641 71.1573C117.234 71.1573 117.769 70.9111 118.153 70.5174C118.538 70.9111 119.073 71.1573 119.665 71.1573C119.991 71.1573 120.297 71.0768 120.573 70.945V73.2742C120.573 74.4415 121.522 75.3911 122.69 75.3911C123.282 75.3911 123.817 75.145 124.202 74.7512C124.586 75.145 125.121 75.3911 125.714 75.3911C126.881 75.3911 127.831 74.4415 127.831 73.2742H126.621C126.621 73.7744 126.214 74.1815 125.714 74.1815C125.214 74.1815 124.806 73.7744 124.806 73.2742V65.1089H123.597V73.2742C123.597 73.7744 123.19 74.1815 122.69 74.1815C122.189 74.1815 121.782 73.7744 121.782 73.2742V62.3871V62.0847V56.6411H120.573V62.0847V62.3871C120.573 62.8873 120.166 63.2944 119.665 63.2944C119.165 63.2944 118.758 62.8873 118.758 62.3871V60.875V57.4032C118.758 55.9825 119.914 54.8266 121.335 54.8266H127.069V53.617H124.202H121.782V52.6855C122.425 53.2625 123.271 53.617 124.202 53.617C126.203 53.617 127.831 51.9893 127.831 49.9879C127.831 47.9865 126.203 46.3589 124.202 46.3589ZM119.665 64.504C119.991 64.504 120.297 64.4236 120.573 64.2917V69.0403C120.573 69.5405 120.166 69.9476 119.665 69.9476C119.165 69.9476 118.758 69.5405 118.758 69.0403V64.2917C119.034 64.4236 119.339 64.504 119.665 64.504ZM117.548 57.4032V60.875V62.3871V69.0403C117.548 69.5405 117.141 69.9476 116.641 69.9476C116.141 69.9476 115.734 69.5405 115.734 69.0403V58.1532V57.8508V52.4073H114.524V57.8508V58.1532C114.524 58.6534 114.117 59.0605 113.617 59.0605C113.117 59.0605 112.71 58.6534 112.71 58.1532V53.1694C112.71 51.7486 113.866 50.5928 115.286 50.5928H120.628C120.744 51.2835 121.056 51.9071 121.505 52.4073H120.573V53.6938C118.849 54.0476 117.548 55.5766 117.548 57.4032ZM124.202 52.4073C122.867 52.4073 121.782 51.3222 121.782 49.9879C121.782 48.6536 122.867 47.5686 124.202 47.5686C125.536 47.5686 126.621 48.6536 126.621 49.9879C126.621 51.3222 125.536 52.4073 124.202 52.4073Z" fill="#333333"/>
<path d="M127.831 56.6411H126.621V58.4556H127.831V56.6411Z" fill="#333333"/>
<path d="M121.782 45.754C121.782 43.7526 120.155 42.125 118.153 42.125C116.152 42.125 114.524 43.7526 114.524 45.754C114.524 47.7554 116.152 49.3831 118.153 49.3831C120.155 49.3831 121.782 47.7554 121.782 45.754ZM118.153 48.1734C116.819 48.1734 115.734 47.0883 115.734 45.754C115.734 44.4198 116.819 43.3347 118.153 43.3347C119.487 43.3347 120.573 44.4198 120.573 45.754C120.573 47.0883 119.487 48.1734 118.153 48.1734Z" fill="#333333"/>
<path d="M145.976 45.754C145.976 43.7526 144.348 42.125 142.347 42.125C140.345 42.125 138.718 43.7526 138.718 45.754C138.718 47.7554 140.345 49.3831 142.347 49.3831C144.348 49.3831 145.976 47.7554 145.976 45.754ZM142.347 48.1734C141.013 48.1734 139.927 47.0883 139.927 45.754C139.927 44.4198 141.013 43.3347 142.347 43.3347C143.681 43.3347 144.766 44.4198 144.766 45.754C144.766 47.0883 143.681 48.1734 142.347 48.1734Z" fill="#333333"/>
<path d="M145.214 49.3831H142.347H139.873C139.584 47.6696 138.094 46.3589 136.298 46.3589C134.297 46.3589 132.669 47.9865 132.669 49.9879C132.669 51.9893 134.297 53.617 136.298 53.617C137.229 53.617 138.075 53.2625 138.718 52.6855V53.617H136.298H133.431V54.8266H139.165C140.586 54.8266 141.742 55.9825 141.742 57.4032V60.875V62.3871C141.742 62.8873 141.335 63.2944 140.835 63.2944C140.334 63.2944 139.927 62.8873 139.927 62.3871V62.0847V56.6411H138.718V62.0847V62.3871V73.2742C138.718 73.7744 138.311 74.1815 137.81 74.1815C137.31 74.1815 136.903 73.7744 136.903 73.2742V65.1089H135.694V73.2742C135.694 73.7744 135.286 74.1815 134.786 74.1815C134.286 74.1815 133.879 73.7744 133.879 73.2742H132.669C132.669 74.4415 133.619 75.3911 134.786 75.3911C135.379 75.3911 135.914 75.145 136.298 74.7512C136.683 75.145 137.218 75.3911 137.81 75.3911C138.978 75.3911 139.927 74.4415 139.927 73.2742V70.945C140.203 71.0768 140.509 71.1573 140.835 71.1573C141.427 71.1573 141.962 70.9111 142.347 70.5174C142.731 70.9111 143.266 71.1573 143.859 71.1573C145.026 71.1573 145.976 70.2077 145.976 69.0403V60.0579C146.252 60.1897 146.557 60.2702 146.883 60.2702C148.05 60.2702 149 59.3206 149 58.1532V53.1694C149 51.0821 147.301 49.3831 145.214 49.3831ZM136.298 52.4073C134.964 52.4073 133.879 51.3222 133.879 49.9879C133.879 48.6536 134.964 47.5686 136.298 47.5686C137.633 47.5686 138.718 48.6536 138.718 49.9879C138.718 51.3222 137.633 52.4073 136.298 52.4073ZM140.835 69.9476C140.334 69.9476 139.927 69.5405 139.927 69.0403V64.2917C140.203 64.4236 140.509 64.504 140.835 64.504C141.161 64.504 141.466 64.4236 141.742 64.2917V69.0403C141.742 69.5405 141.335 69.9476 140.835 69.9476ZM147.79 58.1532C147.79 58.6534 147.383 59.0605 146.883 59.0605C146.383 59.0605 145.976 58.6534 145.976 58.1532V57.8508V52.4073H144.766V57.8508V58.1532V69.0403C144.766 69.5405 144.359 69.9476 143.859 69.9476C143.359 69.9476 142.952 69.5405 142.952 69.0403V62.3871V60.875V57.4032C142.952 55.5766 141.651 54.0476 139.927 53.6944V52.4073H138.996C139.445 51.9071 139.756 51.2835 139.873 50.5928H145.214C146.635 50.5928 147.791 51.7486 147.791 53.1694V58.1532H147.79Z" fill="#333333"/>
<path d="M133.879 54.2217C133.879 52.2203 132.251 50.5927 130.25 50.5927C128.249 50.5927 126.621 52.2203 126.621 54.2217C126.621 56.2232 128.249 57.8508 130.25 57.8508C132.251 57.8508 133.879 56.2232 133.879 54.2217Z" fill="#F9BA48"/>
<path d="M133.117 57.8508H130.25H127.383C125.296 57.8508 123.597 59.5498 123.597 61.6371V66.6209C123.597 67.7883 124.546 68.7379 125.714 68.7379C126.04 68.7379 126.345 68.6574 126.621 68.5256V77.508C126.621 78.6754 127.571 79.625 128.738 79.625C129.331 79.625 129.865 79.3788 130.25 78.985C130.635 79.3788 131.169 79.625 131.762 79.625C132.929 79.625 133.879 78.6754 133.879 77.508V68.5256C134.155 68.6574 134.46 68.7379 134.786 68.7379C135.954 68.7379 136.903 67.7883 136.903 66.6209V61.6371C136.903 59.5498 135.204 57.8508 133.117 57.8508Z" fill="#F9BA48"/>
</g>
</g>
<defs>
<filter id="filter0_d_1_1316" x="0" y="0" width="260" height="184" filterUnits="userSpaceOnUse" color-interpolation-filters="sRGB">
<feFlood flood-opacity="0" result="BackgroundImageFix"/>
<feColorMatrix in="SourceAlpha" type="matrix" values="0 0 0 0 0 0 0 0 0 0 0 0 0 0 0 0 0 0 127 0" result="hardAlpha"/>
<feOffset dy="4"/>
<feGaussianBlur stdDeviation="10"/>
<feComposite in2="hardAlpha" operator="out"/>
<feColorMatrix type="matrix" values="0 0 0 0 0.176471 0 0 0 0 0.47451 0 0 0 0 0.47451 0 0 0 0.5 0"/>
<feBlend mode="normal" in2="BackgroundImageFix" result="effect1_dropShadow_1_1316"/>
<feBlend mode="normal" in="SourceGraphic" in2="effect1_dropShadow_1_1316" result="shape"/>
</filter>
<clipPath id="clip0_1_1316">
<rect width="37.5" height="37.5" fill="white" transform="translate(111.5 42.125)"/>
</clipPath>
</defs>
</svg>
