<svg width="260" height="184" viewBox="0 0 260 184" fill="none" xmlns="http://www.w3.org/2000/svg">
<g filter="url(#filter0_d_1_1317)">
<rect x="20" y="16" width="220" height="144" rx="5" fill="white" shape-rendering="crispEdges"/>
<path d="M71.0491 109.422V119.375H69.3401V110.789H64.9172V119.375H63.2082V109.422H71.0491ZM72.915 115.759V115.602C72.915 115.068 72.9925 114.574 73.1474 114.118C73.3024 113.658 73.5257 113.259 73.8173 112.922C74.1136 112.58 74.4736 112.316 74.8974 112.129C75.3258 111.938 75.8089 111.842 76.3466 111.842C76.889 111.842 77.372 111.938 77.7959 112.129C78.2242 112.316 78.5866 112.58 78.8828 112.922C79.179 113.259 79.4046 113.658 79.5595 114.118C79.7145 114.574 79.792 115.068 79.792 115.602V115.759C79.792 116.292 79.7145 116.786 79.5595 117.242C79.4046 117.698 79.179 118.097 78.8828 118.438C78.5866 118.776 78.2265 119.04 77.8027 119.231C77.3789 119.418 76.8981 119.512 76.3603 119.512C75.818 119.512 75.3326 119.418 74.9043 119.231C74.4804 119.04 74.1204 118.776 73.8242 118.438C73.528 118.097 73.3024 117.698 73.1474 117.242C72.9925 116.786 72.915 116.292 72.915 115.759ZM74.5625 115.602V115.759C74.5625 116.091 74.5966 116.406 74.665 116.702C74.7334 116.998 74.8405 117.258 74.9863 117.481C75.1321 117.705 75.319 117.88 75.5468 118.008C75.7747 118.135 76.0459 118.199 76.3603 118.199C76.6657 118.199 76.93 118.135 77.1533 118.008C77.3811 117.88 77.568 117.705 77.7138 117.481C77.8597 117.258 77.9668 116.998 78.0351 116.702C78.108 116.406 78.1445 116.091 78.1445 115.759V115.602C78.1445 115.273 78.108 114.964 78.0351 114.672C77.9668 114.376 77.8574 114.114 77.707 113.886C77.5612 113.658 77.3743 113.48 77.1464 113.353C76.9231 113.22 76.6565 113.154 76.3466 113.154C76.0367 113.154 75.7679 113.22 75.54 113.353C75.3167 113.48 75.1321 113.658 74.9863 113.886C74.8405 114.114 74.7334 114.376 74.665 114.672C74.5966 114.964 74.5625 115.273 74.5625 115.602ZM82.3005 111.979H83.9479L83.8659 114.583C83.8431 115.34 83.7565 115.989 83.6061 116.531C83.4557 117.074 83.2598 117.532 83.0182 117.905C82.7767 118.274 82.5033 118.577 82.1979 118.814C81.8972 119.051 81.5804 119.238 81.2477 119.375H80.7624V118.076L80.9948 118.062C81.1908 117.853 81.3594 117.643 81.5007 117.434C81.6465 117.219 81.7695 116.985 81.8698 116.729C81.9701 116.47 82.0475 116.167 82.1022 115.82C82.1615 115.474 82.2002 115.062 82.2184 114.583L82.3005 111.979ZM82.738 111.979H87.4274V119.375H85.7868V113.373H82.738V111.979ZM80.3864 118.062H88.4391V121.576H86.7917V119.375H82.0544V121.576H80.3796L80.3864 118.062ZM94.0648 117.892V114.364C94.0648 114.1 94.017 113.872 93.9213 113.681C93.8256 113.489 93.6798 113.341 93.4838 113.236C93.2924 113.132 93.0508 113.079 92.7592 113.079C92.4903 113.079 92.2579 113.125 92.0619 113.216C91.866 113.307 91.7133 113.43 91.6039 113.585C91.4945 113.74 91.4398 113.915 91.4398 114.111H89.7992C89.7992 113.82 89.8699 113.537 90.0111 113.264C90.1524 112.99 90.3575 112.746 90.6264 112.532C90.8952 112.318 91.2165 112.149 91.5902 112.026C91.9639 111.903 92.3832 111.842 92.848 111.842C93.404 111.842 93.8962 111.935 94.3246 112.122C94.7576 112.309 95.0971 112.591 95.3432 112.97C95.5938 113.343 95.7191 113.813 95.7191 114.378V117.666C95.7191 118.003 95.7419 118.306 95.7875 118.575C95.8376 118.84 95.9083 119.07 95.9994 119.266V119.375H94.3109C94.2335 119.197 94.1719 118.972 94.1264 118.698C94.0854 118.42 94.0648 118.151 94.0648 117.892ZM94.3041 114.877L94.3178 115.896H93.1352C92.8298 115.896 92.5609 115.925 92.3285 115.984C92.0961 116.039 91.9024 116.121 91.7475 116.23C91.5925 116.34 91.4763 116.472 91.3988 116.627C91.3214 116.782 91.2826 116.957 91.2826 117.153C91.2826 117.349 91.3282 117.529 91.4193 117.693C91.5105 117.853 91.6426 117.978 91.8158 118.069C91.9936 118.16 92.2077 118.206 92.4584 118.206C92.7956 118.206 93.0896 118.138 93.3402 118.001C93.5954 117.86 93.796 117.689 93.9418 117.488C94.0876 117.283 94.1651 117.09 94.1742 116.907L94.7074 117.639C94.6527 117.826 94.5593 118.026 94.4272 118.24C94.295 118.454 94.1218 118.66 93.9076 118.855C93.698 119.047 93.4451 119.204 93.1488 119.327C92.8572 119.45 92.5199 119.512 92.1371 119.512C91.654 119.512 91.2234 119.416 90.8451 119.225C90.4669 119.029 90.1706 118.767 89.9564 118.438C89.7423 118.106 89.6352 117.73 89.6352 117.311C89.6352 116.919 89.7081 116.572 89.8539 116.271C90.0043 115.966 90.223 115.711 90.5102 115.506C90.8018 115.301 91.1573 115.146 91.5766 115.041C91.9958 114.932 92.4744 114.877 93.0121 114.877H94.3041ZM101.044 111.979V119.375H99.3898V111.979H101.044ZM103.471 111.979V113.277H97.004V111.979H103.471ZM106.075 114.33H108.256C108.894 114.33 109.436 114.437 109.883 114.651C110.329 114.866 110.669 115.164 110.901 115.547C111.138 115.925 111.257 116.358 111.257 116.846C111.257 117.206 111.191 117.541 111.058 117.851C110.926 118.156 110.73 118.423 110.471 118.65C110.215 118.878 109.901 119.056 109.527 119.184C109.158 119.311 108.734 119.375 108.256 119.375H104.981V111.979H106.636V118.069H108.256C108.584 118.069 108.846 118.012 109.042 117.898C109.238 117.785 109.379 117.636 109.466 117.454C109.557 117.272 109.602 117.078 109.602 116.873C109.602 116.663 109.557 116.465 109.466 116.278C109.379 116.091 109.238 115.939 109.042 115.82C108.846 115.702 108.584 115.643 108.256 115.643H106.075V114.33ZM116.308 115.759V115.602C116.308 115.068 116.385 114.574 116.54 114.118C116.695 113.658 116.919 113.259 117.21 112.922C117.506 112.58 117.866 112.316 118.29 112.129C118.719 111.938 119.202 111.842 119.74 111.842C120.282 111.842 120.765 111.938 121.189 112.129C121.617 112.316 121.979 112.58 122.276 112.922C122.572 113.259 122.797 113.658 122.952 114.118C123.107 114.574 123.185 115.068 123.185 115.602V115.759C123.185 116.292 123.107 116.786 122.952 117.242C122.797 117.698 122.572 118.097 122.276 118.438C121.979 118.776 121.619 119.04 121.196 119.231C120.772 119.418 120.291 119.512 119.753 119.512C119.211 119.512 118.726 119.418 118.297 119.231C117.873 119.04 117.513 118.776 117.217 118.438C116.921 118.097 116.695 117.698 116.54 117.242C116.385 116.786 116.308 116.292 116.308 115.759ZM117.955 115.602V115.759C117.955 116.091 117.99 116.406 118.058 116.702C118.126 116.998 118.233 117.258 118.379 117.481C118.525 117.705 118.712 117.88 118.94 118.008C119.168 118.135 119.439 118.199 119.753 118.199C120.059 118.199 120.323 118.135 120.546 118.008C120.774 117.88 120.961 117.705 121.107 117.481C121.253 117.258 121.36 116.998 121.428 116.702C121.501 116.406 121.537 116.091 121.537 115.759V115.602C121.537 115.273 121.501 114.964 121.428 114.672C121.36 114.376 121.25 114.114 121.1 113.886C120.954 113.658 120.767 113.48 120.539 113.353C120.316 113.22 120.049 113.154 119.74 113.154C119.43 113.154 119.161 113.22 118.933 113.353C118.71 113.48 118.525 113.658 118.379 113.886C118.233 114.114 118.126 114.376 118.058 114.672C117.99 114.964 117.955 115.273 117.955 115.602ZM129.487 108.738H130.82C130.82 109.144 130.763 109.479 130.649 109.743C130.54 110.003 130.376 110.217 130.157 110.386C129.943 110.55 129.676 110.682 129.357 110.782C129.043 110.882 128.678 110.974 128.264 111.056C127.881 111.138 127.535 111.268 127.225 111.445C126.919 111.618 126.662 111.862 126.452 112.177C126.247 112.487 126.099 112.885 126.008 113.373C125.917 113.861 125.889 114.455 125.926 115.157V115.622L124.62 115.738V115.273C124.62 114.403 124.7 113.644 124.859 112.997C125.019 112.35 125.244 111.805 125.536 111.363C125.832 110.917 126.183 110.561 126.589 110.297C126.999 110.033 127.455 109.85 127.956 109.75C128.298 109.677 128.583 109.604 128.811 109.531C129.038 109.454 129.207 109.356 129.316 109.237C129.43 109.114 129.487 108.948 129.487 108.738ZM128.332 112.396C128.824 112.396 129.262 112.482 129.645 112.655C130.027 112.824 130.351 113.061 130.615 113.366C130.88 113.672 131.08 114.032 131.217 114.446C131.358 114.861 131.429 115.312 131.429 115.8V115.95C131.429 116.461 131.354 116.932 131.203 117.365C131.053 117.798 130.832 118.176 130.54 118.5C130.248 118.819 129.891 119.07 129.467 119.252C129.048 119.43 128.567 119.519 128.024 119.519C127.487 119.519 127.006 119.425 126.582 119.238C126.158 119.051 125.8 118.792 125.509 118.459C125.217 118.122 124.996 117.728 124.846 117.276C124.695 116.825 124.62 116.333 124.62 115.8V115.649C124.616 115.554 124.641 115.46 124.695 115.369C124.755 115.278 124.825 115.18 124.907 115.075C124.989 114.97 125.062 114.85 125.126 114.713C125.354 114.253 125.623 113.849 125.933 113.503C126.243 113.157 126.596 112.885 126.992 112.689C127.393 112.493 127.84 112.396 128.332 112.396ZM128.011 113.701C127.601 113.701 127.266 113.799 127.006 113.995C126.751 114.187 126.562 114.442 126.438 114.761C126.32 115.08 126.261 115.426 126.261 115.8V115.95C126.261 116.256 126.295 116.545 126.363 116.818C126.432 117.092 126.534 117.333 126.671 117.543C126.812 117.748 126.994 117.91 127.218 118.028C127.446 118.147 127.715 118.206 128.024 118.206C128.339 118.206 128.605 118.147 128.824 118.028C129.048 117.91 129.228 117.748 129.364 117.543C129.506 117.333 129.608 117.092 129.672 116.818C129.74 116.545 129.774 116.256 129.774 115.95V115.8C129.774 115.517 129.74 115.251 129.672 115C129.608 114.749 129.506 114.528 129.364 114.337C129.223 114.141 129.041 113.986 128.817 113.872C128.594 113.758 128.325 113.701 128.011 113.701ZM135.94 111.979V113.291H132.372V111.979H135.94ZM135.626 114.33H137.8C138.442 114.33 138.984 114.437 139.426 114.651C139.873 114.866 140.213 115.164 140.445 115.547C140.682 115.925 140.801 116.358 140.801 116.846C140.801 117.206 140.734 117.541 140.602 117.851C140.47 118.156 140.276 118.423 140.021 118.65C139.766 118.878 139.452 119.056 139.078 119.184C138.704 119.311 138.278 119.375 137.8 119.375H134.525V111.979H136.179V118.069H137.8C138.128 118.069 138.39 118.012 138.586 117.898C138.782 117.785 138.923 117.636 139.009 117.454C139.101 117.272 139.146 117.078 139.146 116.873C139.146 116.663 139.101 116.465 139.009 116.278C138.923 116.091 138.782 115.939 138.586 115.82C138.39 115.702 138.128 115.643 137.8 115.643H135.626V114.33ZM143.822 115.759H145.531L143.432 119.375H141.73L143.822 115.759ZM145.025 111.979H148.197V119.375H146.556V113.277H145.025C144.715 113.277 144.46 113.332 144.259 113.441C144.059 113.546 143.911 113.685 143.815 113.858C143.719 114.027 143.671 114.2 143.671 114.378C143.671 114.556 143.715 114.727 143.801 114.891C143.892 115.055 144.031 115.189 144.218 115.294C144.41 115.399 144.649 115.451 144.936 115.451H147.11V116.654H144.936C144.48 116.654 144.072 116.597 143.712 116.483C143.352 116.365 143.047 116.203 142.796 115.998C142.546 115.788 142.354 115.545 142.222 115.267C142.09 114.984 142.024 114.676 142.024 114.344C142.024 114.002 142.092 113.688 142.229 113.4C142.366 113.113 142.562 112.863 142.817 112.648C143.077 112.434 143.391 112.27 143.76 112.156C144.134 112.038 144.555 111.979 145.025 111.979ZM153.904 116.21H151.539L151.526 115.048H153.467C153.786 115.048 154.048 115.016 154.253 114.952C154.463 114.888 154.618 114.793 154.718 114.665C154.818 114.533 154.868 114.373 154.868 114.187C154.868 114.032 154.839 113.897 154.779 113.783C154.72 113.665 154.629 113.569 154.506 113.496C154.388 113.419 154.237 113.364 154.055 113.332C153.877 113.296 153.67 113.277 153.433 113.277H152.086V119.375H150.439V111.979H153.433C153.907 111.979 154.333 112.02 154.711 112.102C155.094 112.184 155.42 112.309 155.689 112.478C155.958 112.646 156.163 112.86 156.304 113.12C156.45 113.375 156.523 113.676 156.523 114.022C156.523 114.25 156.472 114.465 156.372 114.665C156.277 114.866 156.133 115.043 155.942 115.198C155.75 115.353 155.515 115.481 155.237 115.581C154.959 115.677 154.64 115.736 154.28 115.759L153.904 116.21ZM153.904 119.375H151.061L151.717 118.076H153.904C154.196 118.076 154.438 118.04 154.629 117.967C154.82 117.894 154.962 117.789 155.053 117.652C155.149 117.511 155.196 117.345 155.196 117.153C155.196 116.957 155.151 116.789 155.06 116.647C154.969 116.506 154.827 116.399 154.636 116.326C154.449 116.249 154.205 116.21 153.904 116.21H152.025L152.038 115.048H154.274L154.745 115.499C155.215 115.531 155.604 115.631 155.914 115.8C156.224 115.968 156.457 116.18 156.611 116.436C156.766 116.691 156.844 116.969 156.844 117.27C156.844 117.616 156.778 117.921 156.646 118.186C156.518 118.45 156.327 118.671 156.071 118.849C155.821 119.022 155.513 119.154 155.149 119.245C154.784 119.332 154.369 119.375 153.904 119.375ZM163.516 111.979V113.291H159.906V111.979H163.516ZM164.808 111.979V119.375H163.16V111.979H164.808ZM159.503 111.979H161.13L160.932 115.636C160.904 116.178 160.849 116.657 160.767 117.071C160.69 117.481 160.585 117.835 160.453 118.131C160.321 118.423 160.159 118.66 159.968 118.842C159.776 119.024 159.553 119.159 159.298 119.245C159.043 119.332 158.755 119.375 158.436 119.375H157.924L157.917 118.021L158.177 118.001C158.345 117.987 158.491 117.944 158.614 117.871C158.737 117.794 158.842 117.684 158.929 117.543C159.02 117.402 159.093 117.219 159.147 116.996C159.207 116.773 159.252 116.508 159.284 116.203C159.321 115.898 159.348 115.542 159.366 115.137L159.503 111.979ZM170.098 119.512C169.551 119.512 169.057 119.423 168.615 119.245C168.177 119.063 167.804 118.81 167.494 118.486C167.188 118.163 166.954 117.782 166.79 117.345C166.626 116.907 166.544 116.436 166.544 115.93V115.656C166.544 115.077 166.628 114.553 166.796 114.084C166.965 113.615 167.2 113.214 167.501 112.881C167.801 112.544 168.157 112.286 168.567 112.108C168.977 111.931 169.421 111.842 169.9 111.842C170.429 111.842 170.891 111.931 171.288 112.108C171.684 112.286 172.012 112.537 172.272 112.86C172.536 113.179 172.732 113.56 172.86 114.002C172.992 114.444 173.058 114.932 173.058 115.465V116.169H167.343V114.986H171.431V114.856C171.422 114.56 171.363 114.282 171.254 114.022C171.149 113.763 170.987 113.553 170.768 113.394C170.549 113.234 170.258 113.154 169.893 113.154C169.62 113.154 169.376 113.214 169.162 113.332C168.952 113.446 168.777 113.612 168.635 113.831C168.494 114.05 168.385 114.314 168.307 114.624C168.234 114.929 168.198 115.273 168.198 115.656V115.93C168.198 116.253 168.241 116.554 168.328 116.832C168.419 117.105 168.551 117.345 168.724 117.55C168.897 117.755 169.107 117.917 169.353 118.035C169.599 118.149 169.879 118.206 170.194 118.206C170.59 118.206 170.944 118.126 171.254 117.967C171.563 117.807 171.832 117.582 172.06 117.29L172.928 118.131C172.769 118.363 172.561 118.587 172.306 118.801C172.051 119.01 171.739 119.181 171.37 119.313C171.005 119.446 170.581 119.512 170.098 119.512ZM179.675 115.068V116.367H175.847V115.068H179.675ZM176.326 111.979V119.375H174.678V111.979H176.326ZM180.865 111.979V119.375H179.217V111.979H180.865ZM184.604 116.969L187.509 111.979H189.156V119.375H187.509V114.378L184.604 119.375H182.956V111.979H184.604V116.969ZM194.44 119.512C193.893 119.512 193.399 119.423 192.957 119.245C192.519 119.063 192.146 118.81 191.836 118.486C191.53 118.163 191.296 117.782 191.132 117.345C190.968 116.907 190.885 116.436 190.885 115.93V115.656C190.885 115.077 190.97 114.553 191.138 114.084C191.307 113.615 191.542 113.214 191.843 112.881C192.143 112.544 192.499 112.286 192.909 112.108C193.319 111.931 193.763 111.842 194.242 111.842C194.771 111.842 195.233 111.931 195.63 112.108C196.026 112.286 196.354 112.537 196.614 112.86C196.878 113.179 197.074 113.56 197.202 114.002C197.334 114.444 197.4 114.932 197.4 115.465V116.169H191.685V114.986H195.773V114.856C195.764 114.56 195.705 114.282 195.595 114.022C195.491 113.763 195.329 113.553 195.11 113.394C194.891 113.234 194.6 113.154 194.235 113.154C193.962 113.154 193.718 113.214 193.504 113.332C193.294 113.446 193.119 113.612 192.977 113.831C192.836 114.05 192.727 114.314 192.649 114.624C192.576 114.929 192.54 115.273 192.54 115.656V115.93C192.54 116.253 192.583 116.554 192.67 116.832C192.761 117.105 192.893 117.345 193.066 117.55C193.239 117.755 193.449 117.917 193.695 118.035C193.941 118.149 194.221 118.206 194.536 118.206C194.932 118.206 195.286 118.126 195.595 117.967C195.905 117.807 196.174 117.582 196.402 117.29L197.27 118.131C197.111 118.363 196.903 118.587 196.648 118.801C196.393 119.01 196.081 119.181 195.712 119.313C195.347 119.446 194.923 119.512 194.44 119.512Z" fill="#333333"/>
<path d="M135.887 71.4078V74.2605H124.545V71.4078H135.887ZM131.773 66.9186V78.9657H128.67V66.9186H131.773Z" fill="#0A9764"/>
<circle cx="130.25" cy="72.375" r="18.4267" stroke="#0A9764" stroke-width="0.646552"/>
</g>
<defs>
<filter id="filter0_d_1_1317" x="0" y="0" width="260" height="184" filterUnits="userSpaceOnUse" color-interpolation-filters="sRGB">
<feFlood flood-opacity="0" result="BackgroundImageFix"/>
<feColorMatrix in="SourceAlpha" type="matrix" values="0 0 0 0 0 0 0 0 0 0 0 0 0 0 0 0 0 0 127 0" result="hardAlpha"/>
<feOffset dy="4"/>
<feGaussianBlur stdDeviation="10"/>
<feComposite in2="hardAlpha" operator="out"/>
<feColorMatrix type="matrix" values="0 0 0 0 0.176471 0 0 0 0 0.47451 0 0 0 0 0.47451 0 0 0 0.5 0"/>
<feBlend mode="normal" in2="BackgroundImageFix" result="effect1_dropShadow_1_1317"/>
<feBlend mode="normal" in="SourceGraphic" in2="effect1_dropShadow_1_1317" result="shape"/>
</filter>
</defs>
</svg>
