<svg width="102" height="55" viewBox="0 0 102 55" fill="none" xmlns="http://www.w3.org/2000/svg">
<path d="M18.6028 43.3676L27.9029 38.3376L18.6028 32.8563L9.30054 38.3376V49.298L18.6028 54.7792V43.3676Z" fill="#F7EEEC"/>
<path d="M27.9032 16.4408V5.48047L18.6031 9.87125L9.30078 5.48047V16.4408L18.6031 21.9221L27.9032 16.4408Z" fill="#F7EEEC"/>
<path d="M18.6024 32.8713V21.9088L9.30011 16.4297L0 21.9088L9.30011 26.6114V38.3504L18.6024 32.8713Z" fill="#3BAEAB"/>
<path d="M27.9029 5.48128L18.6028 9.87206L9.30054 5.48128L18.6028 0L27.9029 5.48128Z" fill="#3BAEAB"/>
<path d="M27.9017 38.3398L18.6016 43.3699V54.7815L27.9017 49.3002V38.3398Z" fill="#3BAEAB"/>
<path d="M9.30011 38.3483V26.6093L0 21.9066V32.8692L9.30011 38.3483Z" fill="#F7EEEC"/>
<path d="M32.955 29.1499C32.6082 31.0412 30.935 32.6891 28.5358 32.6891C25.8309 32.6891 23.4316 30.6408 23.4316 27.1215C23.4316 23.8345 25.768 21.6602 28.2908 21.6602C31.3641 21.6602 33.1696 23.7704 33.1696 27.0574C33.1761 27.3213 33.1557 27.5852 33.1089 27.8449H25.8092C25.8206 28.5725 26.1138 29.266 26.6247 29.7738C27.1356 30.2815 27.8227 30.5622 28.5358 30.5545C29.9705 30.5545 30.4864 29.7825 30.7703 29.1455L32.955 29.1499ZM30.7768 26.0377C30.7356 24.8211 29.9575 23.7328 28.3169 23.7328C27.6985 23.7252 27.101 23.9601 26.6473 24.3889C26.1937 24.8178 25.9185 25.4079 25.8786 26.0377H30.7768Z" fill="#3BAEAB"/>
<path d="M34.2031 32.3701V30.2157L39.2661 24.1571H34.305V21.9805H42.2635V24.073L37.1399 30.1935H42.3675V32.3701H34.2031Z" fill="#3BAEAB"/>
<path d="M45.4349 36.5729L47.8341 31.1336L43.5645 21.9805H46.2498L49.1194 28.5523L51.8112 21.9805H54.334L47.9793 36.5795L45.4349 36.5729Z" fill="#3BAEAB"/>
<path d="M64.1842 21.7646C62.6388 21.7646 61.4836 22.5012 60.9895 23.386V21.9969H58.6791V36.596H61.0502V31.0881C61.566 31.8668 62.6583 32.4972 64.1018 32.4972C66.9887 32.4972 68.8245 30.1834 68.8245 27.111C68.8245 24.0806 67.1534 21.7646 64.1842 21.7646ZM63.7312 30.3316C62.1642 30.3316 61.0307 29.0686 61.0307 27.111C61.0307 25.1954 62.1642 23.9324 63.7312 23.9324C65.3393 23.9324 66.4317 25.1954 66.4317 27.111C66.4317 29.0686 65.3198 30.3316 63.7312 30.3316Z" fill="#3BAEAB"/>
<path d="M74.2258 21.6761C71.7507 21.6761 70.6128 22.9547 70.201 24.1713H72.7542C72.7542 24.1713 72.9882 23.6758 74.2453 23.6758C75.5652 23.6758 76.1439 24.3703 76.1439 25.2242C76.1439 25.5825 75.9792 25.8878 75.4005 25.9608L72.8235 26.3744C71.1113 26.6266 69.7892 27.6374 69.7892 29.4712C69.7892 31.0925 71.0896 32.5679 73.192 32.5679C74.8218 32.5679 75.8101 31.7252 76.2848 30.9466V32.2516H78.4825V25.2927C78.4023 23.344 77.2059 21.6761 74.2258 21.6761ZM76.1352 27.9582C76.1526 29.5066 74.7915 30.6413 73.6471 30.6413C72.7 30.6413 72.1841 30.0109 72.1841 29.3141C72.1841 28.4713 72.7823 28.0511 73.5236 27.925L76.1439 27.5246L76.1352 27.9582Z" fill="#3BAEAB"/>
<path d="M91.1278 28.9195V24.1637H93.2106V21.996H91.1278V18.8594H88.9605V20.4078C88.9605 21.3125 88.4858 22.007 87.4151 22.007H86.9102V24.1748H88.7676V29.3309C88.7676 31.2465 89.9228 32.3812 91.778 32.3812C92.2759 32.406 92.7737 32.3309 93.2432 32.16V30.1383C92.9706 30.1895 92.6945 30.2176 92.4174 30.2223C91.5201 30.2024 91.1278 29.8242 91.1278 28.9195Z" fill="#3BAEAB"/>
<path d="M99.106 26.1643L97.5888 25.8479C96.9711 25.7219 96.5788 25.3215 96.5788 24.7751C96.5788 24.1425 97.177 23.6161 98.0223 23.5961C99.0626 23.5718 99.379 23.8063 99.7215 24.1757H101.813C101.648 23.1648 100.818 21.6761 98.0136 21.6761C95.9308 21.6761 94.3291 23.1914 94.3291 24.9808C94.3291 26.3899 95.2567 27.5689 97.0318 27.9692L98.5143 28.3054C99.3184 28.4736 99.6911 28.896 99.6911 29.4424C99.6911 30.0728 99.1753 30.6214 98.1848 30.6214C96.9061 30.6214 96.2342 30.2409 96.1432 29.3163L94.0625 29.3606C94.2554 30.9244 95.2979 32.5569 98.2065 32.5569C100.764 32.5569 101.999 30.8315 101.999 29.2743C101.993 27.7635 100.998 26.5845 99.106 26.1643Z" fill="#3BAEAB"/>
<path d="M82.451 23.6335V21.9922H80.1211V32.2403H82.5052V27.3584C82.5052 25.4429 83.3569 24.1599 85.2122 24.1599C85.4593 24.1599 85.8906 24.1599 85.9903 24.1599V21.9944H85.3552C84.044 21.9944 82.9256 22.5186 82.451 23.6335Z" fill="#3BAEAB"/>
</svg>
